<?xml version="1.0" encoding="utf-8"?>
<!-- Generator: Adobe Illustrator 18.0.0, SVG Export Plug-In . SVG Version: 6.00 Build 0)  -->
<!DOCTYPE svg PUBLIC "-//W3C//DTD SVG 1.1//EN" "http://www.w3.org/Graphics/SVG/1.1/DTD/svg11.dtd">
<svg version="1.1" xmlns="http://www.w3.org/2000/svg" xmlns:xlink="http://www.w3.org/1999/xlink" x="0px" y="0px"
	 viewBox="0 0 478 116.7" enable-background="new 0 0 478 116.7" xml:space="preserve">
<g id="Fondo_xA0_Imagen_1_">
</g>
<g id="Rectángulo_1_1_" enable-background="new    ">
</g>
<g id="PANTALLA_1">
</g>
<g id="PANTALLA_1.1_C._Administrativo">
</g>
<g id="Rectángulo_1_copia_1_" enable-background="new    ">
</g>
<g id="Enlaces_a_los_Sistemas_1_">
</g>
<g id="PANTALLA_1.2_C._Académico_x0D__x0D_">
</g>
<g id="Rectángulo_1_copia_2_1_" enable-background="new    ">
</g>
<g id="Enlaces_a_los_Sistemas">
</g>
<g id="Enlaces_1_">
</g>
<g id="Moodle">
</g>
<g id="Estudiantes">
</g>
<g id="Docentes">
</g>
<g id="Educación_x0D_Continua">
</g>
<g id="Rectángulo_2_1_" enable-background="new    ">
</g>
<g id="Rectángulo_2_copia_1_" enable-background="new    ">
</g>
<g id="Rectángulo_2_copia_2_1_" enable-background="new    ">
</g>
<g id="Rectángulo_2_copia_3_1_" enable-background="new    ">
</g>
<g id="Enlaces">
</g>
<g id="Rectángulo_2_copia_5_7_" enable-background="new    ">
</g>
<g id="Rectángulo_2_copia_5_6_" enable-background="new    ">
</g>
<g id="Rectángulo_2_copia_5_5_" enable-background="new    ">
</g>
<g id="Rectángulo_2_copia_5_4_" enable-background="new    ">
</g>
<g id="Rectángulo_2_copia_6_1_" enable-background="new    ">
</g>
<g id="Rectángulo_2_copia_7_1_" enable-background="new    ">
</g>
<g id="Rectángulo_2_copia_8_1_" enable-background="new    ">
</g>
<g id="Rectángulo_2_copia_4_7_" enable-background="new    ">
</g>
<g id="Rectángulo_2_copia_4_6_" enable-background="new    ">
</g>
<g id="Rectángulo_2_copia_4_5_" enable-background="new    ">
</g>
<g id="Rectángulo_2_copia_4_4_" enable-background="new    ">
	<g id="Sistema_Integral_de_Información_Universitaria__Conjunto_Adminis_1_">
	</g>
	<g>
		<defs>
			<rect id="SVGID_1_" x="185.5" y="5.2" width="229" height="60"/>
		</defs>
		<clipPath id="SVGID_2_">
			<use xlink:href="#SVGID_1_"  overflow="visible"/>
		</clipPath>
		
			<rect x="185.5" y="5.2" opacity="0" clip-path="url(#SVGID_2_)" fill-rule="evenodd" clip-rule="evenodd" fill="#FFFFFF" width="229" height="60"/>
	</g>
	<g>
		<defs>
			<rect id="SVGID_3_" x="215.5" y="5.2" width="229" height="60"/>
		</defs>
		<clipPath id="SVGID_4_">
			<use xlink:href="#SVGID_3_"  overflow="visible"/>
		</clipPath>
		
			<rect x="215.5" y="5.2" opacity="0" clip-path="url(#SVGID_4_)" fill-rule="evenodd" clip-rule="evenodd" fill="#FFFFFF" width="229" height="60"/>
	</g>
	<g>
		<polygon fill="#03A1AF" points="88.9,99.6 75.4,99.6 43.9,18.6 57.4,18.6 		"/>
		<polygon fill="#03A1AF" points="31.7,51.3 12.9,99.6 26.4,99.6 45.2,51.3 		"/>
		<path fill="#014C6A" d="M145.2,99.6h-15l-20.3-27.8h-20V59.3h21.2c7.9,0,14.3-6.5,14.3-14.4s-6.4-14.4-14.3-14.4H89.7V17.4
			l21.5,0.1c15,0,27.1,12.3,27.1,27.4c0,11.1-6.5,20.7-15.9,25L145.2,99.6z"/>
		<rect x="152.2" y="17.9" fill="#014C6A" width="51" height="12.5"/>
		<rect x="152.2" y="50.6" fill="#014C6A" width="37.3" height="12.5"/>
		<rect x="152.2" y="87.1" fill="#014C6A" width="51" height="12.5"/>
		<path fill="#014C6A" d="M230.5,63c-11.2-2.4-19.3-11.6-19.3-22.2c0-12.7,11.8-23,26.4-23h27.1v12.5h-27.1
			c-7.2,0-13.1,4.7-13.1,10.5c0,4.8,4,9,9.5,10.1c3.8,0.8,8.3,1.5,16.2,2.8c12.1,2,21.3,11.4,21.3,22.6c0,12.7-11.8,23-26.4,23
			h-31.9V86.9h31.9c7.2,0,13.1-4.7,13.1-10.5c0-4.6-3.3-8.8-8.8-9.9C242.3,65,236.1,64.2,230.5,63z"/>
		<g>
			<path d="M317.5,30l-1.2,3.3h-1.6l4.4-11.4h1.8l4.2,11.4h-1.7l-1.1-3.3H317.5z M321.6,28.7l-1.7-5h0l-1.9,5H321.6z"/>
			<path d="M334.1,25.4c-0.4-2-2.1-2.4-3.2-2.4c-2.1,0-3.8,1.5-3.8,4.5c0,2.7,1,4.8,3.8,4.8c1,0,2.8-0.5,3.3-3.1h1.5
				c-0.6,4.3-4.2,4.5-5.1,4.5c-2.6,0-5.2-1.7-5.2-6.1c0-3.5,2-6,5.4-6c3,0,4.5,1.8,4.8,3.7H334.1z"/>
			<path d="M338.8,30l-1.2,3.3H336l4.4-11.4h1.8l4.2,11.4h-1.7l-1.1-3.3H338.8z M342.9,28.7l-1.7-5h0l-1.9,5H342.9z"/>
			<path d="M347.8,21.9h4.7c3,0,4.9,2.3,4.9,5.6c0,2.6-1.1,5.9-4.9,5.9h-4.6V21.9z M349.4,32h3c2,0,3.4-1.6,3.4-4.5
				c0-2.9-1.3-4.3-3.5-4.3h-2.9V32z"/>
			<path d="M368.1,33.4h-8.6V21.9h8.5v1.4h-6.9v3.5h6.4v1.4h-6.4V32h7V33.4z M363.9,20.8h-1.1l1.4-2.2h1.7L363.9,20.8z"/>
			<path d="M379.7,33.4v-6.7c0-0.3,0-1.8,0-2.8h0l-3.3,9.6h-1.6l-3.3-9.6h0c0,1.1,0,2.5,0,2.8v6.7h-1.5V21.9h2.2l3.3,9.7h0l3.3-9.7
				h2.2v11.4H379.7z"/>
			<path d="M386.1,23.1h-2.4v-1.3h6.2v1.3h-2.4V32h2.4v1.3h-6.2V32h2.4V23.1z"/>
			<path d="M401.2,33.4h-8.6V21.9h8.5v1.4h-6.9v3.5h6.4v1.4h-6.4V32h7V33.4z"/>
			<path d="M315.7,44.1h4.7c3,0,4.9,2.3,4.9,5.6c0,2.6-1.1,5.9-4.9,5.9h-4.6V44.1z M317.3,54.2h3c2,0,3.4-1.6,3.4-4.5
				c0-2.9-1.3-4.3-3.5-4.3h-2.9V54.2z"/>
			<path d="M336,55.6h-8.6V44.1h8.5v1.4H329V49h6.4v1.4H329v3.8h7V55.6z"/>
			<path d="M344.3,55.6h-1.6V44.1h5.4c1.9,0,3.8,0.7,3.8,3.1c0,1.7-0.9,2.3-1.6,2.7c0.7,0.3,1.3,0.6,1.4,2.1l0.1,2.1
				c0,0.6,0.1,0.9,0.6,1.1v0.3h-1.9c-0.2-0.7-0.3-2.4-0.3-2.9c0-0.9-0.2-2-2.1-2h-3.8V55.6z M344.3,49.3h3.6c1.1,0,2.4-0.3,2.4-2
				c0-1.8-1.3-1.9-2.1-1.9h-3.9V49.3z"/>
			<path d="M363,55.6h-8.6V44.1h8.5v1.4H356V49h6.4v1.4H356v3.8h7V55.6z"/>
			<path d="M373.2,47.6c-0.4-2-2.1-2.4-3.2-2.4c-2.1,0-3.8,1.5-3.8,4.5c0,2.7,1,4.8,3.8,4.8c1,0,2.8-0.5,3.3-3.1h1.5
				c-0.6,4.3-4.2,4.5-5.1,4.5c-2.6,0-5.2-1.7-5.2-6.1c0-3.5,2-6,5.4-6c3,0,4.5,1.8,4.8,3.7H373.2z"/>
			<path d="M384.3,44.1h1.6v11.4h-1.6v-5.3h-6.1v5.3h-1.6V44.1h1.6v4.7h6.1V44.1z"/>
			<path d="M397.1,55.6h-8.6V44.1h8.5v1.4h-6.9V49h6.4v1.4h-6.4v3.8h7V55.6z"/>
			<path d="M400.9,55.6h-1.6V44.1h5.4c1.9,0,3.8,0.7,3.8,3.1c0,1.7-0.9,2.3-1.6,2.7c0.7,0.3,1.3,0.6,1.4,2.1l0.1,2.1
				c0,0.6,0.1,0.9,0.6,1.1v0.3H407c-0.2-0.7-0.3-2.4-0.3-2.9c0-0.9-0.2-2-2.1-2h-3.8V55.6z M400.9,49.3h3.6c1.1,0,2.4-0.3,2.4-2
				c0-1.8-1.3-1.9-2.1-1.9h-3.9V49.3z"/>
			<path d="M418.9,47.6c-0.4-2-2.1-2.4-3.2-2.4c-2.1,0-3.8,1.5-3.8,4.5c0,2.7,1,4.8,3.8,4.8c1,0,2.8-0.5,3.3-3.1h1.5
				c-0.6,4.3-4.2,4.5-5.1,4.5c-2.6,0-5.2-1.7-5.2-6.1c0-3.5,2-6,5.4-6c3,0,4.5,1.8,4.8,3.7H418.9z"/>
			<path d="M430.1,44.1h1.6v11.4h-1.6v-5.3H424v5.3h-1.6V44.1h1.6v4.7h6.1V44.1z"/>
			<path d="M442.8,55.6h-8.6V44.1h8.5v1.4h-6.9V49h6.4v1.4h-6.4v3.8h7V55.6z"/>
			<path d="M458.1,55.6h-8.6V44.1h8.5v1.4h-6.9V49h6.4v1.4h-6.4v3.8h7V55.6z"/>
			<path d="M459.1,44.1h9.4v1.4h-3.9v10.1h-1.6V45.5h-3.9V44.1z"/>
			<path d="M315.7,66.4h4.7c3,0,4.9,2.3,4.9,5.6c0,2.6-1.1,5.9-4.9,5.9h-4.6V66.4z M317.3,76.5h3c2,0,3.4-1.6,3.4-4.5
				c0-2.9-1.3-4.3-3.5-4.3h-2.9V76.5z"/>
			<path d="M329.1,68.3h-1.1l1.4-2.2h1.7L329.1,68.3z"/>
			<path d="M341.4,77.8h-8.6V66.4h8.5v1.4h-6.9v3.5h6.4v1.4h-6.4v3.8h7V77.8z"/>
			<path d="M351.2,66.4h1.5v11.4h-1.8l-5.9-9.2h0v9.2h-1.5V66.4h1.9l5.8,9.2h0V66.4z"/>
			<path d="M362.1,69.7c-0.1-1.8-1.6-2.3-2.9-2.3c-1,0-2.7,0.3-2.7,2c0,1,0.7,1.3,1.4,1.4l3.3,0.7c1.5,0.4,2.6,1.2,2.6,3.1
				c0,2.7-2.6,3.5-4.5,3.5c-2.1,0-3-0.6-3.5-1.1c-1-0.9-1.2-1.8-1.2-2.9h1.5c0,2.1,1.7,2.7,3.2,2.7c1.1,0,3-0.3,3-1.9
				c0-1.2-0.6-1.6-2.5-2l-2.4-0.5c-0.8-0.2-2.5-0.7-2.5-2.7c0-1.8,1.2-3.5,4-3.5c4.1,0,4.5,2.4,4.5,3.6H362.1z"/>
			<path d="M374.6,77.8h-8.6V66.4h8.5v1.4h-6.9v3.5h6.4v1.4h-6.4v3.8h7V77.8z"/>
			<path d="M379.2,67.5h-2.4v-1.3h6.2v1.3h-2.4v8.9h2.4v1.3h-6.2v-1.3h2.4V67.5z"/>
			<path d="M390.6,71.7h5.1v6.1h-1l-0.4-1.5c-0.8,1.1-2.2,1.8-3.8,1.8c-2,0-3-0.7-3.6-1.3c-1.8-1.7-1.8-3.6-1.8-4.8
				c0-2.8,1.7-5.9,5.5-5.9c2.2,0,4.6,1.2,4.9,3.8H394c-0.5-2-2.2-2.4-3.5-2.4c-2.1,0-3.8,1.6-3.8,4.6c0,2.3,0.8,4.7,3.9,4.7
				c0.6,0,1.5-0.1,2.4-0.7c1-0.8,1.3-1.8,1.3-3h-3.6V71.7z"/>
			<path d="M405.8,66.4h1.5v11.4h-1.8l-5.9-9.2h0v9.2h-1.5V66.4h1.9l5.8,9.2h0V66.4z"/>
			<path d="M418.5,77.8H410V66.4h8.5v1.4h-6.9v3.5h6.4v1.4h-6.4v3.8h7V77.8z"/>
			<path d="M430.1,77.8V71c0-0.3,0-1.8,0-2.8h0l-3.3,9.6h-1.6l-3.3-9.6h0c0,1.1,0,2.5,0,2.8v6.7h-1.5V66.4h2.2l3.3,9.7h0l3.3-9.7
				h2.2v11.4H430.1z"/>
			<path d="M442.7,77.8h-8.6V66.4h8.5v1.4h-6.9v3.5h6.4v1.4h-6.4v3.8h7V77.8z"/>
			<path d="M452.5,66.4h1.5v11.4h-1.8l-5.9-9.2h0v9.2h-1.5V66.4h1.9l5.8,9.2h0V66.4z"/>
			<path d="M455.5,66.4h9.4v1.4h-3.9v10.1h-1.6V67.7h-3.9V66.4z"/>
			<path d="M322.7,91.9c-0.1-1.8-1.6-2.3-2.9-2.3c-1,0-2.7,0.3-2.7,2c0,1,0.7,1.3,1.4,1.4l3.3,0.7c1.5,0.4,2.6,1.2,2.6,3.1
				c0,2.7-2.6,3.5-4.5,3.5c-2.1,0-3-0.6-3.5-1.1c-1-0.9-1.2-1.8-1.2-2.9h1.5c0,2.1,1.7,2.7,3.2,2.7c1.1,0,3-0.3,3-1.9
				c0-1.2-0.6-1.6-2.5-2l-2.4-0.5c-0.8-0.2-2.5-0.7-2.5-2.7c0-1.8,1.2-3.5,4-3.5c4.1,0,4.5,2.4,4.5,3.6H322.7z"/>
			<path d="M335.6,88.6V96c0,2.3-1.5,4.3-4.7,4.3c-3.1,0-4.5-2-4.5-4.1v-7.6h1.6v7.2c0,2.5,1.5,3.2,2.9,3.2c1.4,0,3.1-0.7,3.1-3.1
				v-7.2H335.6z"/>
			<path d="M339.8,100h-1.6V88.6h5.2c2.1,0,3.4,1.4,3.4,3.2c0,1.6-0.9,3.4-3.4,3.4h-3.7V100z M339.8,93.9h3.1c1.4,0,2.4-0.5,2.4-2.1
				c0-1.4-1-1.9-2.3-1.9h-3.2V93.9z"/>
			<path d="M357.6,100H349V88.6h8.5v1.4h-6.9v3.5h6.4v1.4h-6.4v3.8h7V100z M353.4,87.5h-1.1l1.4-2.2h1.7L353.4,87.5z"/>
			<path d="M361.4,100h-1.6V88.6h5.4c1.9,0,3.8,0.7,3.8,3.1c0,1.7-0.9,2.3-1.6,2.7c0.7,0.3,1.3,0.6,1.4,2.1l0.1,2.1
				c0,0.6,0.1,0.9,0.6,1.1v0.3h-1.9c-0.2-0.7-0.3-2.4-0.3-2.9c0-0.9-0.2-2-2.1-2h-3.8V100z M361.4,93.8h3.6c1.1,0,2.4-0.3,2.4-2
				c0-1.8-1.3-1.9-2.1-1.9h-3.9V93.8z"/>
			<path d="M373.8,89.7h-2.4v-1.3h6.2v1.3h-2.4v8.9h2.4v1.3h-6.2v-1.3h2.4V89.7z"/>
			<path d="M388.9,100h-8.6V88.6h8.5v1.4h-6.9v3.5h6.4v1.4h-6.4v3.8h7V100z"/>
			<path d="M400.1,88.6V96c0,2.3-1.5,4.3-4.7,4.3c-3.1,0-4.5-2-4.5-4.1v-7.6h1.6v7.2c0,2.5,1.5,3.2,2.9,3.2c1.4,0,3.1-0.7,3.1-3.1
				v-7.2H400.1z"/>
			<path d="M404.4,100h-1.6V88.6h5.4c1.9,0,3.8,0.7,3.8,3.1c0,1.7-0.9,2.3-1.6,2.7c0.7,0.3,1.3,0.6,1.4,2.1l0.1,2.1
				c0,0.6,0.1,0.9,0.6,1.1v0.3h-1.9c-0.2-0.7-0.3-2.4-0.3-2.9c0-0.9-0.2-2-2.1-2h-3.8V100z M404.4,93.8h3.6c1.1,0,2.4-0.3,2.4-2
				c0-1.8-1.3-1.9-2.1-1.9h-3.9V93.8z"/>
		</g>
	</g>
</g>
</svg>
