<?xml version="1.0" encoding="utf-8"?>
<!-- Generator: Adobe Illustrator 18.0.0, SVG Export Plug-In . SVG Version: 6.00 Build 0)  -->
<!DOCTYPE svg PUBLIC "-//W3C//DTD SVG 1.1//EN" "http://www.w3.org/Graphics/SVG/1.1/DTD/svg11.dtd">
<svg version="1.1" xmlns="http://www.w3.org/2000/svg" xmlns:xlink="http://www.w3.org/1999/xlink" x="0px" y="0px"
	 viewBox="0 0 450 116.7" enable-background="new 0 0 450 116.7" xml:space="preserve">
<g id="Fondo_xA0_Imagen_1_">
</g>
<g id="Rectángulo_1_1_" enable-background="new    ">
</g>
<g id="PANTALLA_1">
</g>
<g id="PANTALLA_1.1_C._Administrativo">
</g>
<g id="Rectángulo_1_copia_1_" enable-background="new    ">
</g>
<g id="Enlaces_a_los_Sistemas_1_">
</g>
<g id="PANTALLA_1.2_C._Académico_x0D__x0D_">
</g>
<g id="Rectángulo_1_copia_2_1_" enable-background="new    ">
</g>
<g id="Enlaces_a_los_Sistemas">
</g>
<g id="Enlaces_1_">
</g>
<g id="Moodle">
</g>
<g id="Estudiantes">
</g>
<g id="Docentes">
</g>
<g id="Educación_x0D_Continua">
</g>
<g id="Rectángulo_2_1_" enable-background="new    ">
</g>
<g id="Rectángulo_2_copia_1_" enable-background="new    ">
</g>
<g id="Rectángulo_2_copia_2_1_" enable-background="new    ">
</g>
<g id="Rectángulo_2_copia_3_1_" enable-background="new    ">
</g>
<g id="Enlaces">
</g>
<g id="Rectángulo_2_copia_5_7_" enable-background="new    ">
</g>
<g id="Rectángulo_2_copia_5_6_" enable-background="new    ">
</g>
<g id="Rectángulo_2_copia_5_5_" enable-background="new    ">
</g>
<g id="Rectángulo_2_copia_5_4_" enable-background="new    ">
</g>
<g id="Rectángulo_2_copia_6_1_" enable-background="new    ">
</g>
<g id="Rectángulo_2_copia_7_1_" enable-background="new    ">
</g>
<g id="Rectángulo_2_copia_8_1_" enable-background="new    ">
</g>
<g id="Rectángulo_2_copia_4_7_" enable-background="new    ">
</g>
<g id="Rectángulo_2_copia_4_6_" enable-background="new    ">
</g>
<g id="Rectángulo_2_copia_4_5_" enable-background="new    ">
</g>
<g id="Rectángulo_2_copia_4_4_" enable-background="new    ">
	<g id="Sistema_Integral_de_Información_Universitaria__Conjunto_Adminis_1_">
	</g>
	<g>
		<path d="M365.5,45.5V17.7H352v77.5c0,0,8.1,4.5,18.4,4.5c10.2,0,21.8-5.9,27.3-19.1c0,0,4,19.5,24.3,19.5c0,0,12.5-0.5,19.1-7
			l-4.3-8.2c0,0-5.5,6.2-15.2,4.3s-12.3-8.7-12.3-14.5h33.4c0,0,2.7-17.3-9.6-27.5s-32.5-1.6-34.4,14.1c0,0-2-10-9.5-15.2
			C383.5,42.1,372.3,40.5,365.5,45.5z"/>
		<path fill="#F1C12B" d="M365.5,87.8V55.4c0,0,9.6-5.1,16.2,0.4c6.6,5.5,9.8,19.3,2.1,28.4S365.5,87.8,365.5,87.8z"/>
		<path fill="#EB2933" d="M408.9,65.5h20.9c0,0,0.2-12-8.4-13.2C411.8,50.9,408.7,59.6,408.9,65.5z"/>
		<circle cx="340.2" cy="91.5" r="7.5"/>
		<g>
			<path d="M19.3,68.2V48.6h4.6v15.7h5.7v3.9H19.3z"/>
			<path d="M30.2,68.2l4.3-19.6h5.6l4.3,19.6h-4.7l-0.7-3.8h-3.6l-0.6,3.8H30.2z M37.4,52.2L37.4,52.2L36,60.9h2.7L37.4,52.2z"/>
			<path d="M60.1,55.5v-1.3c0-1.7-0.6-2.5-1.5-2.5c-1.4,0-1.8,0.8-1.8,2l0,9.7c0,1.1,0.4,1.7,1.7,1.7c1.6,0,1.7-1.6,1.7-2.8v-1.8
				h4.6V63c0,3.4-1.9,5.7-6.7,5.7c-4.3,0-5.9-2.2-5.9-6.2v-8c0-4.3,2-6.2,6.2-6.2c3.9,0,6.3,1.7,6.3,5.7v1.6H60.1z"/>
			<path d="M79.5,62c0,4.4-1.6,6.7-6.2,6.7s-6.3-2.3-6.3-6.7v-8c0-3.8,2.3-5.8,6.3-5.8c4.1,0,6.2,2.1,6.2,5.8V62z M74.8,54.3
				c0-1.2-0.1-2.6-1.6-2.6c-1.5,0-1.7,1.4-1.7,2.6v8c0,1.1,0.2,2.8,1.7,2.8c1.5,0,1.6-1.7,1.6-2.8V54.3z"/>
			<path d="M94.1,62c0,4.4-1.6,6.7-6.2,6.7c-4.7,0-6.3-2.3-6.3-6.7v-8c0-3.8,2.3-5.8,6.3-5.8c4.1,0,6.2,2.1,6.2,5.8V62z M89.5,54.3
				c0-1.2-0.1-2.6-1.6-2.6c-1.5,0-1.7,1.4-1.7,2.6v8c0,1.1,0.2,2.8,1.7,2.8c1.5,0,1.6-1.7,1.6-2.8V54.3z"/>
			<path d="M96.5,68.2V48.6h5.5c1.8,0,4.4,0.2,5.7,1.6c1.1,1.2,1.3,2.7,1.3,4.3c0,2.1-0.5,4.5-2.6,5.5c-1.6,0.8-3.5,0.5-5.2,0.6v7.6
				H96.5z M101.2,57.1c0.9,0,1.9,0.1,2.6-0.5c0.5-0.5,0.6-1.3,0.6-2c0-0.8-0.1-1.9-0.9-2.3c-0.4-0.2-1.1-0.2-1.8-0.2h-0.5V57.1z"/>
			<path d="M111,68.2V48.6h10.6v3.9h-6v3.6h5.8v3.9h-5.8v4.2h6.3v3.9H111z M121.7,42.8l-4.5,3.9h-3.6l2.6-3.9H121.7z"/>
			<path d="M128.7,68.2H124V48.6h6.8c3.8,0,5.7,1.5,5.7,5.4c0,2.1-0.5,3.6-2.4,4.5v0.1c1.3,0.3,2.2,1.2,2.3,2.5
				c0.1,1.6,0.2,4.9,0.4,6.2c0.1,0.3,0.2,0.5,0.4,0.7v0.3h-5.1c-0.1-0.4-0.2-0.7-0.3-1.1c-0.1-1.7,0-3.3-0.1-4.5
				c-0.1-1.2-0.5-2-1.6-2.1h-1.5V68.2z M128.7,56.9h1.6c1.3,0,1.7-1.2,1.7-2.4c0-2.3-1-2.4-3.2-2.4V56.9z"/>
			<path d="M137.8,68.2l4.3-19.6h5.6l4.3,19.6h-4.7l-0.7-3.8H143l-0.6,3.8H137.8z M144.9,52.2L144.9,52.2l-1.4,8.8h2.7L144.9,52.2z"
				/>
			<path d="M151.3,48.6h12v3.9h-3.7v15.7H155V52.5h-3.6V48.6z"/>
			<path d="M165.2,68.2V48.6h4.6v19.6H165.2z"/>
			<path d="M184.8,62c0,4.4-1.6,6.7-6.2,6.7c-4.7,0-6.3-2.3-6.3-6.7v-8c0-3.8,2.3-5.8,6.3-5.8s6.2,2.1,6.2,5.8V62z M180.2,54.3
				c0-1.2-0.1-2.6-1.6-2.6c-1.5,0-1.7,1.4-1.7,2.6v8c0,1.1,0.2,2.8,1.7,2.8c1.5,0,1.6-1.7,1.6-2.8V54.3z"/>
			<path d="M191,57.2L191,57.2l0.4,11H187V48.6h4.8l3.6,10.9h0.1L195,48.6h4.4v19.6h-4.7L191,57.2z"/>
			<path d="M19.5,99.5V80h6c3.5,0,6.2,1.1,6.2,5.1c0,1.7-0.6,3.3-2.2,4.1v0.1c2.1,1.2,2.6,2.2,2.6,4.7c0,4-2.3,5.7-6,5.7H19.5z
				 M24.1,87.7c2-0.1,3,0,3-2.3c0-1.9-1.3-1.9-3-1.9V87.7z M24.1,96c2.3-0.1,3.3,0.1,3.3-2.5c0-2.3-1.3-2.2-3.3-2.3V96z"/>
			<path d="M34.2,99.5V80h10.6v3.9h-6v3.6h5.8v3.9h-5.8v4.2h6.3v3.9H34.2z"/>
			<path d="M47.1,99.5V80h4.6v15.7h5.7v3.9H47.1z"/>
			<path d="M68.1,99.6l-0.2-1.7h-0.1c-0.9,1.7-2,2.2-4,2.2c-3.9,0-5.2-2.7-5.2-6.2v-8c0-4.3,2-6.2,6.2-6.2c3.9,0,6.3,1.7,6.3,5.7
				v1.5h-4.6v-1.1c0-1.7-0.2-2.5-1.4-2.5c-1.4,0-1.8,0.8-1.8,2v9.7c0,1.1,0.5,1.7,1.7,1.7c1.6,0,1.6-1.3,1.6-2.5v-1.5H65v-3.5h6.3
				v10.7H68.1z"/>
			<path d="M73.7,99.5V80h10.6v3.9h-6v3.6h5.8v3.9h-5.8v4.2h6.3v3.9H73.7z"/>
			<path d="M92.4,99.5L96.7,80h5.6l4.3,19.6h-4.7l-0.7-3.8h-3.6l-0.6,3.8H92.4z M99.5,83.5L99.5,83.5l-1.4,8.8h2.7L99.5,83.5z"/>
			<path d="M107.9,80h4.6v14.8c0,0.9,0.3,1.7,1.6,1.7c1.2,0,1.6-1,1.6-1.9V80h4.6v14.2c0,3.3-1.5,5.9-6.2,5.9
				c-3.9,0-6.2-1.9-6.2-5.9V80z"/>
			<path d="M129.2,99.5V80h5c1.7,0,3.7,0.1,5.2,0.9c1.8,1,2.1,3,2.1,4.8v8.7c0,2-0.6,3.4-2,4.2c-1.2,0.8-2.7,0.9-4.1,0.9H129.2z
				 M133.9,96c3.1,0.2,3.1-1,3.1-3.7V86c0-2.3-0.8-2.4-3.1-2.5V96z"/>
			<path d="M143.9,99.5V80h10.6v3.9h-6v3.6h5.8v3.9h-5.8v4.2h6.3v3.9H143.9z M154.6,74.2l-4.5,3.9h-3.6l2.6-3.9H154.6z"/>
			<path d="M160.4,99.5L156.1,80h4.6l2.4,13.7h0.1l2.4-13.7h4.6l-4.3,19.6H160.4z"/>
			<path d="M171.7,99.5V80h10.6v3.9h-6v3.6h5.8v3.9h-5.8v4.2h6.3v3.9H171.7z"/>
			<path d="M184.6,99.5V80h4.6v15.7h5.7v3.9H184.6z"/>
			<path d="M208.9,93.3c0,4.4-1.6,6.7-6.2,6.7c-4.7,0-6.3-2.3-6.3-6.7v-8c0-3.8,2.3-5.8,6.3-5.8c4.1,0,6.2,2.1,6.2,5.8V93.3z
				 M204.3,85.6c0-1.2-0.1-2.6-1.6-2.6c-1.5,0-1.7,1.4-1.7,2.6v8c0,1.1,0.2,2.8,1.7,2.8c1.5,0,1.6-1.7,1.6-2.8V85.6z"/>
			<path d="M211.3,99.5V80h5.5c1.8,0,4.4,0.2,5.7,1.6c1.1,1.2,1.3,2.7,1.3,4.3c0,2.1-0.5,4.5-2.6,5.5c-1.6,0.8-3.5,0.5-5.2,0.6v7.6
				H211.3z M216,88.4c0.9,0,1.9,0.1,2.6-0.5c0.5-0.5,0.6-1.3,0.6-2c0-0.8-0.1-1.9-0.9-2.3c-0.4-0.2-1.1-0.2-1.8-0.2H216V88.4z"/>
			<path d="M226,99.5V80h5.5c1.8,0,4.4,0.2,5.7,1.6c1.1,1.2,1.3,2.7,1.3,4.3c0,2.1-0.5,4.5-2.6,5.5c-1.6,0.8-3.5,0.5-5.2,0.6v7.6
				H226z M230.6,88.4c0.9,0,1.9,0.1,2.6-0.5c0.5-0.5,0.6-1.3,0.6-2c0-0.8-0.1-1.9-0.9-2.3c-0.4-0.2-1.1-0.2-1.8-0.2h-0.5V88.4z"/>
			<path d="M240.4,99.5V80H251v3.9h-6v3.6h5.8v3.9h-5.8v4.2h6.3v3.9H240.4z"/>
			<path d="M253.7,99.5V80h6.5l2.4,11.6h0.1l2.5-11.6h6.5v19.6h-4.4l0.5-15.4h-0.1l-3.3,15.4h-3.4l-3.2-15.4h-0.1l0.4,15.4H253.7z"
				/>
			<path d="M274.1,99.5V80h10.6v3.9h-6v3.6h5.8v3.9h-5.8v4.2h6.3v3.9H274.1z"/>
			<path d="M291.2,88.6L291.2,88.6l0.4,11h-4.4V80h4.8l3.6,10.9h0.1L295.1,80h4.4v19.6h-4.7L291.2,88.6z"/>
			<path d="M301.2,80h12v3.9h-3.7v15.7h-4.6V83.9h-3.6V80z"/>
		</g>
	</g>
</g>
</svg>
