<?xml version="1.0" encoding="utf-8"?>
<!-- Generator: Adobe Illustrator 18.0.0, SVG Export Plug-In . SVG Version: 6.00 Build 0)  -->
<!DOCTYPE svg PUBLIC "-//W3C//DTD SVG 1.1//EN" "http://www.w3.org/Graphics/SVG/1.1/DTD/svg11.dtd">
<svg version="1.1" xmlns="http://www.w3.org/2000/svg" xmlns:xlink="http://www.w3.org/1999/xlink" x="0px" y="0px"
	 viewBox="0 0 86.4 83.9" enable-background="new 0 0 86.4 83.9" xml:space="preserve">
<g id="Fondo_xA0_Imagen_1_">
</g>
<g id="Rectángulo_1_1_" enable-background="new    ">
</g>
<g id="PANTALLA_1">
</g>
<g id="PANTALLA_1.1_C._Administrativo">
</g>
<g id="Rectángulo_1_copia_1_" enable-background="new    ">
</g>
<g id="Enlaces_a_los_Sistemas_1_">
</g>
<g id="PANTALLA_1.2_C._Académico_x0D__x0D_">
</g>
<g id="Rectángulo_1_copia_2_1_" enable-background="new    ">
</g>
<g id="Enlaces_a_los_Sistemas">
</g>
<g id="Enlaces_1_">
</g>
<g id="Moodle">
</g>
<g id="Estudiantes">
</g>
<g id="Docentes">
</g>
<g id="Educación_x0D_Continua">
</g>
<g id="Rectángulo_2_1_" enable-background="new    ">
</g>
<g id="Rectángulo_2_copia_1_" enable-background="new    ">
</g>
<g id="Rectángulo_2_copia_2_1_" enable-background="new    ">
</g>
<g id="Rectángulo_2_copia_3_1_" enable-background="new    ">
</g>
<g id="Enlaces">
</g>
<g id="Rectángulo_2_copia_5_7_" enable-background="new    ">
</g>
<g id="Rectángulo_2_copia_5_6_" enable-background="new    ">
</g>
<g id="Rectángulo_2_copia_5_5_" enable-background="new    ">
</g>
<g id="Rectángulo_2_copia_5_4_" enable-background="new    ">
</g>
<g id="Rectángulo_2_copia_6_1_" enable-background="new    ">
</g>
<g id="Rectángulo_2_copia_7_1_" enable-background="new    ">
</g>
<g id="Rectángulo_2_copia_8_1_" enable-background="new    ">
</g>
<g id="Rectángulo_2_copia_4_7_" enable-background="new    ">
</g>
<g id="Rectángulo_2_copia_4_6_" enable-background="new    ">
</g>
<g id="Rectángulo_2_copia_4_5_" enable-background="new    ">
</g>
<g id="Rectángulo_2_copia_4_4_" enable-background="new    ">
	<g id="Sistema_Integral_de_Información_Universitaria__Conjunto_Adminis_1_">
	</g>
	<g>
		<g>
			<path fill="#AB9021" d="M71.5,14.3c-7.5-7.5-17.4-11.6-28-11.6C33,2.7,23,6.8,15.5,14.3c-7.5,7.5-11.6,17.4-11.6,28
				c0,10.6,4.1,20.5,11.6,28c7.5,7.5,17.4,11.6,28,11.6c10.6,0,20.5-4.1,28-11.6c7.5-7.5,11.6-17.4,11.6-28
				C83.1,31.7,79,21.8,71.5,14.3z"/>
			<circle fill="#FFFFFF" cx="43.6" cy="42.3" r="38.2"/>
			<path fill="#AB9021" d="M63.9,21.9c-5.4-5.4-12.7-8.4-20.4-8.4c-7.7,0-14.9,3-20.4,8.4c-5.4,5.4-8.4,12.7-8.4,20.4
				c0,7.7,3,14.9,8.4,20.4c5.4,5.4,12.7,8.4,20.4,8.4c7.7,0,14.9-3,20.4-8.4c5.4-5.4,8.4-12.7,8.4-20.4
				C72.4,34.6,69.4,27.4,63.9,21.9z"/>
			<circle fill="#0075BE" cx="43.5" cy="42.3" r="27.5"/>
			<path fill="#AB9021" d="M11.9,41.2L11.9,41.2c0,0.2-0.1,0.3-0.2,0.4c-0.1,0.1-0.4,0.1-0.8,0.1l-2.1,0c-0.4,0-0.7,0-0.8-0.1
				C8,41.5,8,41.4,7.9,41.2l0,0h0l-0.7,0h0l0,0l0,1.9v0l0,0l0.7,0l0,0l0,0c0-0.2,0.1-0.3,0.2-0.3c0.1-0.1,0.4-0.1,0.8-0.1l2.1,0
				c0.4,0,0.7,0,0.8,0.1c0.1,0.1,0.2,0.2,0.2,0.3l0,0h0l0.7,0h0v0l0-1.9v0l0,0L11.9,41.2L11.9,41.2z M8.3,47.9L8.3,47.9
				c0-0.2,0-0.3,0.1-0.4c0.1-0.1,0.4-0.1,0.8-0.2l2-0.2c0.4,0,0.7,0,0.8,0c0.1,0,0.2,0.1,0.2,0.3l0,0l0,0l0.7-0.1l0,0l0,0L12.8,46
				l0,0l0,0L12.2,46l0,0l0,0c0,0.2,0,0.3-0.1,0.3c-0.1,0.1-0.4,0.1-0.8,0.2l-2.3,0.2l3.8-2.1l0,0l0,0L12.6,44l0,0l0,0l-3.7,0.4
				c-0.4,0-0.7,0-0.8,0c-0.1,0-0.2-0.1-0.2-0.3l0,0l0,0l-0.7,0.1l0,0l0,0l0.1,1.4l0,0l0,0L8,45.4l0,0l0,0c0-0.2,0-0.3,0.1-0.3
				C8.3,45,8.5,45,9,44.9l1.3-0.1l-2.8,1.5l0,0l0,0l0.2,1.6l0,0l0,0L8.3,47.9L8.3,47.9z M7.9,40.6L7.9,40.6L7.9,40.6
				c0.1-0.2,0.1-0.3,0.2-0.4c0.1-0.1,0.3-0.1,0.6-0.2l4.1-0.6l0,0l0,0l0.1-0.7l0,0l0,0L9,37.1c-0.2-0.1-0.3-0.2-0.4-0.3
				c-0.1-0.1-0.1-0.2-0.2-0.4l0,0l0,0l-0.6-0.1l0,0l0,0l-0.2,1.5l0,0l0,0L8.2,38l0,0l0,0c0.1-0.2,0.1-0.3,0.1-0.3c0,0,0.1-0.1,0.2,0
				c0.1,0,0.1,0,0.3,0.1c0,0,0,0,0.1,0c0,0,1.9,0.8,2.4,0.9L8.7,39c0,0-0.1,0-0.1,0c-0.1,0-0.2,0-0.2,0c-0.1,0-0.2,0-0.2-0.1
				c0-0.1-0.1-0.2-0.1-0.4v0l0,0l-0.6-0.1l0,0l0,0l-0.2,2l0,0l0,0L7.9,40.6z M12.8,48.5c-0.4-0.1-1-0.1-1.7,0L9.5,49
				c-0.4,0.1-0.7,0.1-0.8,0.1c-0.1,0-0.2-0.1-0.2-0.3l0,0l0,0l-0.6,0.2l0,0l0,0l0.3,1.3l0,0l0,0l0.6-0.1l0,0l0,0
				c0-0.2,0-0.3,0.1-0.3c0.1-0.1,0.3-0.2,0.8-0.3l1.7-0.4c0.4-0.1,0.7-0.1,0.9,0c0.2,0.1,0.4,0.2,0.4,0.5c0.1,0.2,0,0.4-0.1,0.5
				c-0.1,0.2-0.4,0.3-0.7,0.3L9.9,51c-0.4,0.1-0.7,0.1-0.8,0.1C9,51,9,50.9,8.9,50.8l0,0l0,0l-0.6,0.1l0,0l0,0l0.4,1.8l0,0l0,0
				l0.6-0.2l0,0l0,0c0-0.2,0-0.3,0.1-0.3c0.1-0.1,0.3-0.2,0.8-0.3l1.9-0.5c0.6-0.1,1-0.4,1.3-0.7c0.2-0.3,0.3-0.7,0.2-1.2
				C13.5,49,13.2,48.7,12.8,48.5z M13.8,33.7l-1.6-1l0,0l0,0L11.8,33l0,0l0,0c0.4,0.3,0.7,0.6,0.9,0.9c0.2,0.3,0.2,0.6,0.2,0.9
				c0,0.2-0.1,0.2-0.2,0.3c-0.1,0-0.3,0-0.5,0l-1.2-0.3l0-0.1c0-0.1,0.1-0.2,0.3-0.3c0.2,0,0.4,0,0.7,0l0,0l0,0L12,34l0,0l0,0
				l-2.3-0.6l0,0l0,0l-0.1,0.4l0,0l0,0c0.3,0.1,0.5,0.2,0.6,0.3c0.1,0.1,0.1,0.2,0.1,0.4l0,0.1l-0.7-0.2C9.2,34.4,9,34.3,9,34.2
				c-0.1-0.1-0.1-0.2,0-0.3c0.1-0.3,0.2-0.5,0.5-0.7c0.2-0.2,0.6-0.3,1-0.4l0,0l0,0l-0.2-0.4l0,0l0,0l-1.7,0.1l0,0l0,0l-0.7,3l0,0
				l0,0l0.6,0.2l0,0l0,0c0-0.2,0.1-0.2,0.2-0.3c0.1,0,0.4,0,0.8,0.1l2,0.5c0.4,0.1,0.7,0.2,0.8,0.3c0.1,0.1,0.1,0.2,0.1,0.3l0,0l0,0
				l0.6,0.2l0,0l0,0L13.8,33.7L13.8,33.7L13.8,33.7z"/>
			<path fill="#AB9021" d="M19.6,18.8c-0.7-0.6-1.3-0.9-1.9-0.9c-0.6,0-1.1,0.2-1.6,0.8L14.9,20l0,0l0,0l0.5,0.4l0,0l0,0
				c0.1-0.1,0.2-0.2,0.3-0.1c0.1,0,0.3,0.2,0.7,0.5l1.5,1.4c0.3,0.3,0.5,0.5,0.5,0.6c0,0.1,0,0.2-0.1,0.3l0,0l0,0l0.5,0.4l0,0l0,0
				l1.2-1.4c0.5-0.5,0.6-1.1,0.5-1.7C20.6,19.9,20.2,19.3,19.6,18.8z M19.6,21.7c-0.1,0.1-0.2,0.2-0.3,0.2c-0.1,0-0.2-0.1-0.5-0.3
				l-2-1.8c-0.3-0.2-0.3-0.4-0.4-0.4c0-0.1,0-0.2,0.1-0.3c0.2-0.3,0.5-0.4,0.9-0.3c0.4,0.1,0.8,0.3,1.3,0.7c0.5,0.4,0.8,0.8,0.9,1.2
				C19.9,21.2,19.8,21.5,19.6,21.7z M15.8,25c-0.4-0.2-0.7-0.3-1-0.3c-0.3,0-0.6,0.2-1,0.5c0,0-0.1,0.1-0.2,0.1
				c-0.5,0.4-0.8,0.6-1.1,0.5c-0.1-0.1-0.2-0.2-0.3-0.3c0-0.1,0-0.3,0.1-0.4c0.1-0.2,0.3-0.3,0.6-0.4c0.3-0.1,0.6-0.1,1,0l0,0l0,0
				l0-0.4l0,0l0,0l-1.5-0.5l0,0l0,0L12.2,24l0,0l0,0l0.2,0.2c-0.2,0.1-0.3,0.1-0.4,0.2c-0.1,0.1-0.2,0.2-0.3,0.4
				c-0.2,0.3-0.2,0.7,0,1.1c0.2,0.4,0.5,0.7,0.9,0.9c0.2,0.1,0.4,0.2,0.7,0.2c0.2,0,0.4,0,0.6,0c0.1,0,0.2-0.1,0.4-0.2
				c0.1-0.1,0.3-0.2,0.5-0.4c0,0,0.1-0.1,0.1-0.1c0.4-0.4,0.8-0.5,1-0.4c0.2,0.1,0.3,0.2,0.3,0.4c0.1,0.2,0,0.3-0.1,0.5
				c-0.1,0.2-0.4,0.4-0.7,0.5c-0.3,0.1-0.8,0.1-1.2,0l0,0l0,0l0,0.5l0,0l0,0l2,0.6l0,0l0,0l0.2-0.3l0,0l0,0l-0.2-0.2
				c0.2-0.1,0.3-0.2,0.5-0.3c0.1-0.1,0.3-0.3,0.4-0.4c0.2-0.4,0.2-0.8,0.1-1.2C16.6,25.6,16.3,25.2,15.8,25z M18.2,23.5L18.2,23.5
				L18.2,23.5c-0.1,0.1-0.3,0.2-0.4,0.2c-0.1,0-0.4-0.1-0.7-0.4l-1.7-1.2c-0.3-0.2-0.5-0.4-0.6-0.5c-0.1-0.1,0-0.2,0.1-0.4l0,0l0,0
				l-0.5-0.4l0,0l0,0l-1.1,1.5l0,0l0,0l0.5,0.4l0,0l0,0c0.1-0.1,0.2-0.2,0.3-0.2c0.1,0,0.4,0.1,0.7,0.4l1.7,1.2
				c0.3,0.2,0.5,0.4,0.6,0.5c0.1,0.1,0,0.2-0.1,0.4l0,0l0,0l0.5,0.4l0,0l0,0l1.1-1.5l0,0l0,0L18.2,23.5z M15,28.7L15,28.7L15,28.7
				c-0.1,0.1-0.2,0.2-0.3,0.3c-0.1,0.1-0.2,0.1-0.4,0.1l-1.5,0.2c0-0.3-0.1-0.6-0.2-0.8c-0.2-0.2-0.4-0.4-0.8-0.5
				c-0.5-0.2-0.9-0.2-1.2,0c-0.3,0.2-0.6,0.5-0.8,1l-0.8,2l0,0l0,0l0.6,0.2l0,0l0,0c0.1-0.2,0.2-0.2,0.3-0.3c0.1,0,0.4,0.1,0.8,0.2
				l1.9,0.8c0.4,0.2,0.6,0.3,0.7,0.4c0.1,0.1,0.1,0.2,0,0.4l0,0l0,0l0.6,0.2l0,0l0,0l0.7-1.7l0,0l0,0l-0.6-0.2l0,0l0,0
				C14,31,13.9,31,13.8,31.1c-0.1,0-0.4-0.1-0.8-0.2l-0.6-0.2l0.1-0.3l2.6-0.2l0,0l0,0l0.4-1.1l0,0l0,0L15,28.7z M11.8,30.2
				c0,0.1,0,0.1,0,0.1c0,0,0,0,0,0L10.8,30c-0.3-0.1-0.4-0.2-0.5-0.3c0-0.1,0-0.2,0-0.3c0.1-0.2,0.2-0.4,0.4-0.5
				c0.2-0.1,0.4-0.1,0.6,0c0.3,0.1,0.4,0.3,0.5,0.5C12,29.6,11.9,29.8,11.8,30.2z M24.4,17.2L24.4,17.2L24.4,17.2
				c-0.2,0.1-0.5,0-0.8-0.2c0,0,0,0,0,0c0,0-3.4-2.3-3.4-2.3l0,0l0,0l-0.6,0.6l0,0l0,0l1.7,3.5c0,0,0,0.1,0,0.1
				c0.2,0.5,0.2,0.8,0.1,1l0,0l0,0l0.4,0.5l0,0l0,0l1.2-1l0,0l0,0l-0.4-0.5l0,0l0,0C22.3,19,22.2,19,22.1,19c-0.1,0-0.2-0.1-0.2-0.2
				c0,0,0,0,0-0.1c0,0,0,0,0-0.1c0,0-0.3-0.5-0.3-0.6l0.8-0.7l0.6,0.4c0,0,0.1,0,0.1,0.1c0,0,0.1,0.1,0.1,0.1
				c0.1,0.1,0.1,0.1,0.1,0.2c0,0.1-0.1,0.1-0.2,0.2l0,0l0,0l0,0l0.4,0.5l0,0l0,0l1.4-1.2l0,0l0,0L24.4,17.2z M21.2,17.4l-0.6-1.3
				l1.1,0.8L21.2,17.4z M37.2,10L37.2,10L37.2,10c-0.1,0.5-0.3,0.9-0.5,1.2c-0.2,0.3-0.4,0.5-0.7,0.6c-0.2,0-0.3,0-0.3,0
				c-0.1-0.1-0.1-0.2-0.2-0.5L35.2,10l0.1,0c0.1,0,0.3,0,0.4,0.1c0.1,0.1,0.2,0.3,0.3,0.6l0,0l0,0l0.4-0.1l0,0l0,0l-0.6-2.3l0,0l0,0
				l-0.4,0.1l0,0l0,0c0.1,0.3,0.1,0.5,0,0.7c0,0.1-0.1,0.2-0.3,0.2l-0.1,0l-0.2-0.7c-0.1-0.3-0.1-0.5,0-0.5c0-0.1,0.1-0.1,0.3-0.2
				c0.3-0.1,0.5,0,0.8,0.1c0.3,0.1,0.6,0.4,0.8,0.7l0,0l0,0L37,8.4l0,0l0,0l-0.9-1.4l0,0l0,0l-3,0.7l0,0l0,0l0.2,0.6l0,0l0,0
				c0.2,0,0.3,0,0.3,0.1c0.1,0.1,0.2,0.3,0.3,0.8l0.5,2c0.1,0.4,0.1,0.7,0.1,0.8c0,0.1-0.1,0.2-0.3,0.2l0,0l0,0l0.2,0.6l0,0l0,0
				l3.1-0.7l0,0l0,0l0.1-1.9l0,0l0,0L37.2,10z M33.5,11.4L33,11.3l0,0l0,0c0,0.4-0.1,0.7-0.2,1c-0.1,0.3-0.3,0.5-0.5,0.5
				c-0.3,0.1-0.6,0-0.9-0.2c-0.3-0.3-0.6-0.7-0.8-1.3c-0.2-0.6-0.3-1.1-0.3-1.5c0-0.4,0.2-0.7,0.5-0.8c0.2-0.1,0.5,0,0.8,0.1
				c0.3,0.2,0.6,0.4,0.9,0.8l0,0l0,0l0.3-0.3l0,0l0,0l-1.2-1.7l0,0l0,0l-0.3,0.1l0,0l0,0l0,0.3c-0.2,0-0.3-0.1-0.5-0.1
				c-0.2,0-0.3,0-0.5,0.1c-0.5,0.2-0.9,0.6-1,1.2c-0.2,0.6-0.1,1.3,0.2,2.1c0.3,0.8,0.7,1.4,1.3,1.7c0.5,0.4,1.1,0.4,1.6,0.2
				c0.4-0.2,0.7-0.4,0.9-0.8C33.5,12.6,33.6,12.1,33.5,11.4L33.5,11.4L33.5,11.4z M46,6.3L46,6.3L46,6.3l-3.1-0.1l0,0l0,0l-0.5,1.6
				l0,0l0,0L42.8,8l0,0l0,0c0.2-0.4,0.3-0.7,0.5-0.8C43.4,7,43.6,7,43.9,7l0,0l-0.1,2.9c0,0.4,0,0.7-0.1,0.8
				c-0.1,0.1-0.2,0.1-0.3,0.2l0,0l0,0l0,0.7l0,0l0,0l1.9,0.1l0,0l0,0l0-0.7l0,0l0,0c-0.2,0-0.3-0.1-0.3-0.2
				c-0.1-0.1-0.1-0.4-0.1-0.8L44.9,7l0,0c0.2,0,0.4,0.1,0.6,0.3c0.2,0.2,0.3,0.5,0.4,0.9l0,0l0,0l0.4-0.2l0,0l0,0L46,6.3z M41.4,7.9
				c0-0.4,0-0.7,0-0.8c0-0.1,0.1-0.2,0.3-0.2l0,0l0,0l-0.1-0.7l0,0l0,0l-1.4,0.1l0,0l0,0L40.3,7l0,0l0,0c0.2,0,0.3,0,0.3,0.1
				c0.1,0.1,0.1,0.4,0.2,0.8l0.1,1.3l-1.5-2.8l0,0l0,0l-1.6,0.2l0,0l0,0l0.1,0.7l0,0l0,0c0.2,0,0.3,0,0.3,0.1
				c0.1,0.1,0.1,0.4,0.2,0.8l0.2,2c0,0.4,0,0.7,0,0.8c0,0.1-0.1,0.2-0.3,0.2l0,0l0,0l0.1,0.7l0,0l0,0l1.4-0.1l0,0l0,0l-0.1-0.6l0,0
				l0,0c-0.2,0-0.3,0-0.3-0.1c-0.1-0.1-0.1-0.4-0.2-0.8l-0.2-2.3l2.1,3.8l0,0l0,0l0.7-0.1l0,0l0,0L41.4,7.9z M25.3,11.8
				c-0.6-0.2-1.2-0.1-1.7,0.3l-1.5,1l0,0l0,0l0.4,0.5l0,0l0,0c0.1-0.1,0.2-0.1,0.3,0c0.1,0.1,0.3,0.3,0.5,0.6l1.1,1.7
				c0.2,0.4,0.4,0.6,0.4,0.7c0,0.1,0,0.2-0.2,0.3l0,0l0,0l0.4,0.5l0,0l0,0l1.5-1c0.6-0.4,0.9-0.9,1-1.5c0.1-0.6-0.1-1.3-0.6-2
				C26.4,12.5,25.8,12,25.3,11.8z M26.1,16.1c-0.1,0.1-0.2,0.1-0.3,0.1c-0.1,0-0.2-0.1-0.4-0.4l-1.5-2.3c-0.2-0.3-0.2-0.4-0.2-0.5
				c0-0.1,0.1-0.2,0.2-0.2c0.3-0.2,0.6-0.2,1,0c0.4,0.2,0.7,0.5,1.1,1.1c0.3,0.5,0.5,1,0.5,1.4C26.5,15.6,26.3,15.9,26.1,16.1z
				 M54.7,12.9c-0.2-0.1-0.3-0.4-0.3-0.8c0,0,0,0,0,0c0,0,0.2-4.1,0.2-4.1l0,0l0,0l-0.8-0.3l0,0l0,0L51.6,11c0,0,0,0-0.1,0.1
				c-0.3,0.4-0.5,0.6-0.8,0.6l0,0l0,0l-0.1,0.2l0-0.3l0,0l0,0c-0.1,0-0.2-0.1-0.3-0.2c-0.1-0.1-0.1-0.2-0.2-0.4c0,0-0.4-1.2-0.5-1.4
				c0.3-0.1,0.5-0.2,0.7-0.4c0.2-0.2,0.3-0.5,0.4-0.9c0.1-0.5,0-0.9-0.2-1.2C50.3,7,50,6.8,49.5,6.7l-2.1-0.3l0,0l0,0L47.2,7l0,0
				l0,0c0.2,0,0.3,0.1,0.3,0.2c0,0.1,0,0.4,0,0.8l-0.3,2c-0.1,0.4-0.1,0.7-0.2,0.8c-0.1,0.1-0.2,0.1-0.4,0.1l0,0l0,0l-0.1,0.7l0,0
				l0,0l1.9,0.3l0,0l0,0l0.1-0.7l0,0l0,0c-0.2,0-0.3-0.1-0.3-0.2c0-0.1,0-0.4,0-0.8l0.1-0.6l0.3,0.1l0.8,2.5l0,0l0,0l1.2,0.2l0,0
				l0,0l1.5,0.5l0,0l0,0l0.2-0.6l0,0l0,0c-0.1,0-0.2-0.1-0.3-0.2c0-0.1,0-0.2,0-0.3c0,0,0,0,0-0.1c0,0,0-0.1,0-0.1
				c0,0,0.3-0.5,0.4-0.6l1,0.3l0,0.7c0,0,0,0.1,0,0.1c0,0,0,0.1,0,0.1c0,0.1-0.1,0.2-0.1,0.2c-0.1,0-0.1,0-0.3,0l0,0l0,0l0,0
				L52.8,13l0,0l0,0l1.7,0.5l0,0l0,0L54.7,12.9L54.7,12.9L54.7,12.9z M49.4,8.8c-0.2,0.1-0.5,0.1-0.8,0.1c-0.1,0-0.1,0-0.1,0
				c0,0,0,0-0.1,0l0.2-0.9c0-0.3,0.1-0.4,0.2-0.5c0.1-0.1,0.2-0.1,0.3-0.1c0.2,0,0.4,0.1,0.5,0.3c0.1,0.2,0.2,0.4,0.1,0.6
				C49.7,8.5,49.6,8.7,49.4,8.8z M53.5,10.5l-0.6-0.2l0.8-1.2L53.5,10.5z"/>
			<path fill="#AB9021" d="M58.3,12.9L58.3,12.9L58.3,12.9c-0.4,0.3-0.7,0.6-1,0.7c-0.3,0.1-0.5,0.2-0.7,0.1
				c-0.1-0.1-0.2-0.1-0.2-0.2c0-0.1,0-0.2,0.2-0.5l0.9-2.1c0.2-0.4,0.3-0.6,0.4-0.7c0.1-0.1,0.2-0.1,0.3,0l0,0l0,0l0.3-0.6l0,0l0,0
				l-1.6-0.7l0,0l0,0l-0.3,0.6l0,0l0,0c0.1,0.1,0.2,0.2,0.2,0.3c0,0.1-0.1,0.4-0.3,0.8l-0.8,1.9c-0.2,0.4-0.3,0.6-0.4,0.7
				c-0.1,0.1-0.2,0.1-0.3,0l0,0l0,0l-0.3,0.6l0,0l0,0l2.6,1.2l0,0l0,0l1.2-1.5l0,0l0,0L58.3,12.9z"/>
			<path fill="#AB9021" d="M64.4,12.9l-1.5-1.1l0,0l0,0l-0.4,0.5l0,0l0,0c0.1,0.1,0.2,0.2,0.2,0.3c0,0.1-0.2,0.4-0.4,0.7L61,15.1
				c-0.3,0.3-0.4,0.6-0.5,0.6c-0.1,0-0.2,0-0.3-0.1l0,0l0,0l-0.4,0.5l0,0l0,0l1.5,1.1c0.6,0.4,1.2,0.5,1.7,0.4
				c0.6-0.2,1.1-0.6,1.6-1.3c0.5-0.7,0.7-1.4,0.7-2C65.3,13.8,65,13.3,64.4,12.9z M61.6,16.7c-0.1-0.1-0.2-0.2-0.2-0.3
				c0-0.1,0-0.2,0.3-0.5l1.6-2.2c0.2-0.3,0.3-0.4,0.4-0.4c0.1,0,0.2,0,0.3,0.1c0.3,0.2,0.4,0.5,0.4,0.9c0,0.4-0.2,0.9-0.6,1.4
				c-0.4,0.5-0.7,0.8-1.1,1C62.2,16.9,61.9,16.9,61.6,16.7z"/>
			<path fill="#AB9021" d="M67.3,20L67.3,20l-0.1-0.5l0,0l0,0c-0.5,0.2-0.9,0.3-1.2,0.3c-0.4,0-0.7-0.1-0.9-0.3
				c-0.1-0.1-0.2-0.2-0.2-0.3c0-0.1,0.1-0.2,0.3-0.4l0.8-0.9l0.1,0.1c0.1,0.1,0.1,0.2,0.1,0.4c0,0.2-0.2,0.4-0.4,0.6l0,0l0,0
				l0.3,0.3l0,0l0,0l1.7-1.7l0,0l0,0l-0.3-0.3l0,0l0,0c-0.2,0.2-0.4,0.4-0.5,0.4c-0.1,0-0.2,0-0.4-0.1l-0.1-0.1l0.5-0.5
				c0.2-0.2,0.3-0.3,0.4-0.3c0.1,0,0.2,0,0.3,0.1c0.2,0.2,0.3,0.4,0.3,0.7c0,0.3,0,0.7-0.2,1.1l0,0l0,0l0.4,0l0,0l0,0l0.7-1.5l0,0
				l0,0L67,14.9l0,0l0,0l-0.5,0.5l0,0l0,0c0.1,0.1,0.2,0.2,0.1,0.3c0,0.1-0.2,0.3-0.5,0.6l-1.4,1.5c-0.3,0.3-0.5,0.5-0.6,0.5
				c-0.1,0-0.2,0-0.3-0.1l0,0l0,0l-0.5,0.5l0,0l0,0l2.3,2.2l0,0l0,0L67.3,20L67.3,20z M71.5,19.6l-1.1-1.4l0,0l0,0l-0.5,0.4l0,0l0,0
				c0.1,0.1,0.1,0.2,0.1,0.3c0,0.1-0.2,0.3-0.6,0.6l-1.6,1.3c-0.3,0.3-0.6,0.4-0.7,0.5c-0.1,0-0.2,0-0.3-0.1l0,0l0,0l-0.5,0.4l0,0
				l0,0l1.8,2.2l0,0l0,0l1.8-0.8l0,0v0l0-0.5v0l0,0c-0.5,0.2-0.9,0.2-1.2,0.2c-0.3,0-0.6-0.1-0.7-0.3c-0.1-0.1-0.1-0.2-0.1-0.3
				c0-0.1,0.1-0.2,0.4-0.4l1.8-1.4c0.3-0.3,0.6-0.4,0.7-0.5c0.1,0,0.2,0,0.3,0.1l0,0l0,0L71.5,19.6L71.5,19.6L71.5,19.6z"/>
			<path fill="#AB9021" d="M75.9,26.3l-1.5-2.7l0,0l0,0l-0.6,0.3l0,0l0,0c0.1,0.1,0.1,0.3,0,0.4c-0.1,0.1-0.3,0.3-0.7,0.5l-1.8,1
				c-0.4,0.2-0.6,0.3-0.7,0.3c-0.1,0-0.2-0.1-0.3-0.2l0,0l0,0l-0.6,0.3l0,0l0,0l1.5,2.8l0,0l0,0l1.9-0.4l0,0l0,0l0.1-0.4l0,0l0,0
				c-0.5,0-0.9,0-1.3-0.1c-0.3-0.1-0.6-0.3-0.7-0.5c-0.1-0.1-0.1-0.2-0.1-0.3c0-0.1,0.2-0.2,0.4-0.3l1.1-0.6l0.1,0.1
				c0.1,0.1,0.1,0.2,0,0.4c-0.1,0.1-0.3,0.3-0.5,0.5l0,0l0,0l0.2,0.3l0,0l0,0l2.1-1.1l0,0l0,0L74.3,26l0,0l0,0
				c-0.3,0.1-0.5,0.2-0.6,0.2c-0.1,0-0.2-0.1-0.3-0.3c0,0,0-0.1-0.1-0.1l0.6-0.3c0.3-0.2,0.5-0.2,0.5-0.2c0.1,0,0.2,0.1,0.2,0.2
				c0.1,0.2,0.2,0.5,0.1,0.8c-0.1,0.3-0.2,0.6-0.5,1l0,0l0,0l0.4,0.2l0,0l0,0L75.9,26.3L75.9,26.3L75.9,26.3z"/>
			<path fill="#AB9021" d="M74.4,32.9L74.4,32.9l0.1-0.6l0,0l0,0c-0.4,0-0.7-0.1-1-0.2c-0.3-0.1-0.5-0.3-0.5-0.5
				c-0.1-0.3,0-0.6,0.2-0.9c0.3-0.3,0.7-0.6,1.3-0.8c0.6-0.2,1.1-0.3,1.5-0.3c0.4,0,0.7,0.2,0.8,0.5c0.1,0.2,0,0.5-0.1,0.8
				c-0.2,0.3-0.4,0.6-0.8,0.9l0,0l0,0l0.3,0.3l0,0l0,0l1.7-1.1l0,0l0,0l-0.1-0.3l0,0l0,0l-0.3,0c0-0.2,0.1-0.3,0.1-0.5
				c0-0.2,0-0.3-0.1-0.5c-0.2-0.5-0.6-0.9-1.2-1c-0.6-0.2-1.3-0.1-2.1,0.2c-0.8,0.3-1.4,0.7-1.7,1.2c-0.4,0.5-0.4,1.1-0.2,1.6
				c0.1,0.4,0.4,0.7,0.8,0.9C73.3,32.8,73.8,32.9,74.4,32.9L74.4,32.9z M79.1,36.2l-0.3-1.3l0,0l0,0L78.2,35l0,0l0,0
				c0,0.2,0,0.3-0.1,0.3c-0.1,0.1-0.3,0.2-0.8,0.3L75.5,36c-0.4,0.1-0.7,0.1-0.9,0c-0.2-0.1-0.4-0.2-0.4-0.5c0-0.2,0-0.4,0.1-0.5
				c0.1-0.1,0.4-0.3,0.7-0.3l1.9-0.4c0.4-0.1,0.7-0.1,0.8-0.1c0.1,0,0.2,0.1,0.2,0.3l0,0l0,0l0.6-0.1l0,0l0,0l-0.4-1.8l0,0l0,0
				l-0.6,0.1l0,0l0,0c0,0.2,0,0.3-0.1,0.3c-0.1,0.1-0.3,0.2-0.8,0.3l-1.9,0.4c-0.6,0.1-1,0.4-1.3,0.7c-0.2,0.3-0.3,0.7-0.2,1.2
				c0.1,0.5,0.4,0.8,0.8,1c0.4,0.2,1,0.1,1.7,0l1.6-0.4c0.4-0.1,0.7-0.1,0.8-0.1c0.1,0,0.2,0.1,0.2,0.3l0,0l0,0L79.1,36.2L79.1,36.2
				L79.1,36.2z"/>
			<path fill="#AB9021" d="M74,39.1L74,39.1L74,39.1l0.7,0l0,0l0,0c0-0.1,0-0.2,0.1-0.3c0-0.1,0.1-0.1,0.3-0.1c0,0,0,0,0.1,0
				c0,0,0.1,0,0.1,0c0,0,0.6,0.1,0.7,0.1l0.1,1.1l-0.7,0.3c0,0-0.1,0-0.1,0c0,0-0.1,0-0.1,0c-0.1,0-0.2,0-0.2-0.1
				c0,0-0.1-0.1-0.1-0.3l0,0l0,0l0,0l-0.6,0.1l0,0l0,0l0.2,1.8l0,0l0,0l0.7-0.1l0,0l0,0c0-0.2,0.2-0.4,0.6-0.5c0,0,0,0,0,0
				c0,0,3.9-1.4,3.9-1.4l0,0l0,0l-0.1-0.8l0,0l0,0L75.5,38c0,0-0.1,0-0.1,0c-0.5-0.1-0.8-0.3-0.8-0.5l0,0l0,0l-0.7,0.1l0,0l0,0
				L74,39.1z M78.1,39.1l-1.3,0.4l-0.1-0.7L78.1,39.1z M79.6,42L79,42l0,0l0,0c0,0.2-0.1,0.3-0.2,0.3c-0.1,0.1-0.4,0.1-0.8,0l-2-0.1
				c-0.4,0-0.7-0.1-0.8-0.1C75,42.1,75,42,75,41.8v0l0,0l-0.7,0l0,0l0,0l-0.1,1.8c0,0.7,0.2,1.3,0.6,1.7c0.4,0.4,1.1,0.6,2,0.7
				c0.9,0,1.5-0.1,2-0.5c0.5-0.4,0.7-0.9,0.8-1.6L79.6,42L79.6,42L79.6,42z M78.3,44.6c-0.4,0.2-0.9,0.3-1.5,0.2
				c-0.6,0-1.1-0.2-1.4-0.4c-0.3-0.2-0.5-0.5-0.5-0.9c0-0.2,0-0.2,0.1-0.3c0,0,0.2-0.1,0.5-0.1l2.7,0.1c0.4,0,0.5,0.1,0.5,0.1
				c0.1,0.1,0.1,0.2,0.1,0.3C78.8,44.2,78.6,44.4,78.3,44.6z M76.7,46.7c-0.8-0.2-1.5-0.1-2.1,0.2c-0.6,0.3-0.9,0.7-1,1.3
				c-0.1,0.6,0,1.1,0.5,1.6c0.4,0.5,1.1,0.8,1.9,0.9c0.8,0.2,1.5,0.1,2.1-0.2c0.6-0.3,0.9-0.7,1-1.3c0.1-0.6,0-1.1-0.5-1.6
				C78.1,47.2,77.5,46.9,76.7,46.7z M78.3,49.1c-0.1,0.3-0.3,0.5-0.7,0.6c-0.4,0.1-0.9,0.1-1.6,0c-0.6-0.1-1.1-0.3-1.5-0.5
				c-0.3-0.2-0.5-0.5-0.4-0.8c0.1-0.3,0.3-0.5,0.7-0.6c0.4-0.1,0.9-0.1,1.6,0c0.7,0.1,1.1,0.3,1.5,0.5
				C78.3,48.6,78.4,48.8,78.3,49.1z M77.6,52.1L77.6,52.1L77.6,52.1c-0.1,0.2-0.2,0.3-0.3,0.3c-0.1,0-0.4,0-0.8-0.2l-1.9-0.7
				c-0.4-0.1-0.6-0.3-0.7-0.3c-0.1-0.1-0.1-0.2,0-0.4l0,0l0,0l-0.6-0.2l0,0l0,0l-0.6,1.8l0,0l0,0l0.6,0.2l0,0l0,0
				c0.1-0.2,0.1-0.2,0.3-0.3c0.1,0,0.4,0,0.8,0.2l0.6,0.2L74.7,53l-2.6,0.4l0,0l0,0l-0.4,1.1l0,0l0,0l0.6,0.2l0,0l0,0
				c0.1-0.1,0.1-0.2,0.2-0.3c0.1-0.1,0.2-0.1,0.4-0.1l1.5-0.3c0,0.3,0.1,0.6,0.3,0.8c0.2,0.2,0.4,0.4,0.8,0.5c0.5,0.2,0.9,0.2,1.2,0
				c0.3-0.2,0.6-0.5,0.7-1l0.7-2l0,0l0,0L77.6,52.1z M76.9,53.9c-0.1,0.2-0.2,0.4-0.4,0.5c-0.2,0.1-0.4,0.1-0.6,0
				c-0.3-0.1-0.4-0.2-0.5-0.4c-0.1-0.2-0.1-0.5,0.1-0.8c0-0.1,0-0.1,0-0.1c0,0,0,0,0,0l0.9,0.3c0.3,0.1,0.4,0.2,0.5,0.3
				C77,53.6,77,53.7,76.9,53.9z"/>
			<g>
				<path fill="#AB9021" d="M33.9,71.7L33.9,71.7l-0.4-0.2l-0.1,0l0,0.1L33,72.7c-0.1,0.1-0.1,0.2-0.1,0.2c0,0-0.1,0.1-0.2,0
					c-0.1,0-0.2-0.1-0.2-0.2c0,0,0-0.1,0.1-0.3l0.4-1.2l0-0.1l-0.1,0l-0.4-0.1l-0.1,0l0,0.1L32,72.4c-0.1,0.2-0.1,0.4-0.1,0.5
					c0,0.3,0.2,0.5,0.5,0.6c0.3,0.1,0.6,0.1,0.8-0.1c0.1-0.1,0.2-0.3,0.3-0.5L33.9,71.7L33.9,71.7z M32,71L32,71l-1.3-0.5l-0.1,0
					l0,0.1l-0.8,1.8l0,0.1l0.1,0l0.3,0.1l0.1,0l0-0.1l0.3-0.7l0.6,0.3l0.1,0l0-0.1l0.1-0.3l0-0.1l-0.1,0l-0.6-0.3l0.1-0.2l0.7,0.3
					l0.1,0l0-0.1L32,71L32,71z M35.9,72.2l-0.3-0.1l-0.1,0l0,0.1l-0.3,1L34.9,72l0-0.1l-0.1,0l-0.4-0.1l-0.1,0l0,0.1l-0.5,1.9l0,0.1
					l0.1,0l0.3,0.1l0.1,0l0-0.1l0.3-1l0.2,1.2l0,0.1l0.1,0l0.4,0.1l0.1,0l0-0.1l0.5-1.9L35.9,72.2L35.9,72.2z"/>
				<path fill="#AB9021" d="M39.7,73L39.7,73L39.7,73l-0.5-0.1l-0.1,0l0,0.1l-0.9,1.9l-0.1,0.1l0.1,0l0.4,0.1l0.1,0l0-0.1l0.1-0.3
					l0.5,0.1l0.1,0.4l0,0.1l0.1,0l0.4,0.1l0.1,0l0-0.1L39.7,73z M39.1,74.1l0.2-0.3l0.1,0.4L39.1,74.1z M37.6,72.6
					c-0.1,0-0.2-0.1-0.3-0.1c0,0-0.8-0.2-0.8-0.2l-0.1,0l0,0.1l-0.4,2l0,0.1l0.1,0l0.8,0.2c0.3,0.1,0.6,0,0.8-0.3
					c0.1-0.2,0.2-0.4,0.3-0.7c0-0.1,0-0.2,0-0.3c0-0.1,0-0.3-0.1-0.4C37.9,72.8,37.8,72.7,37.6,72.6z M37.4,73.6
					c0,0.1-0.1,0.2-0.1,0.3c-0.1,0.2-0.2,0.2-0.3,0.2l-0.2-0.1l0.2-1.1l0.2,0.1c0.2,0,0.2,0.1,0.2,0.2
					C37.4,73.3,37.4,73.5,37.4,73.6z M42.2,73.5c-0.1-0.1-0.2-0.2-0.3-0.3c-0.1,0-0.2-0.1-0.3-0.1c0,0-0.8,0-0.8,0l-0.1,0l0,0.1
					l-0.1,2l0,0.1l0.1,0l0.8,0c0.3,0,0.5-0.1,0.7-0.4c0.1-0.2,0.2-0.4,0.2-0.7c0-0.1,0-0.2,0-0.3C42.3,73.7,42.3,73.6,42.2,73.5z
					 M41.8,74.2c0,0.1,0,0.3-0.1,0.3c-0.1,0.2-0.2,0.2-0.3,0.2l-0.3,0l0.1-1.1l0.3,0c0.2,0,0.2,0.1,0.3,0.1
					C41.8,73.8,41.8,74,41.8,74.2z M44,73.2L44,73.2L44,73.2l-0.5-0.1l-0.1,0l0,0.1l-0.6,2l0,0.1l0.1,0l0.4,0l0.1,0l0-0.1l0.1-0.3
					l0.5,0l0.1,0.3l0,0.1h0.1l0.4,0l0.1,0l0-0.1L44,73.2z M43.6,74.4l0.1-0.4l0.1,0.4L43.6,74.4z M47.8,74.6L47.8,74.6l-0.1-0.1
					l-0.9,0.1l0-0.3l0.8-0.1l0.1,0l0-0.1l0-0.3l0-0.1l-0.1,0l-0.8,0.1l0-0.2l0.8-0.1l0.1,0l0-0.1l0-0.4l0-0.1l-0.1,0L46.2,73l-0.1,0
					l0,0.1l0.2,2l0,0.1l0.1,0l1.3-0.1l0.1,0l0-0.1L47.8,74.6z M50,74.6l-0.3-2l0-0.1l-0.1,0l-0.3,0.1l-0.1,0l0,0.1l0.2,1l-0.7-0.9
					l0,0l-0.1,0l-0.4,0.1l-0.1,0l0,0.1l0.3,2l0,0.1l0.1,0l0.3-0.1l0.1,0l0-0.1l-0.2-1l0.7,1l0,0l0.1,0l0.4-0.1L50,74.6L50,74.6z"/>
				<path fill="#AB9021" d="M52.1,72L52.1,72L52,72l-0.3,0.1l-0.1,0l0,0.1c0,0,0,0,0,0.1c0,0,0,0.1,0,0.1c0,0-0.1,0.1-0.1,0.1
					c0,0-0.1,0-0.2,0.1l-0.1,0l0,0.1l0.1,0.3l0,0.1l0.1,0l0.3-0.1l0.3,1.2l0,0.1l0.1,0l0.3-0.1l0.1,0l0-0.1L52.1,72z M54.2,72.2
					c-0.2-0.1-0.3-0.1-0.5-0.1c-0.1,0-0.1,0.1-0.2,0.1c0,0,0-0.1,0-0.1c0-0.1,0.1-0.2,0.1-0.2c0,0,0.1,0,0.1,0c0,0,0,0,0,0l0,0.1
					l0.1,0l0.3-0.1l0.1,0l0-0.1c-0.1-0.2-0.2-0.3-0.3-0.3c-0.1-0.1-0.3-0.1-0.5,0c-0.1,0-0.2,0.1-0.3,0.2C53.1,71.8,53,71.9,53,72
					c0,0.1,0,0.3,0,0.5c0,0.1,0.1,0.2,0.1,0.4c0.1,0.3,0.2,0.5,0.3,0.6c0.2,0.2,0.4,0.2,0.7,0.2c0.2-0.1,0.4-0.2,0.4-0.4
					c0.1-0.2,0-0.4,0-0.6C54.5,72.4,54.4,72.3,54.2,72.2z M54.1,73C54.1,73.1,54,73.1,54.1,73c-0.1,0.1-0.2,0.1-0.2,0.1
					c-0.1,0-0.1-0.1-0.1-0.2c0-0.1,0-0.2,0-0.2c0,0,0-0.1,0.1-0.1c0,0,0.1,0,0.1,0c0,0,0.1,0.1,0.1,0.2C54.1,72.9,54.1,73,54.1,73z
					 M55.8,71.5c-0.2-0.1-0.3-0.1-0.5,0c-0.1,0-0.1,0.1-0.2,0.1l0-0.2l0.6-0.2l0.1,0l0-0.1l-0.1-0.3l0-0.1l-0.1,0l-0.9,0.4l-0.1,0
					l0,0.1l0.3,1l0,0.1l0.1,0l0.3-0.1l0.1,0l0-0.1c0,0,0-0.1,0-0.1c0,0,0,0,0.1,0c0.1,0,0.1,0,0.1,0c0.1,0,0.1,0.1,0.1,0.2
					s0,0.1,0,0.2c0,0,0,0.1-0.1,0.1c-0.1,0-0.1,0-0.1,0c0,0-0.1-0.1-0.1-0.1l0-0.1l-0.1,0L55,72.5l-0.1,0l0,0.1
					c0.1,0.2,0.2,0.3,0.4,0.4c0.2,0.1,0.3,0.1,0.5,0c0.2-0.1,0.4-0.2,0.4-0.4c0-0.2,0-0.4,0-0.6C56.1,71.7,56,71.6,55.8,71.5z
					 M57.8,71.9L57,70.2l0-0.1l-0.1,0l-0.3,0.1l-0.1,0l0,0.1c0,0,0,0,0,0.1c0,0,0,0.1,0,0.1c0,0,0,0.1-0.1,0.1c0,0-0.1,0-0.2,0.1
					l-0.1,0l0,0.1l0.1,0.2l0,0.1l0.1,0l0.3-0.1l0.5,1.1l0,0.1l0.1,0l0.3-0.2L57.8,71.9L57.8,71.9z"/>
			</g>
			<g>
				<path fill="#AB9021" d="M38.1,78.3l-0.3,0.9c-0.5-0.1-1.3-0.1-1.6-0.2c-0.8-0.2-1.4-0.8-1.2-2c0.2-1.2,1.1-1.5,1.9-1.4
					c0.8,0.2,1.4,0.8,1.2,2c0,0.2-0.2,0.6-0.4,0.7l0,0L38.1,78.3z M36,77.2c-0.1,0.5,0.1,0.9,0.4,0.9c0.3,0.1,0.6-0.2,0.7-0.7
					c0.1-0.5-0.1-0.9-0.4-0.9C36.5,76.4,36.1,76.7,36,77.2z"/>
				<path fill="#AB9021" d="M40.4,76.2L40.2,78c0,0.4,0,0.6,0.3,0.6c0.3,0,0.4-0.2,0.4-0.6l0.1-1.8l1,0.1l-0.2,2.4
					c0,0.5-0.5,1-1.4,0.9c-0.9-0.1-1.3-0.6-1.2-1.1l0.2-2.4L40.4,76.2z"/>
				<path fill="#AB9021" d="M43.2,76.3l1,0l0,3.3l-1,0L43.2,76.3z"/>
				<path fill="#AB9021" d="M45,76.3l2.5-0.2l0.1,0.9L46.9,77l0.2,2.4l-1,0.1l-0.2-2.4l-0.8,0.1L45,76.3z"/>
				<path fill="#AB9021" d="M51.6,77c0.2,1.2-0.4,1.8-1.2,2c-0.8,0.1-1.6-0.2-1.8-1.4c-0.2-1.2,0.4-1.8,1.2-2
					C50.6,75.5,51.4,75.8,51.6,77z M49.5,77.4c0.1,0.5,0.4,0.8,0.7,0.7c0.3-0.1,0.5-0.4,0.4-0.9c-0.1-0.5-0.4-0.8-0.7-0.7
					C49.7,76.6,49.5,77,49.5,77.4z"/>
			</g>
			<g>
				<polygon fill="#AB9021" points="45.3,16.9 45.7,17.5 46.3,17.6 45.8,18.1 46,18.9 45.3,18.5 44.6,18.9 44.8,18.1 44.3,17.6 
					45,17.5 				"/>
				<polygon fill="#AB9021" points="48.3,17.5 48.7,18.2 49.3,18.2 48.8,18.7 49,19.5 48.3,19.1 47.6,19.5 47.8,18.7 47.3,18.2 
					48,18.2 				"/>
				<polygon fill="#AB9021" points="51,18.6 51.4,19.3 52,19.4 51.6,19.9 51.7,20.6 51.1,20.2 50.4,20.6 50.5,19.9 50,19.4 
					50.7,19.3 				"/>
				<polygon fill="#AB9021" points="53.1,20.6 53.4,21.3 54.1,21.4 53.6,21.9 53.8,22.6 53.1,22.3 52.4,22.7 52.6,21.9 52,21.4 
					52.7,21.3 				"/>
				<polygon fill="#AB9021" points="51.5,25.6 51.9,26.2 52.5,26.3 52.1,26.8 52.2,27.6 51.6,27.2 50.9,27.6 51.1,26.8 50.5,26.3 
					51.2,26.2 				"/>
				<polygon fill="#AB9021" points="53.3,23.3 53.6,23.9 54.3,24 53.8,24.5 54,25.2 53.3,24.9 52.6,25.3 52.8,24.5 52.2,24 53,23.9 
									"/>
				<polygon fill="#AB9021" points="48.6,27.1 48.9,27.8 49.6,27.8 49.1,28.4 49.3,29.1 48.6,28.7 47.9,29.1 48.1,28.4 47.5,27.8 
					48.2,27.8 				"/>
				<polygon fill="#AB9021" points="45.3,27.9 45.7,28.6 46.3,28.7 45.8,29.2 46,29.9 45.3,29.5 44.6,29.9 44.8,29.2 44.3,28.7 
					45,28.6 				"/>
				<polygon fill="#AB9021" points="41.9,27.9 42.3,28.6 42.9,28.7 42.4,29.2 42.6,29.9 42,29.6 41.2,30 41.4,29.2 40.9,28.7 
					41.6,28.6 				"/>
				<polygon fill="#AB9021" points="38.4,27 38.8,27.7 39.4,27.8 39,28.3 39.1,29 38.5,28.7 37.8,29.1 38,28.3 37.4,27.8 38.1,27.7 
									"/>
				<polygon fill="#AB9021" points="35.5,25.6 35.9,26.2 36.5,26.3 36,26.8 36.2,27.6 35.5,27.2 34.8,27.6 35,26.8 34.5,26.3 
					35.2,26.2 				"/>
				<polygon fill="#AB9021" points="33.7,23.5 34.1,24.2 34.7,24.3 34.2,24.8 34.4,25.5 33.8,25.1 33,25.5 33.2,24.8 32.7,24.3 
					33.4,24.2 				"/>
				<polygon fill="#AB9021" points="34.2,20.8 34.6,21.5 35.2,21.5 34.7,22.1 34.9,22.8 34.2,22.4 33.5,22.8 33.7,22.1 33.2,21.5 
					33.9,21.5 				"/>
				<polygon fill="#AB9021" points="36.1,18.8 36.4,19.4 37.1,19.5 36.6,20 36.8,20.8 36.1,20.4 35.4,20.8 35.6,20 35,19.5 
					35.7,19.4 				"/>
				<polygon fill="#AB9021" points="38.9,17.5 39.2,18.2 39.9,18.2 39.4,18.7 39.6,19.5 38.9,19.1 38.2,19.5 38.4,18.7 37.8,18.2 
					38.5,18.2 				"/>
				<polygon fill="#AB9021" points="41.9,16.9 42.3,17.5 42.9,17.6 42.5,18.1 42.6,18.9 42,18.5 41.3,18.9 41.5,18.1 40.9,17.6 
					41.6,17.5 				"/>
			</g>
			<path fill="#AB9021" d="M64.1,47.1c-0.4,3.2-1.7,5.9-3.4,8.6c-1.7,1.5-1.2,3.5-1.9,4.9l-1.6,3.8l-0.5-3.1c-0.7,0.4-1.3,1-2.1,1.4
				c1.5-3.4,2.1-7.1,2.2-11c0.1-1.1,1.4-0.5,2-0.6c0.1,0.2,0.3,0.1,0.5,0.1c1.8-4.3,2-9-0.3-12.6c-1-1.4-2.1-2.8-3.7-3.5
				c0,0,0,22.5,0,23.3c0,0.8-0.8,1.7-1.7,1.8c0,0-8.4-0.1-8.5,0c-1,0.2-1.4,1.7-1.7,2.6c-0.5-1.2-0.5-1.8-1.8-2.6
				c-2.7,0-5.7,0-8.5,0c-0.9-0.1-1.8-0.9-1.8-1.5c0-0.9,0-23.5,0-23.5c-1,0-1.7,1-2.6,1.7c-1.7,1.8-4,8-1.3,14.4
				c0.8-0.2,2.1-0.5,2.6,0.6c0,4,0.5,7.2,2.2,10.5c0.1,0.1,0.3,0.3,0.2,0.5l-2.3-1.4c-0.3,1-0.2,2.2-0.5,3.1
				c-1.4-2.5-2.3-5.3-2.6-8.2c-2.3-1.5-2.8-4.5-3.8-6.9c-1.3-5.2-1-10.5,3.2-14.6c1-1.2,2.5-1.8,3.9-2.4c0-1-0.4-1.8-0.2-3.1
				c7.9,2.6,18.1,2.8,26-0.2c0.3-0.1,0.3-0.2,0.7-0.2c-0.1,0.5,0,1.3,0,1.6l0,1.4c0.1,0.5,1.6,1,2,1.3c3.7,2.3,5.5,6.9,5.5,10.7
				L64.1,47.1z"/>
			<path fill="#FFFFFF" stroke="#FFFFFF" stroke-width="0" stroke-linecap="square" stroke-miterlimit="2" d="M34.3,33.7l-0.2,0.5
				l-1.8-0.9C33,33.4,33.4,33.5,34.3,33.7z"/>
			<path fill="#FFFFFF" stroke="#FFFFFF" stroke-width="0" stroke-linecap="square" stroke-miterlimit="2" d="M52.5,33.5
				c0,0,1.6-0.3,2.1-0.6c-0.5,0.3-1.8,1.1-1.8,1.1L52.5,33.5z"/>
			<path fill="#0080C8" d="M51.9,33.7l0.7,1.1l-18.5,0l0.5-1C40.2,34.7,46.4,34.6,51.9,33.7z"/>
			<polygon fill="#FFDC00" points="54.8,35.2 54.8,45.9 32,45.9 32,35.2 			"/>
			<path fill="#009540" d="M54.9,58.2c0,1.2-0.8,1.5-1.8,1.5l-8.2,0c-0.6,0.2-1.1,0.7-1.3,1.3c-0.3-0.6-0.7-1.2-1.4-1.2
				c-1.1,0-5.1,0-8.9,0c-0.6,0-1.3-0.6-1.3-1.3c0-0.7,0-11.7,0-11.7l22.9,0C54.9,46.6,54.9,57.5,54.9,58.2z"/>
			<path fill="#AB9021" d="M52.6,54.6c0.4-0.3,0.7-1-0.1-1.1c-0.3-0.1-0.7-0.1-1.4-0.1l-0.7,0c0.3-1.3,1-3,0.7-4.2
				c-0.1-0.7,1.2-1.7,0.9-2.4c-0.8,0.3-0.8,1.8-1.3,2.3c-1.5,1.1-2.3,2.6-4,4.1c-0.8,0-1.2,0-2.3,0c0.1,0.2,0.6,0.5,0.7,0.6
				c0.5,0.4,1.4-0.2,1,0.1c-0.2,0-0.3,0.3-0.5,0.3c-1.7-1.8-4.2-2.7-6.3-4.1c-1.8-0.8-3.3-2.3-5.4-2.4c0.8,0.7,1.4,1.5,2.4,2.5
				c1.9,1.3,3.3,2.6,5.2,3.2c-1.2,0.7-2.7,1.1-4,1.6c0.3,0.4,0,1.8-0.4,2.2l11.3,0.1l0,0c-0.2,1-0.1,0.5-0.4,2
				c0.8-1.7,0.6-0.9,0.9-2.1c0.4-0.2,0.7-0.5,1.2-0.8C50.1,56.5,51.7,55.4,52.6,54.6z"/>
			<path fill="#FFFFFF" stroke="#FFFFFF" stroke-width="0" stroke-linecap="square" stroke-miterlimit="2" d="M29.1,54
				c-0.7-0.5-1-1.4-1.4-2.1c0.2-0.3,0.6-0.4,1-0.4L29.1,54z"/>
			<path fill="#009540" d="M47.5,53.2c1-1.2,3.1-3.3,3.1-3.3c0.1,0.9-0.6,2.4-0.8,3.3c-1.2,0-0.7-0.1-1.8,0H47.5z"/>
			<path fill="#FFFFFF" stroke="#FFFFFF" stroke-width="0" stroke-linecap="square" stroke-miterlimit="2" d="M49.5,53.8
				c-0.3,1-0.2,0.6-0.5,1.2c-1,0-1.6,0-2.6-0.1c-0.1,0,0-0.2-0.1-0.2c0.1,0-0.2-0.2-0.2-0.2c0.3-0.3,0.3-0.4,0.6-0.7
				c0,0,0,0,0.2-0.1C46.9,53.8,49.2,53.9,49.5,53.8z"/>
			<path fill="#FFFFFF" stroke="#FFFFFF" stroke-width="0" stroke-linecap="square" stroke-miterlimit="2" d="M29.8,52.1
				c-0.2,3.7,0.6,6.9,2,9.9L30,61c-0.3,0.8-0.2,1.7-0.3,2.5c-1.2-2.2-1.8-4.7-2.2-7.3c0.7-0.7,2.7-1.4,1.9-2.9
				c-0.1-0.6-0.4-1.2-0.2-1.8C29.7,51.5,29.6,51.9,29.8,52.1z"/>
			<path fill="#FFFFFF" stroke="#FFFFFF" stroke-width="0" stroke-linecap="square" stroke-miterlimit="2" d="M40.2,52.2
				c-0.2,0.2-0.5,0-0.8,0l-0.9-0.5C38.8,51.3,40,51.9,40.2,52.2z"/>
			<path fill="#FFFFFF" stroke="#FFFFFF" stroke-width="0" stroke-linecap="square" stroke-miterlimit="2" d="M59,51.4
				c0.2,0.9-0.6,1.3-1.1,2.6l0.2-2.5L59,51.4z"/>
			<path fill="#FFFFFF" stroke="#FFFFFF" stroke-width="0" stroke-linecap="square" stroke-miterlimit="2" d="M57.6,51.5
				c0.4,1-0.2,1.8-0.2,2.7l1.9,2c-0.1,2.6-1,4.9-1.9,7.2c-0.1-1.1,0-1.7-0.3-2.8l-1.7,1.1c1.2-3,1.8-6.3,1.8-9.9
				C57.2,51.7,57.4,51.4,57.6,51.5z"/>
			<path fill="#FFFFFF" stroke="#FFFFFF" stroke-width="0" stroke-linecap="square" stroke-miterlimit="2" d="M43.3,53.6
				c0.6,0.9-1.8-0.5-2.2-0.6C41.8,52.9,41.9,52.9,43.3,53.6z"/>
			<path fill="#FFFFFF" stroke="#FFFFFF" stroke-width="0" stroke-linecap="square" stroke-miterlimit="2" d="M44.4,54.3
				c0.9,0.8,0.9,0.7-0.1,0.7l-5.2,0c1-0.3,1.5-0.6,2.4-1c0.2-0.1,0.5-0.2,0.6-0.3c0.2,0.1,0.9,0.2,1.3,0.7L44.4,54.3z"/>
			<path fill="#FFFFFF" stroke="#FFFFFF" stroke-width="0" stroke-linecap="square" stroke-miterlimit="2" d="M49.9,54.8
				c0.3-0.6,0.3-0.7,0.4-0.9c0.4,0.1,0.5-0.1,0.8,0C51.2,53.9,49.9,54.8,49.9,54.8z"/>
			<path fill="#FFFFFF" stroke="#FFFFFF" stroke-width="0" stroke-linecap="square" stroke-miterlimit="2" d="M46.2,55l0.5,0.6
				c-0.4-0.1-0.8-0.3-1.3-0.5C45.2,54.6,46.3,54.5,46.2,55z"/>
			<path fill="#AB9021" d="M42.4,35.5c-0.7,1.3,0.7,2.3-0.4,3.6l-1.1-1.6c-0.3,0.7,0.1,1.7-0.6,2.3c0-0.2,0-0.3-0.2-0.4
				c-0.9,0.8-0.2,3.1-2.3,2.6c-0.1,0.5-0.2,0.9-0.5,1.4c-0.2,0.4,0.3,0.6,0.5,0.7c0.5,0.1,0.9-0.7,1.3-0.2c-0.2,0.3-0.8,0.9-0.3,1.3
				c0.3,0.2,0.7,0.5,1,0.1c0.9-1.2,2.3,0.1,3.5-0.1c1.4,0.3,2.7-1.4,3.7,0.2c0.4,0.1,0.7-0.2,0.9-0.5c-0.1-0.3-0.1-0.7-0.5-0.8
				l-0.2,0c0.6-1.3,2.2,1,2-1.1c-0.6-0.2-0.2-0.5-0.4-0.9c-0.3-0.4-0.7-0.5-1.1-0.6c0.2-1.6-0.1-3.5-0.3-4.9c-0.8,0.4,0,1.9-0.6,2.5
				c-0.3-1.2-1.2-2.3-0.9-3.7c-0.4,0-0.5,0.5-0.6,0.7l0.3,2.5c-0.4-0.4-0.5-1.3-0.8-1.8c-0.4,0.6,0.1,1.5-0.4,2
				c0.1-0.4-0.1-0.7-0.3-1l-0.8,1.4c0.2-1,0.8-2.1,0.1-3l-0.4-0.3L43,36.3c-0.1-0.3-0.3-0.6-0.3-1L42.4,35.5z"/>
			<path fill="#E20613" d="M42.5,36.1c0,0,0.4,0.3,0.4,0.7c-0.1,0.4,0.1,0.5,0,0.9c-0.1,0.4-0.5,1.2-0.3,0.6
				C43,37.5,42.5,36.1,42.5,36.1z"/>
			<path fill="#E20613" d="M43.4,41.9l-0.5-0.6c-0.2,0.6-0.4,1.7-0.1,2.3l0.2,0c-0.2,0.4-0.4,0.1-0.7,0.2l0-0.2
				c-0.3-0.3-0.2,0.6-0.5,0.1c0.1-1.2-0.2-2.5-0.7-3.5l-0.6,2.6c-0.6-0.5-0.5-1.3-0.6-2.1c0.2,0.3,0,0.9,0.4,1c0-1.2,0.6-2.3,1-3.2
				c0.6,0.8-0.3,1.9,0.5,2.5c-0.1-1.5,1.2-2.5,1.7-3.6C43.6,38.8,42.4,40.5,43.4,41.9z"/>
			<path fill="#E20613" d="M46.5,41.3c0.5-0.5,0.3-1.3,0.8-1.7l0,1.4l-0.2-0.2c-0.4,0.6-0.5,1.4-0.2,2.1c-0.8,0.1-1.4,0.9-2.2,0.5
				c-0.2,0.3-0.8,0.4-0.9,0.2c-0.2-1.8,0.8-3.5,1.2-5.2c0.6,0.6,0.1,1.5,0.3,2.2c0.4-0.8,0.8-1.8,0.4-2.8
				C46.7,38.7,46.5,40.2,46.5,41.3z"/>
			<path fill="#E20613" d="M43.5,41.2c-0.1-0.7,0.1-1.2,0.5-1.7C44.2,40,43.6,40.7,43.5,41.2z"/>
			<path fill="#E20613" d="M41.4,43l-0.5,0.1c-0.2-0.5,0-1,0.2-1.5C41.3,41.9,41.5,42.4,41.4,43z"/>
			<polygon fill="#E20613" points="42.9,42.9 43.1,42.2 43.2,42.3 			"/>
			<path fill="#E20613" d="M47,42.2c0,0-0.3-0.1,0.3-0.7c0.6-0.5,0,0.4,0,0.4l-0.3,0.7L47,42.2z"/>
			<path fill="#FFFFFF" stroke="#FFFFFF" stroke-width="0" stroke-linecap="square" stroke-miterlimit="2" d="M38.5,43.1
				c0,0.1-0.2,0.5-0.3,0.5c-0.2,0.1-0.4-0.2-0.3-0.4L38.5,43.1z"/>
			<path fill="#FFFFFF" stroke="#FFFFFF" stroke-width="0" stroke-linecap="square" stroke-miterlimit="2" d="M46.8,44.6l0,0.2
				c-0.3-0.4-0.7-0.6-1.1-0.5l-0.3,0.3c-1.4,0.5-2.7,0.2-4.1,0c-0.2-0.7,0.7,0.2,0.9-0.1c0.2,0.2,0.4,0.1,0.6,0.1l0.2-0.2
				c0.2,0,0.1,0.3,0.3,0.3c0.4-0.5,1.1,0.3,1.8-0.3c0.1,0.2,0.3,0,0.5,0.1c0.2-0.3,0.2-0.3,0.6-0.2C46.5,44.1,46.6,44.5,46.8,44.6z"
				/>
			<path fill="#FFFFFF" stroke="#FFFFFF" stroke-width="0" stroke-linecap="square" stroke-miterlimit="2" d="M39.9,44.6
				c0,0.3-0.4,0.3-0.4,0.5c-0.1-0.1-0.5-0.6-0.2-0.6C39.3,44.7,39.8,44.6,39.9,44.6z"/>
			<path fill="#FFFFFF" stroke="#FFFFFF" stroke-width="0" stroke-linecap="square" stroke-miterlimit="2" d="M47.6,44.6L47.4,45
				l-0.3-0.4C47.2,44.6,47.6,44.5,47.6,44.6z"/>
			<path fill="#FFFFFF" d="M63.9,43.7c-0.2-4.1-2-7.6-5.1-10l-2.1-1c-1.3,0.4-2.7,0.8-3.7,1.6c2.8-0.5,4.9,2.1,6.4,4
				c3.3,4.9,1.9,11.7-1.3,16.2c0.5,0.4,1.4,1.7,1.8,1.5c2.1-2.6,3.2-5.7,3.8-8.9L63.9,43.7z"/>
			<g>
				<path fill="#AB9021" d="M58.3,34.5L58.3,34.5l0.3,0.1l-0.1,0.5L58.3,35c0-0.1-0.1-0.2-0.1-0.4c-0.1-0.1-0.2-0.2-0.3-0.3
					c-0.1-0.1-0.2-0.1-0.2-0.1c-0.1,0-0.1,0-0.1,0c0,0.1,0.1,0.2,0.4,0.5c0,0,0.1,0.1,0.1,0.1c0.2,0.2,0.3,0.3,0.4,0.4
					c0.1,0.1,0,0.2,0,0.3c-0.1,0.1-0.2,0.2-0.4,0.2c-0.2,0-0.4-0.1-0.6-0.2c-0.1-0.1-0.2-0.1-0.3-0.2c-0.1-0.1-0.1-0.2-0.2-0.2
					l-0.1,0.1L56.6,35l0.1-0.6l0.2,0.1c0,0.2,0.1,0.3,0.1,0.4c0.1,0.1,0.2,0.3,0.3,0.3c0.1,0.1,0.2,0.1,0.3,0.1c0.1,0,0.1,0,0.2,0
					c0-0.1-0.1-0.2-0.3-0.4c0,0-0.1-0.1-0.1-0.1c-0.1-0.1-0.2-0.2-0.3-0.3c-0.1-0.1-0.1-0.1-0.1-0.2c0-0.1-0.1-0.1-0.1-0.2
					c0-0.1,0-0.1,0-0.2c0.1-0.1,0.2-0.2,0.4-0.1c0.2,0,0.4,0.1,0.6,0.2c0.1,0.1,0.2,0.1,0.2,0.2C58.2,34.4,58.3,34.5,58.3,34.5z"/>
				<path fill="#AB9021" d="M59.4,36.4l0.5-0.1l-0.2,0.4L59.4,36.4z M58.9,36.2c-0.2,0-0.3,0-0.4-0.1l-0.1,0.1l0.6,0.7l0.1-0.1
					C59,36.7,59,36.7,59,36.6c0,0,0-0.1,0-0.1c0,0,0,0,0,0c0,0,0,0,0,0l0.2-0.1l0.5,0.5l-0.1,0.2c0,0,0,0,0,0c0,0,0,0,0,0
					c0,0,0,0-0.1,0c0,0-0.1-0.1-0.1-0.1l0,0l-0.1,0.1l0.7,0.8l0.1-0.1C60,37.8,60,37.7,60,37.6l0,0l0.4-1.2L60.1,36L58.9,36.2
					C58.9,36.2,58.9,36.2,58.9,36.2z"/>
				<path fill="#AB9021" d="M61.5,38.6c0,0,0.1,0.1,0.1,0.1c0.1,0.1,0.1,0.2,0.1,0.3c0,0.1,0,0.1-0.1,0.2c-0.1,0-0.1,0-0.2,0
					c-0.1-0.1-0.2-0.2-0.2-0.3c0,0,0,0,0-0.1c0,0,0,0,0,0l0.3-0.1C61.5,38.6,61.5,38.6,61.5,38.6z M61.2,38c0,0-0.1,0.1-0.2,0.1
					l-0.5,0.2c-0.1,0.1-0.2,0.1-0.2,0c0,0-0.1-0.1-0.1-0.2l-0.2,0.1l0.5,1l0.2-0.1c0-0.1-0.1-0.2,0-0.2c0,0,0.1-0.1,0.2-0.1l0.1-0.1
					l0.2,0.4c0.1,0.3,0.2,0.4,0.4,0.5c0.1,0.1,0.2,0.1,0.4,0.1c0.1-0.1,0.2-0.2,0.2-0.3c0-0.2-0.1-0.4-0.2-0.6l-0.5-1.1l-0.2,0.1
					C61.2,37.9,61.2,37.9,61.2,38z"/>
				<path fill="#AB9021" d="M62.3,40.2l0.2,0l0.3,1.1l-0.2,0c0-0.1-0.1-0.2-0.1-0.2c0,0-0.1,0-0.2,0l-0.5,0.1
					c-0.1,0-0.2,0.1-0.2,0.1c0,0,0,0.1,0,0.2l-0.2,0l-0.3-1.1l0.2,0c0,0.1,0.1,0.2,0.1,0.2c0,0,0.1,0,0.2,0l0.5-0.1
					c0.1,0,0.2-0.1,0.2-0.1C62.3,40.4,62.3,40.3,62.3,40.2z"/>
				<path fill="#AB9021" d="M62.7,42l0.2,0l0.2,1.9l-0.4,0.3L62.6,44c0.1-0.1,0.2-0.3,0.2-0.4c0-0.1,0-0.3,0-0.5
					c0-0.1,0-0.2-0.1-0.2c0,0-0.1,0-0.2,0l-0.2,0l0,0.1c0,0.1,0,0.2,0.1,0.2c0,0,0.1,0.1,0.2,0.1l0,0.2l-0.6,0.1l0-0.2
					c0.1,0,0.1-0.1,0.2-0.1c0-0.1,0-0.1,0-0.2l0-0.1l-0.3,0c-0.1,0-0.1,0-0.1,0.1c0,0,0,0.1,0,0.2c0,0.2,0.1,0.3,0.2,0.5
					c0.1,0.2,0.2,0.3,0.3,0.4l0,0.2L61.7,44l-0.2-1.9l0.2,0c0,0.1,0,0.2,0.1,0.2c0,0,0.1,0,0.2,0l0.5-0.1c0.1,0,0.2,0,0.2-0.1
					C62.7,42.2,62.8,42.1,62.7,42z"/>
				<path fill="#AB9021" d="M63,44.9l0.2,0l-0.1,1l-0.9,0.7l0.4,0c0.1,0,0.2,0,0.2,0c0,0,0.1-0.1,0.1-0.2l0.2,0L63,47.2l-0.2,0
					c0-0.1,0-0.2,0-0.2c0,0-0.1-0.1-0.2-0.1l-1-0.1l0-0.4l1.2-1l-0.7,0c-0.1,0-0.2,0-0.2,0c0,0-0.1,0.1-0.1,0.2l-0.2,0l0.1-0.8
					l0.2,0c0,0.1,0,0.2,0,0.2c0,0,0.1,0.1,0.2,0.1l0.5,0c0.1,0,0.2,0,0.2,0C63,45,63,45,63,44.9z"/>
				<path fill="#AB9021" d="M62.5,47.6l0.4,0.3l-0.4,1.8L62,50l0-0.2c0.1-0.1,0.2-0.1,0.3-0.2c0.1-0.1,0.1-0.2,0.1-0.3l0,0L61.7,49
					c-0.1,0-0.2,0-0.2,0c0,0-0.1,0.1-0.1,0.2l-0.2,0l0.2-1.1l0.2,0c0,0.1,0,0.2,0,0.2c0,0,0.1,0.1,0.2,0.1l0.8,0.2l0,0
					c0-0.1,0-0.3,0-0.4c0-0.1-0.1-0.2-0.2-0.3L62.5,47.6z"/>
				<path fill="#AB9021" d="M62.1,50.5l0.2,0.1l-0.4,1.1l-0.2-0.1c0-0.1,0-0.2,0-0.2c0,0-0.1-0.1-0.2-0.1L61,51c-0.1,0-0.2,0-0.2,0
					c0,0-0.1,0.1-0.1,0.2l-0.2-0.1l0.4-1.1l0.2,0.1c0,0.1,0,0.2,0,0.2c0,0,0.1,0.1,0.2,0.1l0.5,0.2c0.1,0,0.2,0,0.2,0
					C62,50.7,62.1,50.6,62.1,50.5z"/>
				<path fill="#AB9021" d="M60.6,52.6l0.2,0.4l-0.5,0L60.6,52.6z M60.6,52c-0.1-0.1-0.1-0.3,0-0.4l-0.2-0.1L60,52.3l0.1,0.1
					c0-0.1,0.1-0.1,0.1-0.2c0,0,0.1,0,0.1,0c0,0,0,0,0,0c0,0,0,0,0,0l0.1,0.2l-0.3,0.6l-0.2,0c0,0,0,0,0,0c0,0,0,0,0,0
					c0,0,0,0,0-0.1c0,0,0-0.1,0.1-0.2l0,0l-0.1-0.1l-0.5,1l0.2,0.1c0.1-0.1,0.2-0.2,0.3-0.2l0,0l1.2,0l0.3-0.4L60.6,52
					C60.6,52,60.6,52,60.6,52z"/>
			</g>
			<path fill="#FFFFFF" d="M56.5,29.5c-6.5,2.4-12.7,2.7-19.7,1.8l-1.3-0.2c-1-0.2-1.4-0.3-2.2-0.4c-1.3-0.4-2.1-0.5-2.8-0.8
				c-0.1,1.2,0.2,1.6,0.3,2.6c7.7,2.4,17.5,2.2,25.4-0.3l0.1-0.2L56.5,29.5z"/>
			<g>
				<path fill="#AB9021" d="M33,31.4c0,0,0.1,0,0.1,0c0.1,0,0.2,0.1,0.2,0.1c0,0.1,0.1,0.1,0,0.2c0,0.1-0.1,0.1-0.1,0.2
					c-0.1,0-0.2,0-0.3,0c0,0,0,0,0,0c0,0,0,0,0,0l0.1-0.3C32.9,31.5,33,31.4,33,31.4z M32.5,31.3c0,0,0,0.1,0,0.2L32.3,32
					c0,0.1-0.1,0.2-0.1,0.2c0,0-0.1,0-0.2,0l0,0.2l0.8,0.2l0-0.2c-0.1,0-0.1-0.1-0.1-0.1c0,0,0-0.1,0-0.2l0-0.1l0.3,0.1
					c0.2,0.1,0.4,0.1,0.5,0c0.1,0,0.2-0.1,0.2-0.3c0-0.1,0-0.3-0.1-0.4c-0.1-0.1-0.2-0.2-0.5-0.2L32.4,31l0,0.2
					C32.4,31.2,32.4,31.2,32.5,31.3z"/>
				<path fill="#AB9021" d="M35.3,32c0.1,0.1,0.1,0.3,0,0.4c0,0.2-0.1,0.3-0.2,0.4c-0.1,0.1-0.2,0.1-0.4,0.1c-0.1,0-0.2-0.1-0.3-0.2
					c-0.1-0.1-0.1-0.3,0-0.4c0-0.2,0.1-0.3,0.2-0.4c0.1-0.1,0.2-0.1,0.4-0.1C35.2,31.8,35.3,31.9,35.3,32z M34.3,31.7
					c-0.2,0.1-0.3,0.3-0.4,0.5c0,0.2,0,0.4,0.2,0.6c0.1,0.2,0.4,0.3,0.6,0.3c0.3,0.1,0.5,0,0.7-0.1c0.2-0.1,0.3-0.3,0.4-0.5
					c0-0.2,0-0.4-0.2-0.6c-0.1-0.2-0.4-0.3-0.6-0.3C34.8,31.6,34.5,31.6,34.3,31.7z"/>
				<path fill="#AB9021" d="M36.1,32.3l0.3-0.4l1.4,0.2l0.1,0.5l-0.2,0c-0.1-0.1-0.1-0.2-0.2-0.3c-0.1-0.1-0.2-0.1-0.3-0.1l0,0
					L37.1,33c0,0.1,0,0.2,0,0.2c0,0,0.1,0.1,0.2,0.1l0,0.2l-0.9-0.1l0-0.2c0.1,0,0.1,0,0.2,0c0,0,0.1-0.1,0.1-0.2l0.1-0.8l0,0
					c-0.1,0-0.2,0-0.3,0s-0.2,0.1-0.2,0.2L36.1,32.3z"/>
				<path fill="#AB9021" d="M38.1,32.3l0-0.2l1.5,0.1l0.2,0.4l-0.2,0.1c-0.1-0.1-0.2-0.2-0.3-0.3c-0.1-0.1-0.2-0.1-0.4-0.1
					c-0.1,0-0.1,0-0.2,0c0,0,0,0.1-0.1,0.1l0,0.2l0.1,0c0.1,0,0.2,0,0.2,0c0,0,0.1-0.1,0.1-0.2l0.2,0l-0.1,0.6l-0.2,0
					c0-0.1,0-0.1-0.1-0.2c0,0-0.1-0.1-0.2-0.1l-0.1,0l0,0.3c0,0.1,0,0.1,0,0.2c0,0,0.1,0,0.2,0c0.1,0,0.3,0,0.4-0.1
					c0.1-0.1,0.3-0.1,0.4-0.3l0.2,0.1l-0.3,0.5l-1.5-0.1l0-0.2c0.1,0,0.1,0,0.2,0c0,0,0.1-0.1,0.1-0.2l0-0.5c0-0.1,0-0.2,0-0.2
					C38.2,32.3,38.1,32.3,38.1,32.3z"/>
				<path fill="#AB9021" d="M40,32.5l0-0.2l0.8,0l0.6,0.8l0-0.4c0-0.1,0-0.2,0-0.2c0,0-0.1,0-0.2-0.1l0-0.2l0.7,0l0,0.2
					c-0.1,0-0.1,0-0.2,0c0,0,0,0.1-0.1,0.2l0,1l-0.3,0l-0.8-1.1l0,0.7c0,0.1,0,0.2,0,0.2c0,0,0.1,0,0.2,0.1l0,0.2l-0.7,0l0-0.2
					c0.1,0,0.1,0,0.2,0c0,0,0-0.1,0.1-0.2l0-0.5c0-0.1,0-0.2,0-0.2C40.1,32.5,40.1,32.5,40,32.5z"/>
				<path fill="#AB9021" d="M41.9,32.8l0.2-0.4l1.5,0l0.2,0.4l-0.2,0.1c-0.1-0.1-0.1-0.2-0.2-0.2c-0.1,0-0.2-0.1-0.3-0.1h0l0,0.8
					c0,0.1,0,0.2,0,0.2c0,0,0.1,0,0.2,0l0,0.2l-0.9,0l0-0.2c0.1,0,0.1,0,0.2,0c0,0,0-0.1,0-0.2l0-0.8h0c-0.1,0-0.2,0-0.3,0.1
					c-0.1,0-0.1,0.1-0.2,0.2L41.9,32.8z"/>
				<path fill="#AB9021" d="M43.9,32.5l0-0.2l0.9,0l0,0.2c-0.1,0-0.1,0-0.2,0.1c0,0,0,0.1,0,0.2l0,0.5c0,0.1,0,0.2,0.1,0.2
					c0,0,0.1,0,0.2,0l0,0.2l-0.9,0l0-0.2c0.1,0,0.1,0,0.2-0.1c0,0,0-0.1,0-0.2l0-0.5c0-0.1,0-0.2-0.1-0.2
					C44.1,32.5,44,32.5,43.9,32.5z"/>
				<path fill="#AB9021" d="M46.3,32.5c0.1,0.1,0.1,0.2,0.2,0.4c0,0.2,0,0.3-0.1,0.4c-0.1,0.1-0.2,0.2-0.3,0.2c-0.1,0-0.3,0-0.4-0.1
					c-0.1-0.1-0.1-0.2-0.1-0.4c0-0.2,0-0.3,0.1-0.4c0.1-0.1,0.2-0.2,0.3-0.2C46.1,32.4,46.3,32.4,46.3,32.5z M45.3,32.5
					c-0.2,0.1-0.2,0.3-0.2,0.6c0,0.2,0.1,0.4,0.3,0.5c0.2,0.1,0.4,0.2,0.7,0.2c0.3,0,0.5-0.1,0.7-0.3c0.2-0.1,0.2-0.3,0.2-0.6
					c0-0.2-0.1-0.4-0.3-0.5c-0.2-0.1-0.4-0.2-0.7-0.2C45.7,32.2,45.5,32.3,45.3,32.5z"/>
				<path fill="#AB9021" d="M47.9,32.3c0,0,0.1,0,0.2-0.1c0.1,0,0.2,0,0.3,0c0.1,0,0.1,0.1,0.1,0.1c0,0.1,0,0.1-0.1,0.2
					c-0.1,0-0.2,0.1-0.4,0.1c0,0,0,0-0.1,0c0,0,0,0,0,0l0-0.3C47.9,32.4,47.9,32.3,47.9,32.3z M47.3,32.4c0,0,0.1,0.1,0.1,0.2
					l0.1,0.5c0,0.1,0,0.2,0,0.2c0,0-0.1,0.1-0.2,0.1l0,0.2l0.9-0.1l0-0.2c-0.1,0-0.1,0-0.2,0c0,0-0.1-0.1-0.1-0.2l0-0.2l0.2,0
					l0.6,0.5l0.6-0.1l0-0.2c-0.1,0-0.1,0-0.2,0c0,0-0.1,0-0.1-0.1l-0.4-0.3c0.1,0,0.2-0.1,0.3-0.2c0.1-0.1,0.1-0.2,0.1-0.2
					c0-0.1-0.1-0.2-0.2-0.3c-0.1,0-0.3-0.1-0.6,0l-1,0.1l0,0.2C47.3,32.3,47.3,32.3,47.3,32.4z"/>
				<path fill="#AB9021" d="M50.2,32l0-0.2l1.4-0.3l0.3,0.4L51.8,32c-0.1-0.1-0.2-0.2-0.3-0.2c-0.1,0-0.2,0-0.4,0
					c-0.1,0-0.1,0-0.1,0.1c0,0,0,0.1,0,0.2l0,0.2l0.1,0c0.1,0,0.1,0,0.2-0.1c0,0,0-0.1,0-0.2l0.2,0l0.1,0.6l-0.2,0
					c0-0.1-0.1-0.1-0.1-0.2c0,0-0.1,0-0.2,0l-0.1,0l0.1,0.3c0,0.1,0,0.1,0.1,0.1c0,0,0.1,0,0.2,0c0.1,0,0.3-0.1,0.4-0.2
					c0.1-0.1,0.2-0.2,0.3-0.3l0.2,0l-0.2,0.5l-1.5,0.3l0-0.2c0.1,0,0.1,0,0.2-0.1c0,0,0-0.1,0-0.2l-0.1-0.5c0-0.1,0-0.2-0.1-0.2
					C50.3,32,50.3,31.9,50.2,32z"/>
				<path fill="#AB9021" d="M53.2,31.3L53.2,31.3l0.2-0.1l0.2,0.4l-0.2,0.1c-0.1-0.1-0.2-0.1-0.3-0.2c-0.1,0-0.2,0-0.3,0
					c-0.1,0-0.1,0-0.2,0.1c0,0-0.1,0.1,0,0.1c0,0.1,0.2,0.1,0.5,0.1c0,0,0.1,0,0.1,0c0.2,0,0.4,0,0.5,0.1c0.1,0,0.2,0.1,0.2,0.2
					c0,0.1,0,0.3-0.1,0.4c-0.1,0.1-0.2,0.2-0.4,0.2c-0.1,0-0.2,0-0.3,0c-0.1,0-0.2,0-0.2,0l0,0.1l-0.2,0l-0.3-0.5l0.2-0.1
					c0.1,0.1,0.2,0.2,0.3,0.2c0.1,0,0.3,0.1,0.4,0c0.1,0,0.2-0.1,0.2-0.1c0.1,0,0.1-0.1,0.1-0.1c0-0.1-0.2-0.1-0.4-0.1
					c0,0-0.1,0-0.1,0c-0.1,0-0.2,0-0.3,0c-0.1,0-0.1,0-0.2,0c-0.1,0-0.1-0.1-0.2-0.1c0,0-0.1-0.1-0.1-0.2c0-0.1,0-0.2,0.1-0.4
					c0.1-0.1,0.2-0.2,0.4-0.2c0.1,0,0.1,0,0.2,0C53,31.2,53.1,31.3,53.2,31.3z"/>
				<path fill="#AB9021" d="M53.8,31.5l0.1-0.5l1.4-0.4l0.3,0.4l-0.1,0.1c-0.1-0.1-0.2-0.1-0.3-0.2c-0.1,0-0.2,0-0.3,0l0,0l0.2,0.8
					c0,0.1,0.1,0.2,0.1,0.2c0,0,0.1,0,0.2,0l0,0.2l-0.8,0.2l0-0.2c0.1,0,0.1-0.1,0.1-0.1c0,0,0-0.1,0-0.2l-0.2-0.8l0,0
					c-0.1,0-0.2,0.1-0.3,0.1c-0.1,0.1-0.1,0.2-0.1,0.3L53.8,31.5z"/>
			</g>
			<path fill="#FFFFFF" stroke="#FFFFFF" stroke-width="0" stroke-linecap="square" stroke-miterlimit="2" d="M48.8,43.4l-0.2,0.2
				l-0.2-0.4C48.4,43.2,48.8,43.1,48.8,43.4z"/>
			<path fill="#FFFFFF" stroke="#FFFFFF" stroke-width="0" stroke-linecap="square" stroke-miterlimit="2" d="M38.6,51.2
				c-0.1,0.1-0.1,0-0.2,0c-0.1,0-0.4,0.1-0.5,0c-0.3-0.1,0.1-0.2,0-0.2l-0.5-0.1l0.1-0.1l-0.3-0.1l-0.4-0.1l0.2-0.1l-0.7-0.3
				C36.7,49.9,38.4,50.9,38.6,51.2z"/>
			<path fill="#FFFFFF" d="M45,53.8c0.4,0.3,0.8,0.7,0.8,0.7c0.1,0,0.4-0.5,0.5-0.6c0-0.1,0.1,0,0,0C46.1,53.7,44.9,53.7,45,53.8z"
				/>
			<path fill="#FFFFFF" stroke="#FFFFFF" stroke-width="0" stroke-linecap="square" stroke-miterlimit="2" d="M38.2,55.5
				c0,0,0.1,1.1-0.3,1.2c-0.4,0.1,10.5,0.1,10.5,0.1s0.5-1.2,0.5-1.2c0-0.1-2.1,0-2.1,0l0.2,0.3l-1.6-0.3H38.2z"/>
			<path fill="#FFFFFF" d="M49.7,55.5l-0.4,1l-0.1,0.2l3.3-2.3c0,0,0.1-0.2,0.1-0.2c0-0.2-0.2-0.4-0.4-0.2
				C51.8,54.1,49.7,55.5,49.7,55.5z"/>
			<g>
				<path fill="#FFFFFF" d="M27.4,38.3c-3.2,6.1-0.9,13.2,1.6,16.2c-0.3,0.8-1.2,0.9-1.8,1.4c-2.1-1.9-2.8-4.7-3.5-7.3
					c-1-4.7-0.4-10.2,3.3-13.7c1.1-0.8,2.1-1.7,3.3-2.1c1.1,0.5,2.4,0.9,3.5,1.5C30.8,33.7,28.8,36.1,27.4,38.3z"/>
				<path fill="#FFFFFF" d="M27,34.9c-3.7,3.6-4.3,9-3.3,13.7c0.7,2.6,1.4,5.4,3.5,7.3c0.6-0.5,1.5-0.6,1.8-1.4
					c-2.5-3-4.9-10.1-1.6-16.2c1.4-2.2,3.4-4.6,6.4-4c-1.1-0.6-2.3-1-3.5-1.5C29.1,33.2,28.1,34.1,27,34.9z"/>
			</g>
			<g>
				<path fill="#AB9021" d="M25.4,51.2c0.1-0.1,0.2-0.2,0.3-0.3c0.2-0.1,0.3-0.1,0.4,0c0.1,0.1,0.2,0.2,0.3,0.4
					c0.1,0.2,0.1,0.3,0,0.5c-0.1,0.1-0.2,0.2-0.3,0.3c-0.2,0.1-0.3,0.1-0.4,0c-0.1-0.1-0.2-0.2-0.3-0.4
					C25.3,51.5,25.3,51.4,25.4,51.2z M25.7,52.5c0.2,0.2,0.4,0.2,0.6,0.1c0.2-0.1,0.3-0.2,0.4-0.5c0-0.3,0-0.6-0.1-0.9
					c-0.1-0.3-0.3-0.6-0.5-0.8c-0.2-0.2-0.4-0.2-0.6-0.1c-0.2,0.1-0.3,0.2-0.4,0.5c0,0.3,0,0.6,0.1,0.9
					C25.4,52.1,25.5,52.3,25.7,52.5z"/>
				<path fill="#AB9021" d="M24.7,49.5l-0.2,0l-0.1-1l0.8-0.6l-0.9-0.4l-0.1-1l0.2,0l0,0c0,0.1,0,0.2,0.1,0.2c0,0,0.1,0,0.2,0
					l0.5-0.1c0.1,0,0.2,0,0.2-0.1c0,0,0-0.1,0-0.3l0.2,0l0.2,1.2l-0.2,0l0,0c0-0.1,0-0.2-0.1-0.2c0,0-0.1,0-0.2,0l-0.7,0.1l1.2,0.5
					l0,0.3l-1,0.8l0.7-0.1c0.1,0,0.2,0,0.2-0.1c0,0,0-0.1,0-0.2l0.2,0l0.1,0.9l-0.2,0c0-0.1,0-0.2-0.1-0.2c0,0-0.1,0-0.2,0l-0.5,0.1
					c-0.1,0-0.2,0-0.2,0.1C24.7,49.3,24.7,49.4,24.7,49.5z"/>
				<path fill="#AB9021" d="M24.3,45.6l-0.2,0l0-1l0.8-0.8l-0.4,0c-0.1,0-0.2,0-0.2,0c0,0,0,0.1-0.1,0.2l-0.2,0l0-0.8l0.2,0
					c0,0.1,0,0.2,0,0.2c0,0,0.1,0.1,0.2,0.1l1,0l0,0.4l-1.1,1l0.7,0c0.1,0,0.2,0,0.2,0c0,0,0-0.1,0.1-0.2l0.2,0l0,0.8l-0.2,0
					c0-0.1,0-0.2,0-0.2c0,0-0.1-0.1-0.2-0.1l-0.5,0c-0.1,0-0.2,0-0.2,0C24.3,45.4,24.3,45.5,24.3,45.6z"/>
				<path fill="#AB9021" d="M24.5,42.3l-0.2,0l0.2-1.1l0.2,0c0,0.1,0,0.2,0,0.2c0,0,0.1,0.1,0.2,0.1l0.5,0.1c0.1,0,0.2,0,0.2,0
					c0,0,0.1-0.1,0.1-0.2l0.2,0l-0.2,1.1l-0.2,0c0-0.1,0-0.2,0-0.2c0,0-0.1-0.1-0.2-0.1l-0.5-0.1c-0.1,0-0.2,0-0.2,0
					C24.6,42.2,24.5,42.2,24.5,42.3z"/>
				<path fill="#AB9021" d="M24.9,40.2l-0.2-0.1l0.4-1l0.2,0.1c0,0.1,0,0.2,0,0.2c0,0,0.1,0.1,0.2,0.1l0.5,0.2c0.1,0,0.2,0,0.2,0
					c0.1-0.1,0.1-0.1,0.2-0.3c0.1-0.2,0.1-0.3,0-0.4c0-0.1-0.1-0.2-0.2-0.2l-0.4-0.2c-0.1,0-0.2,0-0.2,0c0,0-0.1,0.1-0.1,0.2
					l-0.2-0.1l0.3-0.8l0.2,0.1c0,0.1,0,0.2,0,0.2c0,0,0.1,0.1,0.2,0.1l0.4,0.1c0.2,0.1,0.3,0.2,0.3,0.3c0,0.2,0,0.4-0.1,0.7
					c-0.1,0.3-0.2,0.5-0.3,0.6c-0.1,0.1-0.3,0.1-0.4,0.1l-0.5-0.2c-0.1,0-0.2,0-0.2,0C25,40.1,24.9,40.1,24.9,40.2z"/>
				<path fill="#AB9021" d="M26.2,37L26,36.9l0.6-0.7l1,0.2l-0.4-0.9l0.7-0.8l0.1,0.1l0,0C28,34.8,28,34.9,28,34.9
					c0,0.1,0,0.1,0.1,0.2l0.4,0.4c0.1,0.1,0.2,0.1,0.2,0.1c0,0,0.1-0.1,0.2-0.2l0.1,0.1l-0.8,0.9l-0.1-0.1l0,0
					c0.1-0.1,0.1-0.2,0.1-0.2c0-0.1,0-0.1-0.1-0.2l-0.5-0.5l0.5,1.2l-0.2,0.2l-1.3-0.2l0.5,0.5c0.1,0.1,0.2,0.1,0.2,0.1
					c0,0,0.1-0.1,0.2-0.1l0.1,0.1l-0.6,0.7L27,37.7c0.1-0.1,0.1-0.2,0.1-0.2c0,0,0-0.1-0.1-0.2L26.5,37c-0.1-0.1-0.2-0.1-0.2-0.1
					C26.3,36.9,26.2,36.9,26.2,37z"/>
			</g>
		</g>
	</g>
</g>
</svg>
