<?xml version="1.0" encoding="utf-8"?>
<!-- Generator: Adobe Illustrator 18.0.0, SVG Export Plug-In . SVG Version: 6.00 Build 0)  -->
<!DOCTYPE svg PUBLIC "-//W3C//DTD SVG 1.1//EN" "http://www.w3.org/Graphics/SVG/1.1/DTD/svg11.dtd">
<svg version="1.1" xmlns="http://www.w3.org/2000/svg" xmlns:xlink="http://www.w3.org/1999/xlink" x="0px" y="0px"
	 viewBox="0 0 190.1 83.9" enable-background="new 0 0 190.1 83.9" xml:space="preserve">
<g id="Fondo_xA0_Imagen_1_">
</g>
<g id="Rectángulo_1_1_" enable-background="new    ">
</g>
<g id="PANTALLA_1">
</g>
<g id="PANTALLA_1.1_C._Administrativo">
</g>
<g id="Rectángulo_1_copia_1_" enable-background="new    ">
</g>
<g id="Enlaces_a_los_Sistemas_1_">
</g>
<g id="PANTALLA_1.2_C._Académico_x0D__x0D_">
</g>
<g id="Rectángulo_1_copia_2_1_" enable-background="new    ">
</g>
<g id="Enlaces_a_los_Sistemas">
</g>
<g id="Enlaces_1_">
</g>
<g id="Moodle">
</g>
<g id="Estudiantes">
</g>
<g id="Docentes">
</g>
<g id="Educación_x0D_Continua">
</g>
<g id="Rectángulo_2_1_" enable-background="new    ">
</g>
<g id="Rectángulo_2_copia_1_" enable-background="new    ">
</g>
<g id="Rectángulo_2_copia_2_1_" enable-background="new    ">
</g>
<g id="Rectángulo_2_copia_3_1_" enable-background="new    ">
</g>
<g id="Enlaces">
</g>
<g id="Rectángulo_2_copia_5_7_" enable-background="new    ">
</g>
<g id="Rectángulo_2_copia_5_6_" enable-background="new    ">
</g>
<g id="Rectángulo_2_copia_5_5_" enable-background="new    ">
</g>
<g id="Rectángulo_2_copia_5_4_" enable-background="new    ">
</g>
<g id="Rectángulo_2_copia_6_1_" enable-background="new    ">
</g>
<g id="Rectángulo_2_copia_7_1_" enable-background="new    ">
</g>
<g id="Rectángulo_2_copia_8_1_" enable-background="new    ">
</g>
<g id="Rectángulo_2_copia_4_7_" enable-background="new    ">
</g>
<g id="Rectángulo_2_copia_4_6_" enable-background="new    ">
</g>
<g id="Rectángulo_2_copia_4_5_" enable-background="new    ">
</g>
<g id="Rectángulo_2_copia_4_4_" enable-background="new    ">
	<g id="Sistema_Integral_de_Información_Universitaria__Conjunto_Adminis_1_">
	</g>
	<g>
		<polygon fill="#03A1AF" points="58.1,73.7 48.6,73.7 26.4,16.5 35.9,16.5 		"/>
		<polygon fill="#03A1AF" points="17.8,39.5 4.5,73.7 14,73.7 27.3,39.5 		"/>
		<path fill="#014C6A" d="M97.9,73.7H87.3L73,54.1H58.9v-8.9h15c5.6,0,10.1-4.6,10.1-10.2s-4.5-10.2-10.1-10.2H58.7v-9.2l15.2,0
			C84.4,15.6,93,24.3,93,35c0,7.9-4.6,14.6-11.3,17.7L97.9,73.7z"/>
		<rect x="102.8" y="15.9" fill="#014C6A" width="36" height="8.8"/>
		<rect x="102.8" y="39.1" fill="#014C6A" width="26.3" height="8.8"/>
		<rect x="102.8" y="64.8" fill="#014C6A" width="36" height="8.8"/>
		<path fill="#014C6A" d="M158.1,47.8c-7.9-1.7-13.6-8.2-13.6-15.7c0-9,8.3-16.2,18.6-16.2h19.2v8.8h-19.2c-5.1,0-9.3,3.3-9.3,7.4
			c0,3.4,2.8,6.3,6.7,7.1c2.7,0.5,5.9,1.1,11.4,2c8.6,1.4,15,8,15,15.9c0,9-8.3,16.2-18.6,16.2h-22.5v-8.8h22.5
			c5.1,0,9.3-3.3,9.3-7.4c0-3.2-2.3-6.2-6.2-7C166.4,49.2,162,48.7,158.1,47.8z"/>
	</g>
</g>
</svg>
