<?xml version="1.0" encoding="utf-8"?>
<!-- Generator: Adobe Illustrator 18.0.0, SVG Export Plug-In . SVG Version: 6.00 Build 0)  -->
<!DOCTYPE svg PUBLIC "-//W3C//DTD SVG 1.1//EN" "http://www.w3.org/Graphics/SVG/1.1/DTD/svg11.dtd">
<svg version="1.1" xmlns="http://www.w3.org/2000/svg" xmlns:xlink="http://www.w3.org/1999/xlink" x="0px" y="0px"
	 viewBox="0 0 380.3 116.7" enable-background="new 0 0 380.3 116.7" xml:space="preserve">
<g id="Fondo_xA0_Imagen_1_">
</g>
<g id="Rectángulo_1_1_" enable-background="new    ">
</g>
<g id="PANTALLA_1">
</g>
<g id="PANTALLA_1.1_C._Administrativo">
</g>
<g id="Rectángulo_1_copia_1_" enable-background="new    ">
</g>
<g id="Enlaces_a_los_Sistemas_1_">
</g>
<g id="PANTALLA_1.2_C._Académico_x0D__x0D_">
</g>
<g id="Rectángulo_1_copia_2_1_" enable-background="new    ">
</g>
<g id="Enlaces_a_los_Sistemas">
</g>
<g id="Enlaces_1_">
</g>
<g id="Moodle">
</g>
<g id="Estudiantes">
</g>
<g id="Docentes">
</g>
<g id="Educación_x0D_Continua">
</g>
<g id="Rectángulo_2_1_" enable-background="new    ">
</g>
<g id="Rectángulo_2_copia_1_" enable-background="new    ">
</g>
<g id="Rectángulo_2_copia_2_1_" enable-background="new    ">
</g>
<g id="Rectángulo_2_copia_3_1_" enable-background="new    ">
</g>
<g id="Enlaces">
</g>
<g id="Rectángulo_2_copia_5_7_" enable-background="new    ">
</g>
<g id="Rectángulo_2_copia_5_6_" enable-background="new    ">
</g>
<g id="Rectángulo_2_copia_5_5_" enable-background="new    ">
</g>
<g id="Rectángulo_2_copia_5_4_" enable-background="new    ">
</g>
<g id="Rectángulo_2_copia_6_1_" enable-background="new    ">
</g>
<g id="Rectángulo_2_copia_7_1_" enable-background="new    ">
</g>
<g id="Rectángulo_2_copia_8_1_" enable-background="new    ">
</g>
<g id="Rectángulo_2_copia_4_7_" enable-background="new    ">
</g>
<g id="Rectángulo_2_copia_4_6_" enable-background="new    ">
</g>
<g id="Rectángulo_2_copia_4_5_" enable-background="new    ">
</g>
<g id="Rectángulo_2_copia_4_4_" enable-background="new    ">
	<g id="Sistema_Integral_de_Información_Universitaria__Conjunto_Adminis_1_">
	</g>
	<g>
		<g>
			<path fill="#0075BE" d="M154.4,10.3v13.8c0,1.4-0.3,2.7-0.8,3.9c-0.5,1.2-1.2,2.3-2.1,3.2c-0.9,0.9-1.9,1.6-3.1,2.1
				c-1.2,0.5-2.5,0.8-3.9,0.8s-2.7-0.3-3.9-0.8c-1.2-0.5-2.3-1.2-3.2-2.1c-0.9-0.9-1.6-1.9-2.1-3.1c-0.5-1.2-0.8-2.5-0.8-3.9V10.3
				h0.9v13.9c0,1.2,0.2,2.4,0.7,3.5c0.5,1.1,1.1,2,2,2.9s1.8,1.5,2.9,1.9c1.1,0.5,2.3,0.7,3.5,0.7c1.2,0,2.4-0.2,3.5-0.7
				c1.1-0.5,2.1-1.1,2.9-1.9c0.8-0.8,1.5-1.8,2-2.9c0.5-1.1,0.7-2.2,0.7-3.5v-14H154.4z"/>
			<path fill="#0075BE" d="M178.6,33.7h-1L160,11.6l0,22.1h-1V10.3h1l17.6,22v-22h1V33.7z"/>
			<path fill="#0075BE" d="M187,33.6h-3.6v-0.8h1.4V11.1h-1.4v-0.8h3.6v0.8h-1.3v21.7h1.3V33.6z"/>
			<path fill="#0075BE" d="M211.5,10.3l-10.4,23.3h-0.8l-10.5-23.3h1l10,22.2l9.9-22.2H211.5z"/>
			<path fill="#0075BE" d="M231.8,33.7h-17.5V10.3h17.5v0.8h-16.6v10.3H230v0.8h-14.9v10.6h16.6V33.7z"/>
			<path fill="#0075BE" d="M254.4,33.6h-1.2l-6.8-10h-10.1v10.1h-0.9V10.3h11.4c0.9,0,1.8,0.2,2.6,0.5s1.6,0.8,2.2,1.4
				c0.6,0.6,1.1,1.3,1.5,2.1s0.6,1.6,0.6,2.5c0,0.6-0.1,1.3-0.4,2c-0.3,0.7-0.6,1.3-1.2,1.9c-0.5,0.6-1.1,1.1-1.9,1.6
				s-1.7,0.8-2.7,1.1L254.4,33.6z M252.7,16.9c0-0.8-0.2-1.5-0.5-2.2c-0.3-0.7-0.8-1.3-1.3-1.9c-0.6-0.5-1.2-0.9-1.9-1.3
				c-0.7-0.3-1.5-0.5-2.3-0.5h-10.5v11.7h9.9c0.9,0,1.8-0.2,2.6-0.5c0.8-0.3,1.5-0.7,2.1-1.3c0.6-0.5,1.1-1.1,1.4-1.9
				C252.6,18.5,252.7,17.7,252.7,16.9z"/>
			<path fill="#0075BE" d="M276.2,28.2c0,1.1-0.3,2-0.9,2.7c-0.6,0.7-1.4,1.3-2.4,1.8c-1,0.5-2,0.8-3.1,1c-1.1,0.2-2.2,0.3-3.3,0.3
				c-0.8,0-1.6,0-2.4-0.1c-0.8-0.1-1.7-0.3-2.5-0.5s-1.7-0.5-2.5-0.9c-0.8-0.3-1.6-0.8-2.4-1.3l0.7-0.7c0.7,0.4,1.4,0.8,2.2,1.2
				c0.8,0.3,1.6,0.6,2.4,0.8c0.8,0.2,1.6,0.4,2.4,0.5c0.8,0.1,1.5,0.2,2.2,0.2c0.7,0,1.4,0,2.2-0.1c0.8-0.1,1.5-0.2,2.2-0.4
				c0.7-0.2,1.4-0.5,2-0.8c0.6-0.3,1.1-0.8,1.6-1.3c0.2-0.3,0.4-0.6,0.6-1s0.2-0.8,0.2-1.3c0-0.8-0.2-1.4-0.5-2
				c-0.4-0.5-0.8-1-1.3-1.4c-0.5-0.4-1-0.7-1.6-0.9c-0.6-0.2-1.1-0.4-1.5-0.6c-0.3-0.1-0.6-0.2-0.9-0.3c-0.3-0.1-0.6-0.2-0.9-0.2
				l-5-1.3c-1-0.3-1.9-0.5-2.7-0.9c-0.8-0.3-1.5-0.7-2.1-1.2c-0.6-0.5-1.1-1-1.4-1.6c-0.3-0.6-0.5-1.4-0.5-2.2c0-1.1,0.3-2,0.9-2.7
				c0.6-0.7,1.4-1.3,2.3-1.8c0.9-0.4,2-0.8,3.1-1c1.1-0.2,2.2-0.3,3.3-0.3c1.6,0,3.1,0.2,4.7,0.6c1.6,0.4,3.1,1.2,4.6,2.3l-0.6,0.6
				c-0.6-0.5-1.3-0.9-2.1-1.3c-0.7-0.4-1.5-0.6-2.2-0.8c-0.8-0.2-1.5-0.4-2.2-0.5c-0.7-0.1-1.4-0.2-2-0.2c-0.6,0-1.2,0-1.9,0.1
				c-0.7,0.1-1.5,0.2-2.2,0.4c-0.7,0.2-1.4,0.5-2.1,0.8s-1.2,0.8-1.7,1.3c-0.2,0.3-0.4,0.6-0.6,1c-0.2,0.4-0.2,0.9-0.2,1.3
				c0,0.8,0.2,1.4,0.6,2c0.4,0.5,0.8,1,1.4,1.4c0.6,0.4,1.1,0.7,1.8,0.9c0.6,0.2,1.2,0.4,1.7,0.6c0.3,0.1,0.7,0.2,1,0.3
				c0.3,0.1,0.6,0.2,0.9,0.2l4.2,1.1c1,0.3,1.8,0.5,2.7,0.9c0.8,0.3,1.6,0.8,2.2,1.2c0.6,0.5,1.1,1,1.5,1.7
				C276,26.7,276.2,27.4,276.2,28.2z"/>
			<path fill="#0075BE" d="M283.9,33.6h-3.6v-0.8h1.4V11.1h-1.4v-0.8h3.6v0.8h-1.3v21.7h1.3V33.6z"/>
			<path fill="#0075BE" d="M308.7,21.9c0,1.6-0.3,3.1-0.9,4.5c-0.6,1.4-1.5,2.7-2.5,3.7c-1.1,1.1-2.3,1.9-3.8,2.5s-3,0.9-4.6,0.9
				h-8.3V10.3h8.3c1.6,0,3.2,0.3,4.6,0.9s2.7,1.4,3.7,2.5c1.1,1,1.9,2.3,2.5,3.7S308.7,20.3,308.7,21.9z M307.8,21.9
				c0-1.4-0.3-2.8-0.8-4.1s-1.3-2.5-2.3-3.5c-1-1-2.1-1.8-3.4-2.4c-1.3-0.6-2.7-0.9-4.2-0.9h-7.6v21.7h7.6c1.5,0,2.9-0.3,4.2-0.9
				c1.3-0.6,2.4-1.4,3.4-2.4s1.7-2.1,2.3-3.5S307.8,23.4,307.8,21.9z"/>
			<path fill="#0075BE" d="M333.1,33.6h-1l-3.2-7.1h-13.8l-3.2,7.1h-1l10.6-23.3h0.9L333.1,33.6z M328.5,25.8L322,11.5l-6.5,14.3
				H328.5z"/>
			<path fill="#0075BE" d="M356,21.9c0,1.6-0.3,3.1-0.9,4.5c-0.6,1.4-1.5,2.7-2.5,3.7c-1.1,1.1-2.3,1.9-3.8,2.5s-3,0.9-4.6,0.9h-8.3
				V10.3h8.3c1.6,0,3.2,0.3,4.6,0.9s2.7,1.4,3.7,2.5c1.1,1,1.9,2.3,2.5,3.7S356,20.3,356,21.9z M355.1,21.9c0-1.4-0.3-2.8-0.8-4.1
				s-1.3-2.5-2.3-3.5c-1-1-2.1-1.8-3.4-2.4c-1.3-0.6-2.7-0.9-4.2-0.9h-7.6v21.7h7.6c1.5,0,2.9-0.3,4.2-0.9c1.3-0.6,2.4-1.4,3.4-2.4
				s1.7-2.1,2.3-3.5S355.1,23.4,355.1,21.9z"/>
			<path fill="#0075BE" d="M154.3,48.1l-0.6,0.6c-1-0.9-2.1-1.7-3.4-2.3c-1.3-0.6-2.7-0.9-4.1-0.9c-1.6,0-3,0.3-4.4,0.9
				s-2.6,1.4-3.6,2.5c-1,1-1.8,2.2-2.4,3.6c-0.6,1.4-0.9,2.8-0.9,4.3s0.3,3,0.9,4.3s1.4,2.6,2.4,3.6c1,1,2.2,1.9,3.6,2.5
				c1.4,0.6,2.8,0.9,4.4,0.9c1.4,0,2.8-0.3,4.1-0.8c1.3-0.5,2.5-1.3,3.5-2.3l0.7,0.6c-1.1,1-2.4,1.9-3.8,2.4s-2.9,0.9-4.4,0.9
				c-1.7,0-3.3-0.3-4.8-1c-1.5-0.6-2.8-1.5-3.9-2.6c-1.1-1.1-2-2.4-2.6-3.8c-0.6-1.5-1-3-1-4.7c0-1.7,0.3-3.2,1-4.7
				c0.6-1.5,1.5-2.8,2.6-3.8c1.1-1.1,2.4-2,3.9-2.6c1.5-0.6,3.1-0.9,4.8-0.9c1.7,0,3.2,0.3,4.5,0.9C152,46.3,153.2,47.1,154.3,48.1z
				"/>
			<path fill="#0075BE" d="M175.3,68.6h-17.5V45.3h17.5v0.8h-16.6v10.3h14.9v0.8h-14.9v10.6h16.6V68.6z"/>
			<path fill="#0075BE" d="M198.5,68.6h-1l-17.6-22.1l0,22.1h-1V45.3h1l17.6,22v-22h1V68.6z"/>
			<path fill="#0075BE" d="M220.7,46.1h-9.4v22.5h-0.9V46.1h-9.4v-0.8h19.6V46.1z"/>
			<path fill="#0075BE" d="M242.4,68.6h-1.2l-6.8-10h-10.1v10.1h-0.9V45.3h11.4c0.9,0,1.8,0.2,2.6,0.5s1.6,0.8,2.2,1.4
				c0.6,0.6,1.1,1.3,1.5,2.1s0.6,1.6,0.6,2.5c0,0.6-0.1,1.3-0.4,2c-0.3,0.7-0.6,1.3-1.2,1.9c-0.5,0.6-1.1,1.1-1.9,1.6
				s-1.7,0.8-2.7,1.1L242.4,68.6z M240.7,51.9c0-0.8-0.2-1.5-0.5-2.2c-0.3-0.7-0.8-1.3-1.3-1.9c-0.6-0.5-1.2-0.9-1.9-1.3
				c-0.7-0.3-1.5-0.5-2.3-0.5h-10.5v11.7h9.9c0.9,0,1.8-0.2,2.6-0.5c0.8-0.3,1.5-0.7,2.1-1.3c0.6-0.5,1.1-1.1,1.4-1.9
				C240.5,53.5,240.7,52.7,240.7,51.9z"/>
			<path fill="#0075BE" d="M265.6,68.6h-1l-3.2-7.1h-13.8l-3.2,7.1h-1L254,45.3h0.9L265.6,68.6z M261,60.7l-6.5-14.3L248,60.7H261z"
				/>
			<path fill="#0075BE" d="M285.6,68.6h-17.2V45.3h0.9v22.5h16.4V68.6z"/>
			<path fill="#0075BE" d="M154.6,91.9c0,1.6-0.3,3.1-0.9,4.5c-0.6,1.4-1.5,2.7-2.5,3.7c-1.1,1.1-2.3,1.9-3.8,2.5s-3,0.9-4.6,0.9
				h-8.3V80.3h8.3c1.6,0,3.2,0.3,4.6,0.9s2.7,1.4,3.7,2.5c1.1,1,1.9,2.3,2.5,3.7S154.6,90.3,154.6,91.9z M153.6,91.9
				c0-1.4-0.3-2.8-0.8-4.1s-1.3-2.5-2.3-3.5c-1-1-2.1-1.8-3.4-2.4c-1.3-0.6-2.7-0.9-4.2-0.9h-7.6v21.7h7.6c1.5,0,2.9-0.3,4.2-0.9
				c1.3-0.6,2.4-1.4,3.4-2.4s1.7-2.1,2.3-3.5S153.6,93.4,153.6,91.9z"/>
			<path fill="#0075BE" d="M176.2,103.6h-17.5V80.3h17.5v0.8h-16.6v10.3h14.9v0.8h-14.9v10.6h16.6V103.6z"/>
			<path fill="#0075BE" d="M196.9,103.6h-17.2V80.3h0.9v22.5h16.4V103.6z"/>
			<path fill="#0075BE" d="M227.3,103.6h-17.5V80.3h17.5v0.8h-16.6v10.3h14.9v0.8h-14.9v10.6h16.6V103.6z"/>
			<path fill="#0075BE" d="M250.7,83.1l-0.6,0.6c-1-0.9-2.1-1.7-3.4-2.3c-1.3-0.6-2.7-0.9-4.1-0.9c-1.6,0-3,0.3-4.4,0.9
				s-2.6,1.4-3.6,2.5c-1,1-1.8,2.2-2.4,3.6c-0.6,1.4-0.9,2.8-0.9,4.3s0.3,3,0.9,4.3s1.4,2.6,2.4,3.6c1,1,2.2,1.9,3.6,2.5
				c1.4,0.6,2.8,0.9,4.4,0.9c1.4,0,2.8-0.3,4.1-0.8c1.3-0.5,2.5-1.3,3.5-2.3l0.7,0.6c-1.1,1-2.4,1.9-3.8,2.4s-2.9,0.9-4.4,0.9
				c-1.7,0-3.3-0.3-4.8-1c-1.5-0.6-2.8-1.5-3.9-2.6c-1.1-1.1-2-2.4-2.6-3.8c-0.6-1.5-1-3-1-4.7c0-1.7,0.3-3.2,1-4.7
				c0.6-1.5,1.5-2.8,2.6-3.8c1.1-1.1,2.4-2,3.9-2.6c1.5-0.6,3.1-0.9,4.8-0.9c1.7,0,3.2,0.3,4.5,0.9
				C248.4,81.3,249.6,82.1,250.7,83.1z"/>
			<path fill="#0075BE" d="M274.2,80.3v13.8c0,1.4-0.3,2.7-0.8,3.9c-0.5,1.2-1.2,2.3-2.1,3.2c-0.9,0.9-1.9,1.6-3.1,2.1
				c-1.2,0.5-2.5,0.8-3.9,0.8s-2.7-0.3-3.9-0.8c-1.2-0.5-2.3-1.2-3.2-2.1c-0.9-0.9-1.6-1.9-2.1-3.1c-0.5-1.2-0.8-2.5-0.8-3.9V80.3
				h0.9v13.9c0,1.2,0.2,2.4,0.7,3.5c0.5,1.1,1.1,2,2,2.9s1.8,1.5,2.9,1.9c1.1,0.5,2.3,0.7,3.5,0.7c1.2,0,2.4-0.2,3.5-0.7
				c1.1-0.5,2.1-1.1,2.9-1.9c0.8-0.8,1.5-1.8,2-2.9c0.5-1.1,0.7-2.2,0.7-3.5v-14H274.2z"/>
			<path fill="#0075BE" d="M299.1,103.6h-1l-3.2-7.1h-13.8l-3.2,7.1h-1l10.6-23.3h0.9L299.1,103.6z M294.5,95.7L288,81.5l-6.5,14.3
				H294.5z"/>
			<path fill="#0075BE" d="M322,91.9c0,1.6-0.3,3.1-0.9,4.5c-0.6,1.4-1.5,2.7-2.5,3.7c-1.1,1.1-2.3,1.9-3.8,2.5s-3,0.9-4.6,0.9h-8.3
				V80.3h8.3c1.6,0,3.2,0.3,4.6,0.9s2.7,1.4,3.7,2.5c1.1,1,1.9,2.3,2.5,3.7S322,90.3,322,91.9z M321.1,91.9c0-1.4-0.3-2.8-0.8-4.1
				s-1.3-2.5-2.3-3.5c-1-1-2.1-1.8-3.4-2.4c-1.3-0.6-2.7-0.9-4.2-0.9h-7.6v21.7h7.6c1.5,0,2.9-0.3,4.2-0.9c1.3-0.6,2.4-1.4,3.4-2.4
				s1.7-2.1,2.3-3.5S321.1,93.4,321.1,91.9z"/>
			<path fill="#0075BE" d="M349.7,91.9c0,1.7-0.3,3.2-0.9,4.7c-0.6,1.5-1.5,2.8-2.6,3.8s-2.4,2-3.9,2.6c-1.5,0.6-3,1-4.7,1
				c-1.7,0-3.2-0.3-4.7-1c-1.5-0.6-2.8-1.5-3.9-2.6s-2-2.4-2.6-3.8c-0.6-1.5-0.9-3-0.9-4.7c0-1.7,0.3-3.2,0.9-4.7
				c0.6-1.5,1.5-2.8,2.6-3.8c1.1-1.1,2.4-2,3.9-2.6c1.5-0.6,3-0.9,4.7-0.9c1.7,0,3.2,0.3,4.7,0.9c1.5,0.6,2.8,1.5,3.9,2.6
				c1.1,1.1,2,2.4,2.6,3.8C349.4,88.7,349.7,90.3,349.7,91.9z M348.8,91.9c0-1.5-0.3-3-0.9-4.3c-0.6-1.4-1.4-2.6-2.4-3.6
				c-1-1-2.2-1.8-3.5-2.4c-1.3-0.6-2.8-0.9-4.3-0.9c-1.6,0-3,0.3-4.4,0.9c-1.3,0.6-2.5,1.4-3.5,2.4c-1,1-1.8,2.2-2.4,3.6
				c-0.6,1.4-0.9,2.8-0.9,4.3s0.3,3,0.9,4.3c0.6,1.4,1.4,2.6,2.4,3.6c1,1,2.2,1.9,3.5,2.5s2.8,0.9,4.4,0.9c1.5,0,3-0.3,4.3-0.9
				s2.5-1.4,3.5-2.5c1-1,1.8-2.2,2.4-3.6C348.5,94.9,348.8,93.4,348.8,91.9z"/>
			<path fill="#0075BE" d="M372.8,103.6h-1.2l-6.8-10h-10.1v10.1h-0.9V80.3h11.4c0.9,0,1.8,0.2,2.6,0.5s1.6,0.8,2.2,1.4
				c0.6,0.6,1.1,1.3,1.5,2.1s0.6,1.6,0.6,2.5c0,0.6-0.1,1.3-0.4,2c-0.3,0.7-0.6,1.3-1.2,1.9c-0.5,0.6-1.1,1.1-1.9,1.6
				s-1.7,0.8-2.7,1.1L372.8,103.6z M371.2,86.9c0-0.8-0.2-1.5-0.5-2.2c-0.3-0.7-0.8-1.3-1.3-1.9c-0.6-0.5-1.2-0.9-1.9-1.3
				c-0.7-0.3-1.5-0.5-2.3-0.5h-10.5v11.7h9.9c0.9,0,1.8-0.2,2.6-0.5c0.8-0.3,1.5-0.7,2.1-1.3c0.6-0.5,1.1-1.1,1.4-1.9
				C371,88.5,371.2,87.7,371.2,86.9z"/>
		</g>
		<g>
			<path fill="#AB9021" d="M99.6,19.2C89,8.6,74.9,2.8,59.9,2.8c-15,0-29.1,5.8-39.6,16.4C9.7,29.8,3.9,43.9,3.9,58.8
				c0,15,5.8,29.1,16.4,39.6c10.6,10.6,24.7,16.4,39.6,16.4c15,0,29.1-5.8,39.6-16.4C110.2,87.9,116,73.8,116,58.8
				C116,43.9,110.2,29.8,99.6,19.2z"/>
			<circle fill="#FFFFFF" cx="60" cy="58.8" r="54.1"/>
			<path fill="#AB9021" d="M88.8,30c-7.7-7.7-18-12-28.9-12C49,18,38.8,22.3,31.1,30c-7.7,7.7-12,18-12,28.9
				c0,10.9,4.2,21.2,12,28.9c7.7,7.7,18,12,28.9,12c10.9,0,21.2-4.2,28.9-12c7.7-7.7,12-18,12-28.9C100.8,47.9,96.5,37.7,88.8,30z"
				/>
			<circle fill="#0075BE" cx="59.9" cy="58.8" r="39"/>
			<path fill="#AB9021" d="M15.1,57.3L15.1,57.3c0,0.3-0.1,0.4-0.2,0.5c-0.2,0.1-0.5,0.1-1.1,0.1l-2.9,0c-0.6,0-1,0-1.1-0.1
				c-0.1-0.1-0.2-0.2-0.2-0.5l0,0h0l-0.9,0h0l0,0l0,2.7v0l0,0l0.9,0l0,0l0,0c0-0.2,0.1-0.4,0.2-0.5c0.2-0.1,0.5-0.1,1.1-0.1l2.9,0
				c0.6,0,1,0,1.1,0.1c0.1,0.1,0.2,0.2,0.2,0.5l0,0h0l0.9,0h0v0l0-2.7v0l0,0L15.1,57.3L15.1,57.3z M10.1,66.7L10.1,66.7
				c0-0.3,0-0.4,0.2-0.5c0.1-0.1,0.5-0.2,1.1-0.2l2.9-0.3c0.6-0.1,1-0.1,1.1,0c0.2,0.1,0.2,0.2,0.3,0.4l0,0l0,0l0.9-0.1l0,0l0,0
				l-0.2-2l0,0l0,0l-0.9,0.1l0,0l0,0c0,0.2-0.1,0.4-0.2,0.5c-0.1,0.1-0.5,0.2-1.1,0.2l-3.3,0.3l5.4-3l0,0l0,0l-0.1-1l0,0l0,0
				l-5.2,0.5c-0.6,0.1-1,0.1-1.1,0c-0.2-0.1-0.2-0.2-0.3-0.4l0,0l0,0l-0.9,0.1l0,0l0,0l0.2,2l0,0l0,0l0.9-0.1l0,0l0,0
				c0-0.2,0.1-0.4,0.2-0.5c0.1-0.1,0.5-0.2,1.1-0.2l1.8-0.2l-3.9,2.2l0,0l0,0L9,66.8l0,0l0,0L10.1,66.7L10.1,66.7z M9.4,56.5
				L9.4,56.5L9.4,56.5c0.1-0.3,0.2-0.4,0.4-0.5c0.1-0.1,0.4-0.2,0.8-0.3l5.8-0.9l0,0l0,0l0.1-1l0,0l0,0L11,51.5
				c-0.3-0.1-0.5-0.2-0.6-0.4c-0.1-0.2-0.2-0.3-0.2-0.5l0,0l0,0l-0.9-0.1l0,0l0,0l-0.2,2.2l0,0l0,0l0.9,0.1l0,0l0,0
				c0.1-0.3,0.1-0.4,0.2-0.5c0.1-0.1,0.2-0.1,0.3-0.1c0.1,0,0.2,0,0.4,0.1c0,0,0.1,0,0.1,0c0,0,2.8,1.1,3.4,1.3l-3.7,0.5
				c0,0-0.1,0-0.1,0c-0.1,0-0.2,0-0.3,0c-0.1,0-0.2-0.1-0.3-0.1c0-0.1-0.1-0.3-0.1-0.5v0l0,0l-0.9-0.1l0,0l0,0l-0.3,2.8l0,0l0,0
				L9.4,56.5z M16.4,67.7c-0.6-0.2-1.4-0.2-2.4,0.1l-2.3,0.6c-0.6,0.1-0.9,0.2-1.1,0.1c-0.2,0-0.3-0.2-0.3-0.4l0,0l0,0l-0.9,0.2l0,0
				l0,0l0.5,1.9l0,0l0,0l0.9-0.2l0,0l0,0c0-0.2,0-0.4,0.1-0.5c0.1-0.1,0.5-0.2,1.1-0.4l2.5-0.6c0.5-0.1,1-0.1,1.3,0
				c0.3,0.1,0.5,0.3,0.6,0.7c0.1,0.3,0,0.6-0.2,0.8c-0.2,0.2-0.5,0.4-1,0.5l-2.7,0.7c-0.6,0.1-0.9,0.2-1.1,0.1
				c-0.2,0-0.3-0.2-0.3-0.4l0,0l0,0L10,71l0,0l0,0l0.6,2.5l0,0l0,0l0.9-0.2l0,0l0,0c0-0.2,0-0.4,0.1-0.5c0.1-0.1,0.5-0.2,1.1-0.4
				l2.7-0.7c0.8-0.2,1.5-0.5,1.8-1c0.3-0.5,0.4-1,0.3-1.8C17.4,68.3,17,67.9,16.4,67.7z M17.8,46.6l-2.3-1.4l0,0l0,0L15,45.6l0,0
				l0,0c0.6,0.4,1,0.9,1.2,1.3c0.3,0.5,0.3,0.9,0.2,1.2c-0.1,0.2-0.1,0.3-0.3,0.4c-0.1,0-0.4,0-0.8-0.1l-1.7-0.4l0-0.2
				c0-0.2,0.2-0.3,0.4-0.4c0.2-0.1,0.5-0.1,1,0l0,0l0,0l0.1-0.5l0,0l0,0L12,46.2l0,0l0,0l-0.1,0.5l0,0l0,0c0.5,0.1,0.7,0.3,0.9,0.4
				c0.1,0.1,0.1,0.3,0.1,0.5l-0.1,0.2l-1-0.2c-0.4-0.1-0.6-0.2-0.7-0.3c-0.1-0.1-0.1-0.2,0-0.5c0.1-0.4,0.3-0.7,0.7-0.9
				c0.4-0.3,0.8-0.4,1.5-0.6l0.1,0l0,0l-0.2-0.6l0,0l0,0l-2.4,0.1l0,0l0,0l-1,4.3l0,0l0,0l0.9,0.2l0,0l0,0c0.1-0.2,0.2-0.3,0.3-0.4
				c0.2,0,0.5,0,1.1,0.2l2.8,0.7c0.6,0.1,0.9,0.3,1.1,0.4c0.1,0.1,0.2,0.3,0.1,0.5l0,0l0,0l0.9,0.2l0,0l0,0L17.8,46.6L17.8,46.6
				L17.8,46.6z"/>
			<path fill="#AB9021" d="M26,25.5c-0.9-0.8-1.8-1.2-2.7-1.3c-0.8,0-1.6,0.3-2.3,1.1l-1.7,1.9l0,0l0,0l0.7,0.6l0,0l0,0
				c0.2-0.2,0.3-0.2,0.5-0.2c0.2,0,0.5,0.3,0.9,0.7l2.2,1.9c0.5,0.4,0.7,0.7,0.8,0.8c0.1,0.1,0,0.3-0.1,0.5l0,0l0,0l0.7,0.6l0,0l0,0
				l1.7-1.9c0.7-0.7,0.9-1.5,0.8-2.4C27.4,27.1,26.9,26.3,26,25.5z M26,29.7c-0.1,0.2-0.3,0.2-0.4,0.2c-0.1,0-0.3-0.1-0.6-0.4
				L22.1,27c-0.4-0.3-0.5-0.5-0.5-0.6c0-0.1,0-0.3,0.2-0.4c0.3-0.4,0.8-0.5,1.3-0.4c0.6,0.1,1.2,0.5,1.8,1c0.7,0.6,1.1,1.1,1.3,1.7
				C26.4,28.9,26.3,29.3,26,29.7z M20.7,34.3c-0.5-0.3-1-0.4-1.4-0.4c-0.4,0-0.9,0.3-1.4,0.8c-0.1,0-0.1,0.1-0.2,0.2
				c-0.7,0.6-1.2,0.8-1.5,0.7c-0.2-0.1-0.3-0.3-0.4-0.4c-0.1-0.2,0-0.4,0.1-0.6c0.1-0.3,0.4-0.5,0.8-0.6c0.4-0.1,0.8-0.1,1.4-0.1
				l0,0l0,0l0-0.6l0,0l0,0l-2.2-0.7l0,0l0,0l-0.2,0.4l0,0l0,0l0.2,0.2c-0.2,0.1-0.4,0.2-0.6,0.3c-0.2,0.1-0.3,0.3-0.4,0.5
				c-0.3,0.5-0.3,1-0.1,1.6c0.2,0.5,0.6,1,1.3,1.3c0.3,0.2,0.6,0.3,0.9,0.3c0.3,0.1,0.6,0,0.9,0c0.1,0,0.3-0.1,0.5-0.3
				c0.2-0.1,0.5-0.3,0.8-0.6c0,0,0.1-0.1,0.2-0.2c0.6-0.5,1.1-0.7,1.4-0.5c0.2,0.1,0.4,0.3,0.4,0.6c0.1,0.2,0.1,0.5-0.1,0.7
				c-0.2,0.3-0.5,0.5-1,0.7c-0.5,0.1-1.1,0.1-1.8,0l0,0l0,0l0,0.7l0,0l0,0l2.8,0.8l0,0l0,0l0.2-0.4l0,0l0,0l-0.3-0.3
				c0.2-0.1,0.5-0.2,0.7-0.4c0.2-0.2,0.4-0.4,0.5-0.6c0.3-0.5,0.3-1.1,0.1-1.7C21.9,35.2,21.4,34.7,20.7,34.3z M24,32.2L24,32.2
				L24,32.2c-0.2,0.2-0.4,0.3-0.5,0.3c-0.2,0-0.5-0.2-1-0.5l-2.4-1.7c-0.5-0.3-0.8-0.6-0.8-0.7c-0.1-0.2,0-0.3,0.1-0.5l0,0l0,0
				l-0.8-0.5l0,0l0,0L17,30.6l0,0l0,0l0.8,0.5l0,0l0,0c0.2-0.2,0.3-0.3,0.5-0.3c0.2,0,0.5,0.2,1,0.5l2.4,1.7
				c0.5,0.3,0.8,0.6,0.8,0.7c0.1,0.1,0,0.3-0.1,0.5l0,0l0,0l0.8,0.5l0,0l0,0l1.5-2.2l0,0l0,0L24,32.2z M19.5,39.5L19.5,39.5
				L19.5,39.5c-0.1,0.2-0.3,0.3-0.4,0.4C19,40,18.8,40,18.5,40.1l-2.1,0.3c0-0.4-0.1-0.8-0.4-1.1c-0.2-0.3-0.6-0.6-1.1-0.8
				c-0.6-0.3-1.2-0.3-1.7-0.1c-0.5,0.2-0.8,0.7-1.1,1.4l-1.1,2.8l0,0l0,0L12,43l0,0l0,0c0.1-0.2,0.2-0.3,0.4-0.4
				c0.2,0,0.5,0.1,1.1,0.3l2.7,1.1c0.5,0.2,0.9,0.4,1,0.5c0.1,0.1,0.1,0.3,0,0.5l0,0l0,0l0.9,0.3l0,0l0,0l1-2.5l0,0l0,0l-0.9-0.3
				l0,0l0,0c-0.1,0.2-0.2,0.3-0.4,0.4c-0.2,0-0.5-0.1-1.1-0.3l-0.8-0.3l0.2-0.4l3.6-0.3l0,0l0,0l0.6-1.6l0,0l0,0L19.5,39.5z
				 M15,41.6c0,0.1-0.1,0.1-0.1,0.2c0,0,0,0,0,0.1l-1.3-0.5c-0.4-0.1-0.6-0.3-0.6-0.4c-0.1-0.1-0.1-0.3,0-0.5
				c0.1-0.3,0.3-0.5,0.6-0.6c0.3-0.1,0.5-0.1,0.9,0c0.4,0.1,0.6,0.4,0.7,0.6C15.2,40.8,15.2,41.2,15,41.6z M32.8,23.3L32.8,23.3
				L32.8,23.3c-0.3,0.1-0.7,0.1-1.2-0.3c0,0,0,0,0,0c0,0-4.8-3.3-4.8-3.3l0,0l0,0l-0.9,0.8l0,0l0,0l2.3,5c0,0,0,0.1,0.1,0.1
				c0.3,0.6,0.3,1.1,0.1,1.4l0,0l0,0l0.6,0.7l0,0l0,0l1.7-1.4l0,0l0,0l-0.6-0.7l0,0l0,0c-0.2,0.1-0.3,0.2-0.4,0.2
				c-0.1,0-0.2-0.1-0.3-0.2c0,0,0,0-0.1-0.1c0,0,0-0.1-0.1-0.1c0,0-0.4-0.8-0.5-0.9l1.2-1l0.9,0.6c0,0,0.1,0.1,0.1,0.1
				c0,0,0.1,0.1,0.1,0.1c0.1,0.1,0.1,0.2,0.1,0.3c0,0.1-0.1,0.2-0.2,0.3l0,0l0,0l0,0l0.6,0.7l0,0l0,0l1.9-1.7l0,0l0,0L32.8,23.3z
				 M28.3,23.6l-0.9-1.8l1.6,1.2L28.3,23.6z M50.9,13L50.9,13L50.9,13c-0.2,0.7-0.4,1.3-0.7,1.7c-0.3,0.4-0.6,0.7-1,0.8
				c-0.2,0.1-0.4,0-0.5,0c-0.1-0.1-0.2-0.3-0.3-0.7l-0.4-1.7l0.2,0c0.2,0,0.4,0,0.5,0.2c0.2,0.2,0.3,0.5,0.4,0.9l0,0l0,0l0.5-0.1
				l0,0l0,0l-0.8-3.3l0,0l0,0l-0.5,0.1l0,0l0,0c0.1,0.5,0.1,0.8,0.1,0.9c-0.1,0.2-0.2,0.3-0.5,0.3l-0.2,0l-0.2-1
				c-0.1-0.4-0.1-0.7-0.1-0.8c0-0.1,0.2-0.2,0.4-0.3c0.4-0.1,0.8,0,1.1,0.2c0.4,0.2,0.8,0.5,1.2,1l0,0l0,0l0.4-0.5l0,0l0,0l-1.2-2
				l0,0l0,0l-4.3,1l0,0l0,0l0.2,0.9l0,0l0,0c0.2,0,0.4,0,0.5,0.1c0.1,0.1,0.2,0.5,0.4,1.1l0.7,2.8c0.1,0.6,0.2,1,0.1,1.1
				c0,0.2-0.2,0.3-0.4,0.3l0,0l0,0l0.2,0.9l0,0l0,0l4.4-1.1l0,0l0,0l0.2-2.7l0,0l0,0L50.9,13z M45.8,15.1L45,15L45,15l0,0.1
				c0,0.5-0.1,1-0.3,1.4c-0.2,0.4-0.4,0.6-0.7,0.8c-0.4,0.2-0.9,0.1-1.3-0.3c-0.4-0.4-0.8-1-1.1-1.8c-0.3-0.8-0.5-1.5-0.4-2.1
				c0.1-0.6,0.3-0.9,0.7-1.1c0.3-0.1,0.7-0.1,1.1,0.2c0.4,0.2,0.8,0.6,1.3,1.1l0,0l0,0l0.4-0.4l0,0l0,0L43,10.3l0,0l0,0l-0.4,0.2
				l0,0l0,0l0.1,0.4c-0.2-0.1-0.5-0.1-0.7-0.1c-0.2,0-0.4,0-0.6,0.1c-0.7,0.3-1.2,0.9-1.5,1.8c-0.2,0.9-0.1,1.9,0.3,2.9
				c0.4,1.1,1,1.9,1.8,2.4c0.7,0.5,1.5,0.6,2.3,0.3c0.6-0.2,1-0.6,1.2-1.1C45.7,16.7,45.8,16,45.8,15.1L45.8,15.1L45.8,15.1z
				 M63.5,7.8L63.5,7.8L63.5,7.8L59,7.6l0,0l0,0l-0.7,2.3l0,0l0,0l0.5,0.3l0,0l0,0c0.2-0.6,0.4-1,0.7-1.2c0.2-0.2,0.5-0.3,0.8-0.3
				l0,0l-0.1,4.2c0,0.6-0.1,1-0.2,1.1c-0.1,0.1-0.2,0.2-0.5,0.2l0,0l0,0l0,0.9l0,0l0,0l2.6,0.1l0,0l0,0l0-0.9l0,0l0,0
				c-0.2,0-0.4-0.1-0.5-0.2c-0.1-0.2-0.1-0.5-0.1-1.1l0.1-4.2l0,0c0.3,0,0.6,0.1,0.8,0.4c0.2,0.2,0.4,0.6,0.6,1.2l0,0l0,0l0.5-0.3
				l0,0l0,0L63.5,7.8z M56.9,10.1c-0.1-0.6-0.1-1,0-1.1c0.1-0.2,0.2-0.2,0.4-0.3l0,0l0,0l-0.1-0.9l0,0l0,0l-2,0.2l0,0l0,0l0.1,0.9
				l0,0l0,0c0.2,0,0.4,0.1,0.5,0.2c0.1,0.1,0.2,0.5,0.2,1.1l0.2,1.8L54.1,8l0,0l0,0l-2.2,0.2l0,0l0,0l0.1,0.9l0,0l0,0
				c0.2,0,0.4,0,0.5,0.2c0.1,0.1,0.2,0.5,0.2,1.1l0.3,2.9c0.1,0.6,0.1,1,0,1.1c-0.1,0.2-0.2,0.2-0.4,0.3l0,0l0,0l0.1,0.9l0,0l0,0
				l2-0.2l0,0l0,0l-0.1-0.9l0,0l0,0c-0.2,0-0.4-0.1-0.5-0.2c-0.1-0.1-0.2-0.5-0.2-1.1l-0.3-3.3l3,5.3l0,0l0,0l1-0.1l0,0l0,0
				L56.9,10.1z M34.1,15.7c-0.8-0.3-1.6-0.1-2.5,0.4l-2.2,1.4l0,0l0,0l0.5,0.8l0,0l0,0c0.2-0.1,0.3-0.1,0.5-0.1
				c0.1,0.1,0.4,0.4,0.7,0.9l1.6,2.4c0.3,0.5,0.5,0.9,0.5,1c0,0.2-0.1,0.3-0.2,0.4l0,0l0,0l0.5,0.8l0,0l0,0l2.2-1.4
				c0.8-0.5,1.3-1.2,1.4-2.1c0.1-0.8-0.2-1.8-0.9-2.8C35.6,16.6,34.9,15.9,34.1,15.7z M35.2,21.7c-0.2,0.1-0.3,0.2-0.4,0.1
				c-0.1,0-0.2-0.2-0.5-0.6L32.2,18c-0.3-0.4-0.3-0.6-0.3-0.7c0-0.1,0.1-0.2,0.3-0.3c0.4-0.3,0.9-0.3,1.4,0c0.5,0.3,1,0.8,1.5,1.5
				c0.5,0.7,0.7,1.4,0.8,2C35.8,21,35.6,21.4,35.2,21.7z M75.8,17.2c-0.3-0.1-0.4-0.5-0.4-1.1c0,0,0,0,0,0c0,0,0.2-5.8,0.2-5.8l0,0
				l0,0l-1.2-0.4l0,0l0,0l-3,4.6c0,0,0,0.1-0.1,0.1c-0.4,0.6-0.8,0.9-1.1,0.8l0,0l0,0l-0.1,0.4l0.1-0.4l0,0l0,0
				c-0.2-0.1-0.3-0.1-0.4-0.3c-0.1-0.1-0.2-0.3-0.3-0.5c0,0-0.6-1.7-0.7-2c0.4-0.1,0.8-0.3,1-0.6c0.3-0.3,0.4-0.7,0.5-1.2
				c0.1-0.7,0-1.2-0.3-1.6c-0.3-0.4-0.8-0.7-1.6-0.8l-3-0.5l0,0l0,0l-0.2,0.9l0,0l0,0c0.2,0,0.4,0.1,0.4,0.3c0.1,0.2,0,0.5-0.1,1.1
				l-0.5,2.9c-0.1,0.6-0.2,0.9-0.3,1.1c-0.1,0.1-0.3,0.2-0.5,0.2l0,0l0,0l-0.2,0.9l0,0l0,0l2.6,0.4l0,0l0,0l0.2-0.9l0,0l0,0
				c-0.2,0-0.4-0.1-0.4-0.3c-0.1-0.2,0-0.5,0.1-1.1l0.1-0.9l0.5,0.1l1.1,3.5l0,0l0,0l1.6,0.3l0,0l0,0l2.1,0.7l0,0l0,0l0.3-0.9l0,0
				l0,0C72.2,16,72,16,72,15.9c-0.1-0.1-0.1-0.2,0-0.4c0,0,0-0.1,0-0.1c0,0,0-0.1,0.1-0.1c0,0,0.4-0.8,0.5-0.9l1.5,0.5l0,1
				c0,0,0,0.1,0,0.1c0,0.1,0,0.1,0,0.2c0,0.1-0.1,0.2-0.2,0.3c-0.1,0-0.2,0-0.4,0l-0.1,0l0,0l0,0L73,17.3l0,0l0,0l2.5,0.8l0,0l0,0
				L75.8,17.2L75.8,17.2L75.8,17.2z M68.2,11.4c-0.3,0.1-0.6,0.2-1.1,0.1c-0.1,0-0.1,0-0.2,0c0,0,0,0-0.1,0l0.2-1.3
				c0.1-0.4,0.1-0.6,0.2-0.7c0.1-0.1,0.3-0.1,0.5-0.1c0.3,0.1,0.6,0.2,0.8,0.4c0.2,0.2,0.2,0.5,0.2,0.9C68.6,11,68.5,11.2,68.2,11.4
				z M74.1,13.8l-0.9-0.3l1.1-1.7L74.1,13.8z"/>
			<path fill="#AB9021" d="M80.9,17.1L80.9,17.1L80.9,17.1c-0.5,0.5-1,0.8-1.4,1c-0.4,0.2-0.8,0.2-1,0.1c-0.2-0.1-0.3-0.2-0.3-0.3
				c0-0.1,0-0.3,0.2-0.8l1.3-2.9c0.3-0.6,0.4-0.9,0.6-1c0.1-0.1,0.3-0.1,0.5,0l0,0l0,0l0.4-0.8l0,0l0,0l-2.3-1l0,0l0,0l-0.4,0.8l0,0
				l0,0c0.2,0.1,0.3,0.2,0.3,0.4c0,0.2-0.1,0.5-0.4,1.1l-1.2,2.6c-0.3,0.6-0.5,0.9-0.6,1c-0.1,0.1-0.3,0.1-0.5,0l0,0l0,0l-0.4,0.8
				l0,0l0,0l3.7,1.7l0,0l0,0l1.7-2.1l0,0l0,0L80.9,17.1z"/>
			<path fill="#AB9021" d="M89.5,17.2l-2.1-1.5l0,0l0,0l-0.5,0.8l0,0l0,0c0.2,0.1,0.2,0.3,0.2,0.4c0,0.2-0.2,0.5-0.6,1l-1.7,2.4
				c-0.4,0.5-0.6,0.8-0.8,0.9c-0.1,0.1-0.3,0-0.5-0.1l0,0l0,0l-0.5,0.8l0,0l0,0l2.1,1.5c0.8,0.6,1.6,0.8,2.4,0.5
				c0.8-0.2,1.6-0.8,2.3-1.8c0.7-1,1.1-1.9,1-2.8C90.7,18.5,90.3,17.7,89.5,17.2z M85.6,22.5c-0.2-0.1-0.3-0.2-0.3-0.4
				c0-0.1,0.1-0.3,0.4-0.7l2.2-3.1c0.3-0.4,0.5-0.5,0.5-0.6c0.1,0,0.3,0,0.4,0.1c0.4,0.3,0.6,0.7,0.5,1.3c-0.1,0.6-0.3,1.2-0.9,1.9
				c-0.5,0.7-1,1.2-1.6,1.4C86.4,22.8,86,22.8,85.6,22.5z"/>
			<path fill="#AB9021" d="M93.6,27.3L93.6,27.3l-0.1-0.7l0-0.1l-0.1,0c-0.6,0.3-1.2,0.4-1.8,0.4c-0.5,0-0.9-0.1-1.2-0.4
				c-0.2-0.2-0.2-0.3-0.2-0.4c0-0.1,0.2-0.3,0.4-0.6l1.2-1.2l0.2,0.1c0.1,0.1,0.2,0.3,0.1,0.5c-0.1,0.2-0.2,0.5-0.5,0.8l0,0l0,0
				l0.4,0.4l0,0l0,0l2.4-2.5l0,0l0,0l-0.4-0.4l0,0l0,0c-0.3,0.3-0.6,0.5-0.8,0.6c-0.2,0-0.3,0-0.5-0.2l-0.2-0.1l0.7-0.8
				c0.3-0.3,0.5-0.5,0.6-0.5c0.1,0,0.3,0,0.4,0.2c0.3,0.3,0.4,0.6,0.5,1c0,0.4,0,1-0.2,1.6l0,0.1l0.1,0l0.6,0.1l0,0l0,0l1.1-2.1l0,0
				l0,0l-3.2-3l0,0l0,0l-0.6,0.7l0,0l0,0c0.2,0.2,0.2,0.3,0.2,0.5c0,0.2-0.3,0.5-0.7,0.9l-2,2.1c-0.4,0.4-0.7,0.7-0.9,0.7
				c-0.2,0-0.3,0-0.5-0.1l0,0l0,0l-0.6,0.7l0,0l0,0l3.3,3.1l0,0l0,0L93.6,27.3L93.6,27.3z M99.6,26.7L98,24.7l0,0l0,0l-0.7,0.6l0,0
				l0,0c0.1,0.2,0.2,0.3,0.1,0.5c-0.1,0.1-0.3,0.4-0.8,0.8l-2.2,1.8c-0.5,0.4-0.8,0.6-1,0.6c-0.2,0-0.3,0-0.4-0.2l0,0l0,0l-0.7,0.6
				l0,0l0,0l2.6,3.1l0,0l0,0l2.5-1.1l0,0v0l0-0.7v-0.1l-0.1,0c-0.6,0.2-1.2,0.3-1.7,0.3c-0.5,0-0.8-0.1-1-0.4
				c-0.1-0.1-0.2-0.3-0.1-0.4c0-0.1,0.1-0.2,0.5-0.6l2.5-2.1c0.5-0.4,0.8-0.6,1-0.6c0.2,0,0.3,0,0.4,0.2l0,0l0,0L99.6,26.7
				L99.6,26.7L99.6,26.7z"/>
			<path fill="#AB9021" d="M105.7,36.2l-2.1-3.9l0,0l0,0l-0.8,0.4l0,0l0,0c0.1,0.2,0.1,0.4,0,0.5c-0.1,0.1-0.4,0.4-0.9,0.6l-2.6,1.4
				c-0.5,0.3-0.9,0.4-1.1,0.4c-0.2,0-0.3-0.1-0.4-0.3l0,0l0,0L97,35.9l0,0l0,0l2.1,4l0,0l0,0l2.7-0.5l0,0l0,0l0.1-0.6l0-0.1l-0.1,0
				c-0.7,0.1-1.3,0-1.8-0.2c-0.5-0.2-0.8-0.4-1-0.8c-0.1-0.2-0.1-0.4-0.1-0.5c0.1-0.1,0.3-0.3,0.6-0.5l1.5-0.8l0.1,0.2
				c0.1,0.2,0.1,0.4,0,0.5c-0.1,0.2-0.4,0.4-0.7,0.6l0,0l0,0l0.3,0.5l0,0l0,0l3-1.6l0,0l0,0l-0.3-0.5l0,0l0,0
				c-0.4,0.2-0.7,0.3-0.9,0.3c-0.2,0-0.3-0.1-0.4-0.4c0,0-0.1-0.1-0.1-0.2l0.9-0.5c0.4-0.2,0.6-0.3,0.7-0.3c0.1,0,0.2,0.1,0.3,0.3
				c0.2,0.3,0.2,0.7,0.1,1.1c-0.1,0.4-0.3,0.9-0.7,1.4l0,0l0,0L104,38l0,0l0,0L105.7,36.2L105.7,36.2L105.7,36.2z"/>
			<path fill="#AB9021" d="M103.7,45.4L103.7,45.4l0.2-0.8l0-0.1l-0.1,0c-0.5,0-1-0.1-1.4-0.3c-0.4-0.2-0.6-0.4-0.8-0.7
				c-0.2-0.4-0.1-0.9,0.3-1.3c0.4-0.4,1-0.8,1.8-1.1c0.8-0.3,1.5-0.4,2.1-0.4c0.6,0.1,0.9,0.3,1.1,0.7c0.1,0.3,0.1,0.7-0.2,1.1
				c-0.2,0.4-0.6,0.8-1.1,1.2l0,0l0,0l0.4,0.4l0,0l0,0l2.4-1.6l0,0l0,0l-0.1-0.4l0,0l0,0l-0.4,0.1c0.1-0.2,0.1-0.5,0.1-0.7
				c0-0.2,0-0.4-0.1-0.6c-0.3-0.8-0.9-1.2-1.7-1.5c-0.9-0.2-1.9-0.1-2.9,0.3c-1.1,0.4-2,1-2.5,1.8c-0.5,0.7-0.6,1.5-0.3,2.3
				c0.2,0.6,0.6,1,1.1,1.3C102.1,45.3,102.8,45.5,103.7,45.4L103.7,45.4z M110.3,50.2l-0.4-1.9l0,0l0,0l-0.9,0.2l0,0l0,0
				c0,0.2,0,0.4-0.1,0.5c-0.1,0.1-0.5,0.2-1.1,0.4l-2.5,0.6c-0.5,0.1-1,0.1-1.3,0c-0.3-0.1-0.5-0.4-0.6-0.7c-0.1-0.3,0-0.6,0.2-0.8
				c0.2-0.2,0.5-0.4,1-0.5l2.7-0.6c0.6-0.1,0.9-0.2,1.1-0.1c0.2,0,0.3,0.2,0.3,0.4l0,0l0,0l0.9-0.2l0,0l0,0l-0.6-2.5l0,0l0,0
				l-0.9,0.2l0,0l0,0c0,0.2,0,0.4-0.1,0.5c-0.1,0.1-0.5,0.2-1.1,0.4l-2.7,0.6c-0.9,0.2-1.5,0.5-1.8,1c-0.3,0.5-0.4,1-0.3,1.8
				c0.2,0.7,0.5,1.2,1.1,1.4c0.6,0.2,1.4,0.2,2.4,0l2.3-0.5c0.6-0.1,0.9-0.2,1.1-0.1c0.2,0,0.3,0.2,0.3,0.4l0,0l0,0L110.3,50.2
				L110.3,50.2L110.3,50.2z"/>
			<path fill="#AB9021" d="M103.1,54.3L103.1,54.3L103.1,54.3l1,0l0,0l0,0c0-0.2,0-0.4,0.1-0.4c0.1-0.1,0.2-0.1,0.4-0.1
				c0,0,0.1,0,0.1,0c0,0,0.1,0,0.1,0c0,0,0.8,0.1,1,0.1l0.1,1.5l-1,0.4c0,0-0.1,0-0.1,0c-0.1,0-0.1,0-0.2,0c-0.1,0-0.2,0-0.3-0.1
				c-0.1-0.1-0.1-0.2-0.1-0.4l0-0.1l0,0l0,0l-0.9,0.1l0,0l0,0l0.2,2.6l0,0l0,0l0.9-0.1l0,0l0,0c0-0.3,0.3-0.5,0.9-0.8c0,0,0,0,0,0
				c0,0,5.5-2,5.5-2l0,0l0,0l-0.1-1.2l0,0l0,0l-5.4-1c0,0-0.1,0-0.1,0c-0.7-0.1-1.1-0.4-1.2-0.7l0,0l0,0l-0.9,0.1l0,0l0,0
				L103.1,54.3z M108.8,54.3l-1.9,0.6l-0.1-1L108.8,54.3z M111,58.4l-0.9,0l0,0l0,0c0,0.2-0.1,0.4-0.2,0.4c-0.1,0.1-0.5,0.1-1.1,0.1
				l-2.9-0.1c-0.6,0-1-0.1-1.1-0.2c-0.1-0.1-0.2-0.2-0.2-0.4v0l0,0l-0.9,0l0,0l0,0l-0.1,2.6c0,1,0.2,1.8,0.9,2.3
				c0.6,0.6,1.6,0.9,2.8,0.9c1.2,0.1,2.2-0.2,2.9-0.7c0.7-0.5,1-1.3,1.1-2.2L111,58.4L111,58.4L111,58.4z M109.2,62.1
				c-0.5,0.3-1.2,0.4-2.1,0.3c-0.9,0-1.6-0.2-2-0.5c-0.5-0.3-0.7-0.7-0.7-1.2c0-0.2,0.1-0.4,0.2-0.4c0.1,0,0.3-0.1,0.8-0.1l3.8,0.2
				c0.5,0,0.7,0.1,0.8,0.1c0.1,0.1,0.1,0.2,0.1,0.4C109.9,61.5,109.7,61.8,109.2,62.1z M106.9,65.1c-1.2-0.2-2.2-0.1-3,0.2
				c-0.8,0.4-1.3,1-1.5,1.9c-0.2,0.8,0.1,1.6,0.7,2.3c0.6,0.7,1.5,1.1,2.7,1.3c1.2,0.2,2.2,0.1,3-0.2c0.8-0.4,1.3-1,1.5-1.9
				c0.2-0.8-0.1-1.6-0.7-2.3C108.9,65.7,108,65.3,106.9,65.1z M109.2,68.5c-0.1,0.4-0.4,0.7-0.9,0.8c-0.6,0.1-1.3,0.1-2.2-0.1
				c-0.9-0.2-1.6-0.4-2.1-0.8c-0.5-0.3-0.6-0.7-0.6-1.1c0.1-0.4,0.4-0.7,0.9-0.8c0.6-0.1,1.3-0.1,2.2,0.1c0.9,0.2,1.6,0.4,2.1,0.8
				C109.1,67.7,109.3,68.1,109.2,68.5z M108.2,72.7L108.2,72.7L108.2,72.7c-0.1,0.2-0.3,0.4-0.4,0.4c-0.2,0-0.5-0.1-1.1-0.2l-2.7-1
				c-0.6-0.2-0.9-0.4-1-0.5c-0.1-0.1-0.1-0.3-0.1-0.5l0,0l0,0l-0.9-0.3l0,0l0,0l-0.9,2.5l0,0l0,0l0.9,0.3l0,0l0,0
				c0.1-0.2,0.2-0.3,0.4-0.4c0.2,0,0.5,0.1,1.1,0.2l0.9,0.3l-0.2,0.4l-3.6,0.5l0,0l0,0l-0.6,1.6l0,0l0,0l0.9,0.3l0,0l0,0
				c0.1-0.2,0.2-0.3,0.3-0.4c0.1-0.1,0.3-0.2,0.6-0.2l2.1-0.4c0,0.4,0.2,0.8,0.4,1.1c0.2,0.3,0.6,0.5,1.1,0.7c0.7,0.2,1.2,0.2,1.7,0
				c0.4-0.2,0.8-0.7,1-1.4l1-2.9l0,0l0,0L108.2,72.7z M107.3,75.2c-0.1,0.3-0.3,0.5-0.5,0.7c-0.2,0.1-0.5,0.1-0.9,0
				c-0.4-0.1-0.6-0.3-0.7-0.6c-0.1-0.3-0.1-0.7,0.1-1.1c0-0.1,0-0.1,0.1-0.2c0,0,0,0,0-0.1l1.3,0.4c0.4,0.1,0.6,0.2,0.7,0.4
				C107.3,74.9,107.3,75,107.3,75.2z"/>
			<g>
				<path fill="#AB9021" d="M46.3,100.4l-0.1,0l-0.5-0.2l-0.1,0l0,0.1l-0.6,1.6c-0.1,0.2-0.1,0.3-0.2,0.3c-0.1,0.1-0.1,0.1-0.3,0.1
					c-0.2-0.1-0.2-0.2-0.2-0.2c0-0.1,0-0.2,0.1-0.4l0.6-1.6l0-0.1l-0.1,0l-0.5-0.2l-0.1,0l0,0.1l-0.6,1.6c-0.1,0.3-0.1,0.6-0.1,0.8
					c0.1,0.4,0.3,0.7,0.8,0.8c0.5,0.2,0.8,0.1,1.1-0.2c0.2-0.1,0.3-0.4,0.4-0.7l0.6-1.6L46.3,100.4z M43.6,99.4l-0.1-0.1l-1.7-0.7
					l-0.1-0.1l-0.1,0.1l-1.1,2.6l-0.1,0.1l0.1,0.1l0.5,0.2l0.1,0.1l0.1-0.1l0.4-1l0.9,0.4l0.1,0.1l0.1-0.1l0.2-0.4l0.1-0.1l-0.1-0.1
					L42,100l0.2-0.4l1,0.5l0.1,0.1l0.1-0.1l0.2-0.5L43.6,99.4z M49.1,101.2l-0.5-0.1l-0.1,0l0,0.1l-0.4,1.4l-0.3-1.6l0-0.1l-0.1,0
					l-0.5-0.1l-0.1,0l0,0.1l-0.8,2.7l0,0.1l0.1,0l0.5,0.1l0.1,0l0-0.1l0.4-1.4l0.4,1.7l0,0.1l0.1,0l0.5,0.1l0.1,0l0-0.1l0.8-2.7
					l0-0.1L49.1,101.2z"/>
				<path fill="#AB9021" d="M54.5,102.3L54.5,102.3l-0.1-0.1l-0.6-0.1l-0.1,0l0,0.1l-1.3,2.7l-0.1,0.2l0.2,0l0.5,0.1l0.1,0l0-0.1
					l0.2-0.5l0.7,0.1l0.1,0.5l0,0.1l0.1,0l0.6,0.1l0.2,0l0-0.2L54.5,102.3z M53.7,103.8l0.2-0.5l0.1,0.5L53.7,103.8z M51.6,101.8
					c-0.1-0.1-0.2-0.1-0.4-0.2c0,0-1.1-0.2-1.1-0.2l-0.1,0l0,0.1l-0.6,2.8l0,0.1l0.1,0l1.1,0.2c0.4,0.1,0.8,0,1.1-0.4
					c0.2-0.2,0.3-0.6,0.4-0.9c0-0.2,0-0.3,0-0.5c0-0.2,0-0.4-0.1-0.5C51.9,102.1,51.8,101.9,51.6,101.8z M51.2,103.2
					c0,0.2-0.1,0.3-0.2,0.5c-0.2,0.3-0.3,0.3-0.5,0.2l-0.3-0.1l0.3-1.5l0.3,0.1c0.3,0.1,0.3,0.2,0.3,0.2
					C51.3,102.7,51.3,102.9,51.2,103.2z M58.1,103c-0.1-0.2-0.3-0.4-0.5-0.4c-0.1-0.1-0.3-0.1-0.4-0.1c0,0-1.1-0.1-1.1-0.1l-0.1,0
					l0,0.1l-0.2,2.8l0,0.1l0.1,0l1.1,0.1c0.4,0,0.8-0.2,1-0.5c0.2-0.3,0.3-0.6,0.3-1c0-0.2,0-0.3,0-0.5
					C58.2,103.3,58.2,103.1,58.1,103z M57.5,104c0,0.2,0,0.4-0.1,0.5c-0.1,0.3-0.3,0.3-0.4,0.3l-0.4,0l0.1-1.6l0.4,0
					c0.3,0,0.3,0.1,0.4,0.2C57.5,103.5,57.5,103.7,57.5,104z M60.6,102.6L60.6,102.6l-0.1-0.1l-0.6,0l-0.1,0l0,0.1l-0.9,2.8
					l-0.1,0.2l0.2,0l0.6,0l0.1,0l0-0.1l0.1-0.5l0.7,0l0.1,0.5l0,0.1h0.1l0.6,0l0.2,0l-0.1-0.2L60.6,102.6z M60,104.3l0.1-0.5
					l0.1,0.5L60,104.3z M66,104.6l0-0.1l-0.1,0l-1.3,0.1l0-0.5l1.1-0.1l0.1,0l0-0.1l-0.1-0.5l0-0.1l-0.1,0l-1.1,0.1l0-0.3l1.2-0.1
					l0.1,0l0-0.1l-0.1-0.5l0-0.1l-0.1,0l-1.9,0.2l-0.1,0l0,0.1l0.3,2.8l0,0.1l0.1,0l1.9-0.2l0.1,0l0-0.1L66,104.6z M69.1,104.5
					l-0.5-2.8l0-0.1l-0.1,0l-0.5,0.1l-0.1,0l0,0.1l0.2,1.4l-1-1.3l0-0.1l-0.1,0l-0.5,0.1l-0.1,0l0,0.1l0.5,2.8l0,0.1l0.1,0l0.5-0.1
					l0.1,0l0-0.1l-0.3-1.4l1,1.4l0,0.1l0.1,0l0.5-0.1l0.1,0L69.1,104.5z"/>
				<path fill="#AB9021" d="M72.1,100.9l0-0.1l-0.1,0l-0.4,0.1l-0.1,0l0,0.1c0,0,0,0,0,0.1c0,0.1,0,0.1,0,0.2c0,0.1-0.1,0.1-0.1,0.1
					c0,0-0.1,0.1-0.3,0.1l-0.1,0l0,0.1l0.1,0.4l0,0.1l0.1,0l0.4-0.1l0.5,1.7l0,0.1l0.1,0l0.5-0.1l0.1,0l0-0.1L72.1,100.9z
					 M75.1,101.2c-0.2-0.1-0.5-0.2-0.7-0.1c-0.1,0-0.2,0.1-0.3,0.2c0-0.1,0-0.1,0-0.1c0-0.2,0.1-0.2,0.1-0.3c0.1,0,0.1,0,0.1,0
					c0,0,0,0.1,0.1,0.1l0,0.1l0.1,0l0.5-0.2l0.1,0l-0.1-0.1c-0.1-0.2-0.3-0.4-0.5-0.5c-0.2-0.1-0.4-0.1-0.7,0
					c-0.2,0.1-0.3,0.2-0.4,0.3c-0.1,0.1-0.2,0.3-0.2,0.5c0,0.2,0,0.4,0,0.7c0,0.1,0.1,0.3,0.1,0.5c0.1,0.4,0.3,0.6,0.5,0.8
					c0.3,0.3,0.6,0.3,0.9,0.2c0.3-0.1,0.5-0.3,0.6-0.6c0.1-0.3,0.1-0.5,0-0.8C75.4,101.5,75.3,101.3,75.1,101.2z M74.9,102.4
					c0,0.1-0.1,0.1-0.1,0.1c-0.1,0-0.1,0-0.2,0c-0.1,0-0.1-0.1-0.2-0.2c0-0.1,0-0.2,0-0.3c0,0,0.1-0.1,0.1-0.1c0.1,0,0.1,0,0.2,0
					c0.1,0,0.1,0.1,0.2,0.2C74.9,102.2,74.9,102.3,74.9,102.4z M77.4,100.2c-0.2-0.1-0.5-0.1-0.7,0c-0.1,0-0.2,0.1-0.2,0.1l-0.1-0.2
					l0.8-0.3l0.1,0l0-0.1l-0.2-0.4l0-0.1l-0.1,0l-1.3,0.5l-0.1,0l0,0.1l0.4,1.5l0,0.1l0.1,0l0.4-0.1l0.1,0l0-0.1
					c0-0.1,0-0.1,0.1-0.1c0,0,0.1,0,0.1-0.1c0.1,0,0.1,0,0.2,0c0.1,0.1,0.1,0.1,0.2,0.2c0,0.1,0.1,0.2,0,0.3c0,0.1-0.1,0.1-0.1,0.1
					c-0.1,0-0.1,0-0.1,0c-0.1,0-0.1-0.1-0.2-0.2l-0.1-0.1l-0.1,0l-0.5,0.2l-0.1,0.1l0.1,0.1c0.1,0.3,0.3,0.4,0.5,0.5
					c0.2,0.1,0.5,0.1,0.7,0c0.3-0.1,0.5-0.3,0.6-0.6c0.1-0.3,0-0.5-0.1-0.8C77.8,100.5,77.6,100.3,77.4,100.2z M80.2,100.8L79,98.3
					L79,98.2l-0.1,0.1l-0.4,0.2l-0.1,0.1l0.1,0.1c0,0,0,0,0,0.1c0,0.1,0,0.1,0,0.2c0,0.1-0.1,0.1-0.1,0.2c0,0-0.1,0.1-0.3,0.2
					L78,99.2l0.1,0.1l0.2,0.3l0.1,0.1l0.1-0.1l0.4-0.2l0.8,1.6l0.1,0.1l0.1-0.1l0.5-0.2l0.1-0.1L80.2,100.8z"/>
			</g>
			<g>
				<path fill="#AB9021" d="M52.3,109.8l-0.4,1.2c-0.8-0.1-1.9-0.2-2.3-0.2c-1.1-0.2-2-1.1-1.7-2.8c0.3-1.7,1.5-2.2,2.6-2
					c1.1,0.2,2,1.1,1.7,2.8c0,0.2-0.3,0.8-0.6,1l0,0L52.3,109.8z M49.3,108.2c-0.1,0.7,0.2,1.2,0.6,1.3c0.4,0.1,0.9-0.3,1-1
					c0.1-0.7-0.2-1.2-0.6-1.3C49.9,107.2,49.5,107.5,49.3,108.2z"/>
				<path fill="#AB9021" d="M55.5,106.8l-0.2,2.6c0,0.5,0,0.9,0.4,0.9c0.4,0,0.5-0.3,0.5-0.8l0.2-2.6l1.4,0.1l-0.3,3.3
					c-0.1,0.7-0.7,1.4-2,1.3c-1.3-0.1-1.8-0.9-1.7-1.6l0.3-3.3L55.5,106.8z"/>
				<path fill="#AB9021" d="M59.4,107l1.4,0l0,4.7l-1.4,0L59.4,107z"/>
				<path fill="#AB9021" d="M62.1,106.9l3.6-0.3l0.1,1.2l-1.1,0.1l0.3,3.5l-1.4,0.1l-0.3-3.5l-1.1,0.1L62.1,106.9z"/>
				<path fill="#AB9021" d="M71.4,108c0.3,1.7-0.6,2.6-1.7,2.8c-1.1,0.2-2.3-0.3-2.6-2c-0.3-1.7,0.6-2.6,1.7-2.8
					C69.9,105.8,71.1,106.3,71.4,108z M68.5,108.6c0.1,0.7,0.6,1.1,1,1c0.4-0.1,0.7-0.6,0.6-1.3c-0.1-0.7-0.6-1.1-1-1
					C68.6,107.4,68.3,107.9,68.5,108.6z"/>
			</g>
			<g>
				<polygon fill="#AB9021" points="62.4,22.8 62.9,23.8 63.9,23.9 63.2,24.6 63.4,25.6 62.5,25.1 61.5,25.7 61.8,24.6 61,23.9 
					62,23.8 				"/>
				<polygon fill="#AB9021" points="66.7,23.7 67.2,24.6 68.1,24.7 67.5,25.5 67.7,26.5 66.8,26 65.8,26.5 66,25.5 65.2,24.7 
					66.2,24.6 				"/>
				<polygon fill="#AB9021" points="70.5,25.3 71.1,26.2 72,26.4 71.3,27.1 71.5,28.1 70.6,27.6 69.6,28.2 69.9,27.1 69.1,26.4 
					70.1,26.2 				"/>
				<polygon fill="#AB9021" points="73.4,28.2 73.9,29.1 74.8,29.2 74.2,29.9 74.4,31 73.5,30.5 72.5,31 72.8,29.9 72,29.2 73,29.1 
									"/>
				<polygon fill="#AB9021" points="71.3,35.1 71.8,36.1 72.7,36.2 72,36.9 72.3,37.9 71.4,37.4 70.3,38 70.6,36.9 69.8,36.2 
					70.8,36.1 				"/>
				<polygon fill="#AB9021" points="73.8,31.8 74.3,32.8 75.2,32.9 74.5,33.6 74.8,34.7 73.8,34.2 72.8,34.7 73.1,33.6 72.3,32.9 
					73.3,32.8 				"/>
				<polygon fill="#AB9021" points="67.1,37.3 67.6,38.2 68.5,38.4 67.8,39.1 68.1,40.1 67.1,39.6 66.1,40.1 66.4,39.1 65.6,38.4 
					66.6,38.2 				"/>
				<polygon fill="#AB9021" points="62.4,38.4 62.9,39.4 63.9,39.5 63.2,40.2 63.4,41.2 62.5,40.7 61.5,41.3 61.8,40.2 61,39.5 
					62,39.4 				"/>
				<polygon fill="#AB9021" points="57.6,38.5 58.1,39.4 59.1,39.5 58.4,40.3 58.6,41.3 57.7,40.8 56.7,41.3 57,40.3 56.2,39.5 
					57.2,39.4 				"/>
				<polygon fill="#AB9021" points="52.7,37.2 53.2,38.2 54.1,38.3 53.5,39 53.7,40 52.8,39.5 51.8,40.1 52,39 51.2,38.3 52.2,38.2 
									"/>
				<polygon fill="#AB9021" points="48.6,35.1 49.1,36.1 50,36.2 49.3,36.9 49.6,37.9 48.6,37.4 47.6,38 47.9,36.9 47.1,36.2 
					48.1,36.1 				"/>
				<polygon fill="#AB9021" points="46,32.2 46.5,33.1 47.4,33.3 46.8,34 47,35 46.1,34.5 45.1,35 45.4,34 44.5,33.3 45.6,33.1 				
					"/>
				<polygon fill="#AB9021" points="46.7,28.4 47.2,29.3 48.1,29.4 47.5,30.1 47.7,31.2 46.8,30.7 45.8,31.2 46.1,30.1 45.3,29.4 
					46.3,29.3 				"/>
				<polygon fill="#AB9021" points="49.4,25.5 49.9,26.4 50.8,26.6 50.1,27.3 50.4,28.3 49.5,27.8 48.5,28.4 48.7,27.3 47.9,26.6 
					48.9,26.4 				"/>
				<polygon fill="#AB9021" points="53.3,23.7 53.8,24.6 54.8,24.7 54.1,25.5 54.3,26.5 53.4,26 52.4,26.5 52.7,25.5 51.9,24.7 
					52.9,24.6 				"/>
				<polygon fill="#AB9021" points="57.7,22.8 58.2,23.8 59.1,23.9 58.4,24.6 58.7,25.6 57.8,25.1 56.8,25.7 57,24.6 56.2,23.9 
					57.2,23.8 				"/>
			</g>
			<path fill="#AB9021" d="M89.1,65.6c-0.5,4.5-2.5,8.4-4.8,12.2c-2.4,2.2-1.7,5-2.7,6.9l-2.2,5.4l-0.7-4.4c-1,0.6-1.8,1.4-3,2
				c2.1-4.8,3-10.1,3.2-15.6c0.1-1.5,2-0.8,2.8-0.8c0.2,0.2,0.5,0.1,0.7,0.1c2.5-6.2,2.8-12.7-0.4-17.8c-1.4-2-3-4-5.3-4.9
				c0,0,0,31.9,0,33c0,1.1-1.1,2.4-2.4,2.5c0,0-12-0.1-12-0.1c-1.4,0.2-2,2.4-2.4,3.7c-0.6-1.7-0.6-2.6-2.5-3.7c-3.9,0-8.1,0-12,0
				C44.2,84,43,82.9,42.9,82c0-1.3,0-33.3,0-33.3c-1.4,0-2.5,1.4-3.6,2.3c-2.4,2.5-5.7,11.3-1.9,20.4c1.2-0.3,3-0.8,3.7,0.8
				c0,5.7,0.7,10.2,3.1,14.9c0.1,0.2,0.4,0.4,0.3,0.7l-3.3-2c-0.4,1.4-0.2,3.1-0.7,4.4c-1.9-3.5-3.2-7.5-3.7-11.6
				c-3.2-2.2-4-6.3-5.4-9.8c-1.9-7.3-1.4-14.8,4.5-20.6c1.4-1.6,3.5-2.6,5.5-3.4c0-1.4-0.5-2.6-0.3-4.4c11.2,3.7,25.7,4,36.8-0.3
				c0.4-0.1,0.5-0.3,1-0.3c-0.2,0.6-0.1,1.8-0.1,2.3l0,2c0.2,0.7,2.3,1.5,2.9,1.8c5.2,3.3,7.8,9.8,7.7,15.2L89.1,65.6z"/>
			<path fill="#FFFFFF" stroke="#FFFFFF" stroke-width="0" stroke-linecap="square" stroke-miterlimit="2" d="M46.9,46.6l-0.3,0.7
				L44,46C45.1,46.3,45.6,46.4,46.9,46.6z"/>
			<path fill="#FFFFFF" stroke="#FFFFFF" stroke-width="0" stroke-linecap="square" stroke-miterlimit="2" d="M72.6,46.4
				c0,0,2.2-0.4,3-0.8c-0.7,0.5-2.6,1.6-2.6,1.6L72.6,46.4z"/>
			<path fill="#0080C8" d="M71.8,46.6l1,1.6l-26.2,0l0.7-1.4C55.3,48,64,48,71.8,46.6z"/>
			<polygon fill="#FFDC00" points="76,48.7 76,63.9 43.6,64 43.6,48.8 			"/>
			<path fill="#009540" d="M76,81.3c0,1.7-1.2,2.1-2.5,2.1l-11.6,0c-0.8,0.3-1.5,1-1.9,1.8c-0.4-0.8-1-1.7-2-1.7
				c-1.6-0.1-7.3,0-12.6-0.1c-0.9-0.1-1.8-0.9-1.8-1.9c0-1,0-16.5,0-16.5L76,65C76,65,76,80.4,76,81.3z"/>
			<path fill="#AB9021" d="M72.8,76.2c0.6-0.5,1-1.4-0.1-1.6c-0.4-0.1-1-0.1-2-0.1l-1.1,0c0.5-1.8,1.4-4.3,1-5.9
				c-0.1-1,1.7-2.3,1.3-3.4c-1.2,0.4-1.1,2.6-1.9,3.3c-2.1,1.6-3.3,3.7-5.7,5.8c-1.1,0-1.7,0-3.2,0c0.2,0.3,0.8,0.7,1.1,0.9
				c0.7,0.5,2-0.3,1.4,0.1c-0.4,0.1-0.5,0.4-0.8,0.5c-2.4-2.5-6-3.9-9-5.8c-2.6-1.1-4.7-3.3-7.6-3.4c1.1,1,2.1,2.1,3.5,3.6
				c2.6,1.9,4.7,3.6,7.4,4.6c-1.8,1.1-3.8,1.5-5.6,2.3c0.4,0.6,0,2.5-0.6,3.1l15.9,0.1l0,0c-0.3,1.4-0.1,0.7-0.6,2.8
				c1.1-2.3,0.9-1.3,1.3-2.9c0.6-0.4,1-0.7,1.8-1.2C69.2,78.9,71.5,77.3,72.8,76.2z"/>
			<path fill="#FFFFFF" stroke="#FFFFFF" stroke-width="0" stroke-linecap="square" stroke-miterlimit="2" d="M39.6,75.4
				c-1-0.7-1.5-1.9-1.9-3c0.3-0.4,0.9-0.6,1.4-0.5L39.6,75.4z"/>
			<path fill="#009540" d="M65.5,74.3c1.4-1.7,4.3-4.6,4.3-4.6C70,71,69,73,68.7,74.4c-1.6,0-1-0.1-2.5-0.1H65.5z"/>
			<path fill="#FFFFFF" stroke="#FFFFFF" stroke-width="0" stroke-linecap="square" stroke-miterlimit="2" d="M68.5,75.1
				c-0.5,1.4-0.2,0.8-0.7,1.8c-1.5,0-2.2,0-3.6-0.1c-0.1,0,0-0.3-0.2-0.3c0.1-0.1-0.2-0.2-0.2-0.2c0.4-0.4,0.4-0.6,0.8-1
				c0,0,0,0,0.2-0.2C64.8,75.1,68,75.2,68.5,75.1z"/>
			<path fill="#FFFFFF" stroke="#FFFFFF" stroke-width="0" stroke-linecap="square" stroke-miterlimit="2" d="M40.5,72.7
				c-0.3,5.2,0.8,9.8,2.8,14l-2.5-1.4c-0.4,1.1-0.3,2.4-0.4,3.6c-1.7-3.2-2.5-6.6-3.1-10.3c0.9-1,3.8-1.9,2.7-4
				c-0.1-0.8-0.6-1.7-0.2-2.5C40.3,71.9,40.3,72.5,40.5,72.7z"/>
			<path fill="#FFFFFF" stroke="#FFFFFF" stroke-width="0" stroke-linecap="square" stroke-miterlimit="2" d="M55.3,72.8
				c-0.2,0.2-0.7,0.1-1.1-0.1L52.9,72C53.2,71.6,55,72.5,55.3,72.8z"/>
			<path fill="#FFFFFF" stroke="#FFFFFF" stroke-width="0" stroke-linecap="square" stroke-miterlimit="2" d="M81.9,71.8
				c0.3,1.3-0.9,1.9-1.5,3.6l0.3-3.6L81.9,71.8z"/>
			<path fill="#FFFFFF" stroke="#FFFFFF" stroke-width="0" stroke-linecap="square" stroke-miterlimit="2" d="M79.9,71.8
				c0.5,1.4-0.2,2.6-0.3,3.9l2.6,2.9c-0.2,3.7-1.4,7-2.7,10.2c-0.1-1.5,0.1-2.5-0.4-4l-2.4,1.6c1.7-4.3,2.6-9,2.5-14
				C79.2,72.2,79.5,71.7,79.9,71.8z"/>
			<path fill="#FFFFFF" stroke="#FFFFFF" stroke-width="0" stroke-linecap="square" stroke-miterlimit="2" d="M59.6,74.8
				c0.9,1.2-2.6-0.7-3.2-0.8C57.5,73.8,57.7,73.9,59.6,74.8z"/>
			<path fill="#FFFFFF" stroke="#FFFFFF" stroke-width="0" stroke-linecap="square" stroke-miterlimit="2" d="M61.2,75.8
				c1.2,1.2,1.3,1-0.1,1l-7.4,0c1.5-0.5,2.1-0.8,3.3-1.4c0.2-0.1,0.7-0.3,0.9-0.4c0.3,0.1,1.3,0.2,1.9,1L61.2,75.8z"/>
			<path fill="#FFFFFF" stroke="#FFFFFF" stroke-width="0" stroke-linecap="square" stroke-miterlimit="2" d="M68.9,76.5
				c0.4-0.8,0.5-1,0.6-1.3c0.6,0.1,0.7-0.1,1.2,0C70.8,75.3,68.9,76.5,68.9,76.5z"/>
			<path fill="#FFFFFF" stroke="#FFFFFF" stroke-width="0" stroke-linecap="square" stroke-miterlimit="2" d="M63.7,76.8l0.7,0.8
				c-0.5-0.1-1.2-0.4-1.9-0.7C62.3,76.3,63.9,76.1,63.7,76.8z"/>
			<path fill="#AB9021" d="M58.4,49.2c-1,1.8,1,3.3-0.6,5L56.2,52c-0.4,1,0.2,2.4-0.8,3.3c-0.1-0.2-0.1-0.4-0.3-0.6
				c-1.2,1.2-0.2,4.4-3.2,3.6c-0.1,0.8-0.3,1.3-0.8,2c-0.2,0.5,0.4,0.8,0.7,1c0.7,0.1,1.2-1,1.8-0.2c-0.2,0.5-1.2,1.3-0.4,1.8
				c0.4,0.3,1,0.7,1.4,0.1c1.3-1.8,3.3,0.1,5-0.1c2,0.5,3.8-1.9,5.3,0.3c0.6,0.2,1.1-0.3,1.2-0.7c-0.2-0.4-0.1-1-0.7-1.1l-0.2,0
				c0.9-1.8,3.1,1.4,2.8-1.5c-0.8-0.2-0.3-0.7-0.5-1.3c-0.4-0.5-1-0.7-1.6-0.8c0.3-2.3-0.1-4.9-0.5-7c-1.2,0.6,0.1,2.7-0.9,3.6
				c-0.4-1.7-1.7-3.3-1.3-5.2c-0.5,0-0.7,0.7-0.8,1l0.4,3.5c-0.6-0.6-0.8-1.8-1.1-2.5c-0.6,0.8,0.1,2.1-0.5,2.9
				c0.1-0.6-0.1-1-0.5-1.4l-1.1,2c0.3-1.4,1.2-3,0.2-4.3L59.4,50l-0.3,0.3c-0.1-0.5-0.4-0.9-0.5-1.4L58.4,49.2z"/>
			<path fill="#E20613" d="M58.5,50.1c0,0,0.6,0.5,0.5,1c-0.1,0.6,0.2,0.8,0.1,1.3c-0.1,0.5-0.7,1.6-0.4,0.8
				C59.2,52,58.5,50.1,58.5,50.1z"/>
			<path fill="#E20613" d="M59.8,58.3L59,57.4c-0.3,0.8-0.5,2.4-0.2,3.3l0.2,0c-0.2,0.6-0.5,0.2-0.9,0.3l0-0.3
				c-0.4-0.4-0.3,0.8-0.7,0.2c0.1-1.7-0.3-3.5-1-5l-0.9,3.7c-0.8-0.7-0.7-1.9-0.8-2.9c0.3,0.4,0,1.2,0.6,1.4c0-1.7,0.8-3.2,1.4-4.6
				c0.9,1.1-0.4,2.7,0.7,3.5c-0.1-2.1,1.6-3.5,2.4-5.2C60,53.8,58.3,56.2,59.8,58.3z"/>
			<path fill="#E20613" d="M64.2,57.5c0.8-0.7,0.4-1.9,1.1-2.5l0,2L65,56.7c-0.5,0.8-0.7,2-0.3,3c-1.1,0.1-1.9,1.2-3.1,0.7
				c-0.3,0.4-1.1,0.6-1.2,0.3c-0.3-2.6,1.2-4.9,1.8-7.4c0.8,0.8,0.1,2.1,0.5,3.1c0.6-1.2,1.1-2.5,0.6-4
				C64.4,53.7,64.1,55.8,64.2,57.5z"/>
			<path fill="#E20613" d="M59.9,57.3c-0.2-1,0.2-1.7,0.6-2.4C60.9,55.5,60.1,56.6,59.9,57.3z"/>
			<path fill="#E20613" d="M56.9,59.8l-0.7,0.1c-0.3-0.7,0-1.5,0.2-2.1C56.9,58.2,57,59,56.9,59.8z"/>
			<polygon fill="#E20613" points="59.1,59.7 59.4,58.7 59.5,58.8 			"/>
			<path fill="#E20613" d="M64.9,58.7c0,0-0.4-0.2,0.4-0.9c0.8-0.8,0,0.6,0,0.6l-0.4,0.9L64.9,58.7z"/>
			<path fill="#FFFFFF" stroke="#FFFFFF" stroke-width="0" stroke-linecap="square" stroke-miterlimit="2" d="M52.8,60
				c0,0.2-0.2,0.6-0.4,0.8c-0.2,0.1-0.6-0.2-0.5-0.5L52.8,60z"/>
			<path fill="#FFFFFF" stroke="#FFFFFF" stroke-width="0" stroke-linecap="square" stroke-miterlimit="2" d="M64.6,62.1l0,0.3
				c-0.4-0.5-1-0.8-1.6-0.7l-0.4,0.4c-2,0.6-3.8,0.2-5.8,0c-0.3-1,1,0.3,1.2-0.1c0.2,0.2,0.6,0.1,0.9,0.1l0.2-0.2
				c0.2,0.1,0.1,0.5,0.5,0.4c0.6-0.7,1.6,0.5,2.5-0.5c0.1,0.2,0.5,0,0.7,0.1c0.3-0.4,0.3-0.4,0.8-0.3C64.1,61.4,64.3,62,64.6,62.1z"
				/>
			<path fill="#FFFFFF" stroke="#FFFFFF" stroke-width="0" stroke-linecap="square" stroke-miterlimit="2" d="M54.8,62.1
				c0.1,0.4-0.6,0.5-0.6,0.8c-0.2-0.2-0.8-0.8-0.3-0.8C54,62.2,54.7,62.1,54.8,62.1z"/>
			<path fill="#FFFFFF" stroke="#FFFFFF" stroke-width="0" stroke-linecap="square" stroke-miterlimit="2" d="M65.8,62.1l-0.3,0.6
				L65,62.1C65.1,62.1,65.6,61.9,65.8,62.1z"/>
			<path fill="#FFFFFF" d="M88.8,60.8C88.5,55,86,50,81.5,46.6l-3-1.5c-1.8,0.6-3.8,1.2-5.2,2.3c4-0.8,6.9,2.9,9,5.6
				c4.7,7,2.7,16.6-1.8,23c0.7,0.5,2,2.4,2.6,2.1c3-3.7,4.5-8,5.3-12.6L88.8,60.8z"/>
			<g>
				<path fill="#AB9021" d="M80.9,47.8l0.1-0.1l0.2,0.2l-0.1,0.6l-0.3-0.1c0-0.2-0.1-0.3-0.2-0.5c-0.1-0.2-0.2-0.3-0.4-0.4
					c-0.1-0.1-0.2-0.1-0.3-0.1c-0.1,0-0.2,0-0.2,0.1c-0.1,0.1,0.1,0.3,0.5,0.7c0.1,0.1,0.1,0.1,0.1,0.1c0.3,0.3,0.5,0.5,0.5,0.6
					c0.1,0.2,0.1,0.3,0,0.4c-0.1,0.2-0.3,0.3-0.6,0.2c-0.3,0-0.5-0.1-0.8-0.3c-0.1-0.1-0.3-0.2-0.4-0.3c-0.1-0.1-0.2-0.2-0.3-0.3
					l-0.1,0.1l-0.2-0.2l0.1-0.8l0.4,0.1c0,0.2,0.1,0.4,0.2,0.6c0.1,0.2,0.3,0.4,0.5,0.5c0.1,0.1,0.3,0.1,0.4,0.2
					c0.1,0,0.2,0,0.2-0.1c0.1-0.1-0.1-0.3-0.4-0.6c0,0-0.1-0.1-0.1-0.1c-0.2-0.2-0.3-0.3-0.4-0.4c-0.1-0.1-0.2-0.2-0.2-0.2
					C79,47.7,79,47.5,79,47.5c0-0.1,0-0.2,0.1-0.3c0.1-0.2,0.3-0.2,0.5-0.2c0.2,0,0.5,0.1,0.8,0.3c0.1,0.1,0.2,0.2,0.3,0.2
					C80.8,47.6,80.8,47.7,80.9,47.8z"/>
				<path fill="#AB9021" d="M82.5,50.5l0.7-0.1L82.9,51L82.5,50.5z M81.7,50.2c-0.2,0-0.4,0-0.6-0.2l-0.2,0.2l0.9,1L82,51
					c-0.1-0.1-0.1-0.2-0.2-0.2c0-0.1,0-0.1,0-0.1c0,0,0,0,0,0c0,0,0,0,0,0l0.3-0.1l0.6,0.7l-0.1,0.3c0,0,0,0,0,0c0,0,0,0,0,0
					c0,0-0.1,0-0.1,0c0,0-0.1-0.1-0.2-0.2l0,0l-0.2,0.2l1,1.2l0.2-0.2c-0.1-0.2-0.1-0.3-0.1-0.5l0,0l0.5-1.6l-0.5-0.6L81.7,50.2
					C81.7,50.2,81.7,50.2,81.7,50.2z"/>
				<path fill="#AB9021" d="M85.5,53.5c0,0,0.1,0.1,0.1,0.2c0.1,0.2,0.1,0.3,0.1,0.4c0,0.1-0.1,0.2-0.2,0.2c-0.1,0.1-0.2,0-0.3-0.1
					c-0.1-0.1-0.2-0.2-0.3-0.5c0,0,0-0.1,0-0.1c0,0,0,0,0-0.1l0.4-0.2C85.3,53.5,85.4,53.5,85.5,53.5z M85,52.7
					c0,0.1-0.1,0.1-0.2,0.2l-0.7,0.3c-0.1,0.1-0.2,0.1-0.3,0.1c-0.1,0-0.1-0.1-0.2-0.2l-0.2,0.1l0.7,1.4l0.2-0.1
					c-0.1-0.1-0.1-0.2-0.1-0.3c0-0.1,0.1-0.1,0.2-0.2l0.2-0.1l0.2,0.5c0.2,0.4,0.3,0.6,0.5,0.7c0.2,0.1,0.3,0.2,0.5,0.1
					c0.2-0.1,0.3-0.2,0.3-0.5c0-0.2-0.1-0.5-0.3-0.9l-0.7-1.5l-0.2,0.1C85,52.5,85,52.6,85,52.7z"/>
				<path fill="#AB9021" d="M86.5,55.9l0.2-0.1l0.4,1.6l-0.2,0.1c0-0.1-0.1-0.2-0.2-0.3c-0.1,0-0.2,0-0.3,0l-0.7,0.2
					c-0.2,0-0.2,0.1-0.3,0.2c0,0.1,0,0.2,0,0.3l-0.2,0.1l-0.4-1.6l0.2-0.1c0,0.1,0.1,0.2,0.2,0.3c0.1,0,0.2,0,0.3,0l0.7-0.2
					c0.2,0,0.2-0.1,0.3-0.2C86.5,56.2,86.5,56,86.5,55.9z"/>
				<path fill="#AB9021" d="M87.2,58.4l0.2,0l0.3,2.6l-0.6,0.5L87,61.2c0.1-0.2,0.2-0.4,0.3-0.6c0.1-0.2,0.1-0.4,0-0.7
					c0-0.1,0-0.2-0.1-0.3c0,0-0.1-0.1-0.2,0l-0.3,0l0,0.2c0,0.2,0.1,0.3,0.1,0.3c0,0.1,0.1,0.1,0.3,0.1l0,0.3l-0.9,0.1l0-0.3
					c0.1,0,0.2-0.1,0.2-0.2c0-0.1,0.1-0.2,0-0.3l0-0.2L86,59.7c-0.1,0-0.2,0-0.2,0.1c0,0.1,0,0.2,0,0.3c0,0.2,0.1,0.5,0.2,0.7
					c0.1,0.2,0.3,0.4,0.5,0.6l-0.1,0.3l-0.7-0.4l-0.3-2.7l0.2,0c0,0.1,0.1,0.2,0.1,0.3c0,0,0.1,0.1,0.3,0l0.8-0.1
					c0.2,0,0.3-0.1,0.3-0.1C87.2,58.6,87.2,58.5,87.2,58.4z"/>
				<path fill="#AB9021" d="M87.5,62.4l0.2,0l-0.1,1.4l-1.2,1l0.5,0c0.2,0,0.3,0,0.3-0.1c0,0,0.1-0.1,0.1-0.3l0.2,0l-0.1,1.2l-0.2,0
					c0-0.1,0-0.3,0-0.3c0-0.1-0.1-0.1-0.3-0.1l-1.4-0.1l0-0.6l1.6-1.4l-0.9-0.1c-0.2,0-0.3,0-0.3,0.1c0,0-0.1,0.1-0.1,0.3l-0.2,0
					l0.1-1.2l0.2,0c0,0.1,0,0.3,0,0.3c0,0.1,0.1,0.1,0.3,0.1l0.8,0c0.2,0,0.3,0,0.3-0.1C87.5,62.7,87.5,62.6,87.5,62.4z"/>
				<path fill="#AB9021" d="M86.9,66.4l0.5,0.5l-0.6,2.6l-0.7,0.2l0-0.3c0.2-0.1,0.3-0.2,0.4-0.3c0.1-0.1,0.2-0.3,0.2-0.5l0,0
					l-1.1-0.2c-0.2,0-0.3,0-0.3,0c-0.1,0-0.1,0.1-0.1,0.3L85,68.5l0.3-1.6l0.2,0.1c0,0.1,0,0.2,0,0.3c0,0.1,0.1,0.1,0.3,0.1l1.1,0.2
					l0,0c0-0.2,0.1-0.4,0-0.5c0-0.1-0.1-0.3-0.2-0.5L86.9,66.4z"/>
				<path fill="#AB9021" d="M86.2,70.4l0.2,0.1L85.9,72L85.7,72c0-0.1,0.1-0.3,0-0.3c0-0.1-0.1-0.1-0.3-0.2l-0.7-0.3
					c-0.1-0.1-0.2-0.1-0.3,0c-0.1,0-0.1,0.1-0.2,0.3L84,71.4l0.5-1.5l0.2,0.1c0,0.1-0.1,0.3,0,0.3c0,0.1,0.1,0.1,0.3,0.2l0.7,0.3
					c0.1,0.1,0.3,0.1,0.3,0C86.1,70.7,86.2,70.6,86.2,70.4z"/>
				<path fill="#AB9021" d="M84.1,73.5l0.3,0.6l-0.7,0L84.1,73.5z M84.1,72.6c-0.1-0.2-0.1-0.4,0-0.6l-0.2-0.1L83.3,73l0.2,0.1
					c0.1-0.1,0.1-0.2,0.2-0.2c0,0,0.1,0,0.1,0c0,0,0,0,0,0c0,0,0,0,0,0l0.2,0.3L83.5,74l-0.3,0c0,0,0,0,0,0c0,0,0,0,0,0
					c0,0-0.1-0.1,0-0.1c0,0,0-0.1,0.1-0.2l0,0l-0.2-0.1l-0.8,1.4l0.2,0.1c0.1-0.2,0.3-0.2,0.4-0.2l0,0l1.7,0l0.4-0.6L84.1,72.6
					C84.2,72.6,84.2,72.6,84.1,72.6z"/>
			</g>
			<path fill="#FFFFFF" d="M78.3,40.7c-9.2,3.5-17.9,3.9-27.9,2.6L48.6,43c-1.4-0.3-1.9-0.4-3.1-0.6c-1.9-0.5-3-0.7-3.9-1.2
				c-0.1,1.7,0.3,2.3,0.4,3.6c10.9,3.4,24.8,3.1,36-0.5l0.1-0.3L78.3,40.7z"/>
			<g>
				<path fill="#AB9021" d="M45,43.4c0,0,0.1,0,0.2,0c0.1,0,0.2,0.1,0.3,0.2c0.1,0.1,0.1,0.2,0.1,0.3c0,0.1-0.1,0.2-0.2,0.2
					c-0.1,0-0.3,0-0.4,0c0,0-0.1,0-0.1,0c0,0,0,0,0,0l0.1-0.4C44.9,43.5,45,43.4,45,43.4z M44.3,43.2c0,0,0,0.2,0,0.3l-0.2,0.7
					c0,0.2-0.1,0.3-0.1,0.3c0,0-0.1,0-0.2,0l-0.1,0.2l1.2,0.3l0.1-0.2c-0.1,0-0.2-0.1-0.2-0.1c0-0.1,0-0.2,0-0.3l0.1-0.2l0.4,0.1
					c0.3,0.1,0.5,0.1,0.7,0c0.2-0.1,0.3-0.2,0.3-0.4c0-0.2,0-0.4-0.1-0.5c-0.1-0.1-0.4-0.2-0.7-0.3l-1.3-0.3l-0.1,0.2
					C44.2,43.1,44.2,43.2,44.3,43.2z"/>
				<path fill="#AB9021" d="M48.3,44.2c0.1,0.2,0.1,0.4,0.1,0.6c0,0.2-0.1,0.4-0.3,0.5c-0.1,0.1-0.3,0.2-0.5,0.1
					c-0.2,0-0.3-0.1-0.4-0.3c-0.1-0.2-0.1-0.4-0.1-0.6c0-0.2,0.1-0.4,0.3-0.5c0.1-0.1,0.3-0.2,0.5-0.1C48.1,44,48.2,44.1,48.3,44.2z
					 M46.9,43.8c-0.3,0.1-0.5,0.4-0.5,0.7c-0.1,0.3,0,0.6,0.2,0.8c0.2,0.2,0.5,0.4,0.9,0.5c0.4,0.1,0.7,0,1-0.1
					c0.3-0.1,0.5-0.4,0.5-0.7c0.1-0.3,0-0.6-0.2-0.8c-0.2-0.2-0.5-0.4-0.9-0.5C47.5,43.6,47.2,43.6,46.9,43.8z"/>
				<path fill="#AB9021" d="M49.4,44.6l0.4-0.6l2,0.3L52,45l-0.2,0c-0.1-0.2-0.2-0.3-0.3-0.4c-0.1-0.1-0.2-0.1-0.4-0.1l0,0l-0.2,1.1
					c0,0.2,0,0.3,0,0.3c0,0,0.1,0.1,0.2,0.1l0,0.2l-1.2-0.2l0-0.2c0.1,0,0.2,0,0.2,0c0,0,0.1-0.1,0.1-0.3l0.2-1.1l0,0
					c-0.2,0-0.3,0-0.4,0c-0.1,0-0.2,0.1-0.3,0.3L49.4,44.6z"/>
				<path fill="#AB9021" d="M52.2,44.6l0-0.2l2.1,0.2l0.3,0.6l-0.2,0.1c-0.1-0.2-0.3-0.3-0.4-0.4c-0.2-0.1-0.3-0.1-0.5-0.2
					c-0.1,0-0.2,0-0.2,0c0,0-0.1,0.1-0.1,0.2l0,0.3l0.1,0c0.1,0,0.2,0,0.3,0c0,0,0.1-0.1,0.1-0.2l0.3,0l-0.1,0.9l-0.3,0
					c0-0.1,0-0.2-0.1-0.3c0-0.1-0.1-0.1-0.2-0.1l-0.1,0l0,0.5c0,0.1,0,0.2,0,0.2c0,0,0.1,0.1,0.2,0.1c0.2,0,0.4,0,0.6-0.1
					c0.2-0.1,0.4-0.2,0.5-0.4l0.2,0.1l-0.4,0.7L52,46.4l0-0.2c0.1,0,0.2,0,0.2,0c0,0,0.1-0.1,0.1-0.3l0.1-0.8c0-0.2,0-0.3,0-0.3
					C52.4,44.7,52.3,44.7,52.2,44.6z"/>
				<path fill="#AB9021" d="M54.9,44.9l0-0.2l1.1,0l0.8,1.2l0-0.5c0-0.2,0-0.3,0-0.3c0,0-0.1-0.1-0.2-0.1l0-0.2l0.9,0l0,0.2
					c-0.1,0-0.2,0-0.2,0.1c0,0-0.1,0.1-0.1,0.3l-0.1,1.4l-0.5,0l-1.1-1.6l0,0.9c0,0.2,0,0.3,0,0.3c0,0,0.1,0.1,0.2,0.1l0,0.2l-0.9,0
					l0-0.2c0.1,0,0.2,0,0.2-0.1c0,0,0.1-0.1,0.1-0.3l0-0.8c0-0.2,0-0.3,0-0.3C55.1,44.9,55.1,44.9,54.9,44.9z"/>
				<path fill="#AB9021" d="M57.7,45.4l0.3-0.6l2.1,0l0.3,0.6l-0.2,0.1c-0.1-0.2-0.2-0.3-0.3-0.3c-0.1-0.1-0.2-0.1-0.4-0.1h0l0,1.1
					c0,0.2,0,0.3,0.1,0.3c0,0,0.1,0.1,0.2,0.1l0,0.2l-1.2,0l0-0.2c0.1,0,0.2,0,0.2-0.1c0,0,0.1-0.1,0.1-0.3l0-1.1h0
					c-0.2,0-0.3,0-0.4,0.1c-0.1,0.1-0.2,0.2-0.3,0.3L57.7,45.4z"/>
				<path fill="#AB9021" d="M60.5,45l0-0.2l1.3,0l0,0.2c-0.1,0-0.2,0-0.2,0.1c0,0-0.1,0.1-0.1,0.3l0,0.8c0,0.2,0,0.3,0.1,0.3
					c0,0,0.1,0.1,0.2,0.1l0,0.2l-1.3,0l0-0.2c0.1,0,0.2,0,0.2-0.1c0,0,0.1-0.1,0.1-0.3l0-0.8c0-0.2,0-0.3-0.1-0.3
					C60.7,45,60.6,45,60.5,45z"/>
				<path fill="#AB9021" d="M63.9,45c0.1,0.1,0.2,0.3,0.2,0.6c0,0.2,0,0.4-0.1,0.6c-0.1,0.1-0.3,0.2-0.5,0.2c-0.2,0-0.4,0-0.5-0.2
					c-0.1-0.1-0.2-0.3-0.2-0.6c0-0.3,0-0.4,0.1-0.6c0.1-0.1,0.3-0.2,0.5-0.2C63.6,44.8,63.8,44.8,63.9,45z M62.4,44.9
					c-0.2,0.2-0.3,0.5-0.3,0.8c0,0.3,0.2,0.6,0.4,0.7c0.3,0.2,0.6,0.2,1,0.2c0.4,0,0.7-0.1,1-0.4c0.2-0.2,0.3-0.5,0.3-0.8
					c0-0.3-0.2-0.6-0.4-0.7c-0.3-0.2-0.6-0.2-1-0.2C63,44.6,62.7,44.7,62.4,44.9z"/>
				<path fill="#AB9021" d="M66.1,44.7c0,0,0.1-0.1,0.2-0.1c0.2,0,0.3,0,0.4,0c0.1,0,0.2,0.1,0.2,0.2c0,0.1,0,0.2-0.1,0.3
					c-0.1,0.1-0.3,0.1-0.5,0.1c0,0-0.1,0-0.1,0c0,0,0,0-0.1,0l0-0.4C66.1,44.8,66.1,44.7,66.1,44.7z M65.4,44.8c0,0,0.1,0.1,0.1,0.3
					l0.1,0.8c0,0.2,0,0.3,0,0.3c0,0-0.1,0.1-0.2,0.1l0,0.2l1.3-0.1l0-0.2c-0.1,0-0.2,0-0.2,0c0,0-0.1-0.1-0.1-0.3l0-0.2l0.2,0
					l0.9,0.8l0.8-0.1l0-0.2c-0.1,0-0.2,0-0.2,0c-0.1,0-0.1-0.1-0.2-0.1l-0.6-0.4c0.2-0.1,0.3-0.1,0.4-0.2c0.1-0.1,0.1-0.2,0.1-0.3
					c0-0.2-0.1-0.3-0.3-0.4c-0.2-0.1-0.4-0.1-0.8,0l-1.4,0.2l0,0.2C65.2,44.7,65.3,44.7,65.4,44.8z"/>
				<path fill="#AB9021" d="M69.4,44.2l0-0.2l2-0.4l0.4,0.5l-0.2,0.1c-0.2-0.1-0.3-0.2-0.5-0.3c-0.2,0-0.3-0.1-0.5,0
					c-0.1,0-0.2,0-0.2,0.1c0,0,0,0.1,0,0.2l0,0.3l0.1,0c0.1,0,0.2-0.1,0.2-0.1c0,0,0-0.1,0-0.3l0.3,0l0.2,0.9L71,45
					c0-0.1-0.1-0.2-0.1-0.2c-0.1,0-0.1-0.1-0.2,0l-0.1,0l0.1,0.5c0,0.1,0.1,0.2,0.1,0.2c0,0,0.1,0,0.2,0c0.2,0,0.4-0.1,0.5-0.2
					c0.2-0.1,0.3-0.3,0.4-0.5l0.3,0.1l-0.3,0.7l-2.1,0.4l0-0.2c0.1,0,0.2-0.1,0.2-0.1c0,0,0-0.2,0-0.3l-0.1-0.8
					c0-0.2-0.1-0.3-0.1-0.3C69.6,44.2,69.5,44.2,69.4,44.2z"/>
				<path fill="#AB9021" d="M73.6,43.2l0-0.1l0.2-0.1l0.3,0.5L74,43.7c-0.1-0.1-0.3-0.2-0.4-0.2c-0.1,0-0.3,0-0.4,0
					c-0.1,0-0.2,0.1-0.3,0.1c-0.1,0.1-0.1,0.1-0.1,0.2c0,0.1,0.2,0.1,0.7,0.1c0.1,0,0.1,0,0.1,0c0.3,0,0.5,0,0.7,0.1
					c0.1,0.1,0.2,0.2,0.3,0.3c0,0.2,0,0.4-0.1,0.6c-0.1,0.2-0.4,0.3-0.6,0.3c-0.1,0-0.2,0-0.4,0c-0.1,0-0.2,0-0.4,0l0,0.1l-0.2,0
					l-0.5-0.7l0.3-0.1c0.1,0.2,0.3,0.3,0.5,0.3c0.2,0.1,0.4,0.1,0.5,0c0.1,0,0.2-0.1,0.3-0.1c0.1-0.1,0.1-0.1,0.1-0.2
					c0-0.1-0.2-0.2-0.6-0.1c0,0-0.1,0-0.1,0c-0.2,0-0.3,0-0.4,0c-0.1,0-0.2,0-0.2,0c-0.1,0-0.2-0.1-0.2-0.1
					c-0.1-0.1-0.1-0.1-0.1-0.2c0-0.2,0-0.3,0.1-0.5c0.1-0.2,0.3-0.3,0.6-0.3c0.1,0,0.2,0,0.3,0C73.4,43.2,73.5,43.2,73.6,43.2z"/>
				<path fill="#AB9021" d="M74.6,43.5l0.1-0.7l2-0.6l0.4,0.5L76.9,43c-0.1-0.1-0.3-0.2-0.4-0.2c-0.1,0-0.3,0-0.4,0l0,0l0.3,1.1
					c0,0.2,0.1,0.2,0.1,0.3c0.1,0,0.1,0,0.2,0l0.1,0.2l-1.2,0.3l-0.1-0.2c0.1,0,0.2-0.1,0.2-0.1c0-0.1,0-0.2,0-0.3l-0.3-1.1l0,0
					c-0.2,0-0.3,0.1-0.4,0.2c-0.1,0.1-0.2,0.2-0.2,0.4L74.6,43.5z"/>
			</g>
			<path fill="#FFFFFF" stroke="#FFFFFF" stroke-width="0" stroke-linecap="square" stroke-miterlimit="2" d="M67.3,60.4L67,60.7
				l-0.3-0.5C66.8,60.2,67.4,59.9,67.3,60.4z"/>
			<path fill="#FFFFFF" stroke="#FFFFFF" stroke-width="0" stroke-linecap="square" stroke-miterlimit="2" d="M53,71.5
				c-0.1,0.1-0.2,0-0.3-0.1c-0.1,0-0.5,0.1-0.7,0c-0.4-0.1,0.1-0.3,0-0.3L51.4,71l0.2-0.2l-0.4-0.2l-0.6-0.2l0.3-0.2l-1-0.4
				C50.3,69.5,52.7,71,53,71.5z"/>
			<path fill="#FFFFFF" d="M62,75c0.5,0.5,1.1,1,1.1,1c0.2,0,0.6-0.8,0.7-0.9c0-0.1,0.1,0,0,0C63.6,75,61.9,75,62,75z"/>
			<path fill="#FFFFFF" stroke="#FFFFFF" stroke-width="0" stroke-linecap="square" stroke-miterlimit="2" d="M52.4,77.6
				c0,0,0.2,1.5-0.4,1.7c-0.5,0.2,14.9,0.1,14.9,0.1s0.7-1.6,0.7-1.7c0-0.1-2.9-0.1-2.9-0.1l0.2,0.5l-2.3-0.5H52.4z"/>
			<path fill="#FFFFFF" d="M68.6,77.5L68,78.9l-0.1,0.3l4.6-3.2c0,0,0.2-0.2,0.2-0.3c0-0.2-0.3-0.5-0.6-0.3
				C71.6,75.6,68.6,77.5,68.6,77.5z"/>
			<g>
				<path fill="#FFFFFF" d="M37.1,53.2c-4.6,8.6-1.2,18.8,2.3,22.9c-0.4,1.1-1.7,1.3-2.6,2c-2.9-2.7-3.9-6.6-4.9-10.3
					c-1.4-6.7-0.5-14.4,4.7-19.4c1.5-1.2,3-2.4,4.7-3c1.6,0.7,3.3,1.2,4.9,2.1C41.9,46.6,39.1,50.1,37.1,53.2z"/>
				<path fill="#FFFFFF" d="M36.6,48.3c-5.2,5-6.1,12.7-4.7,19.4c1,3.7,2,7.7,4.9,10.3c0.9-0.7,2.1-0.9,2.6-2
					c-3.5-4.2-6.9-14.3-2.3-22.9c2-3.1,4.8-6.6,9.1-5.7c-1.6-0.9-3.3-1.4-4.9-2.1C39.5,45.9,38.1,47.2,36.6,48.3z"/>
			</g>
			<g>
				<path fill="#AB9021" d="M34.2,71.5c0.1-0.2,0.2-0.3,0.5-0.4c0.2-0.1,0.4-0.1,0.6,0c0.2,0.1,0.3,0.3,0.4,0.5
					c0.1,0.2,0.1,0.5,0,0.7c-0.1,0.2-0.2,0.3-0.5,0.4c-0.2,0.1-0.4,0.1-0.6,0c-0.2-0.1-0.3-0.3-0.4-0.5
					C34.2,71.9,34.2,71.7,34.2,71.5z M34.7,73.3c0.3,0.2,0.6,0.3,0.9,0.2c0.3-0.1,0.5-0.4,0.5-0.7c0.1-0.4,0-0.8-0.2-1.3
					c-0.2-0.5-0.4-0.8-0.7-1.1c-0.3-0.2-0.6-0.3-0.9-0.2c-0.3,0.1-0.5,0.4-0.5,0.7c-0.1,0.4,0,0.8,0.2,1.3
					C34.2,72.7,34.4,73.1,34.7,73.3z"/>
				<path fill="#AB9021" d="M33.3,69.1l-0.2,0l-0.2-1.4l1.1-0.9l-1.3-0.5l-0.2-1.5l0.2,0l0,0c0,0.2,0.1,0.3,0.1,0.3
					c0,0.1,0.2,0.1,0.3,0l0.8-0.1c0.2,0,0.3-0.1,0.3-0.1c0-0.1,0-0.2,0-0.4l0.2,0l0.2,1.6l-0.2,0l0,0c0-0.2-0.1-0.3-0.1-0.3
					c0-0.1-0.2-0.1-0.3,0L33,66l1.7,0.7l0.1,0.4l-1.5,1.1l1-0.1c0.2,0,0.3-0.1,0.3-0.1c0-0.1,0-0.2,0-0.3l0.2,0l0.2,1.2l-0.2,0
					c0-0.2-0.1-0.2-0.1-0.3c0,0-0.2-0.1-0.3,0l-0.8,0.1c-0.2,0-0.3,0.1-0.3,0.1C33.3,68.8,33.3,68.9,33.3,69.1z"/>
				<path fill="#AB9021" d="M32.7,63.5l-0.2,0l0-1.4l1.2-1.1l-0.5,0c-0.2,0-0.3,0-0.3,0.1c0,0-0.1,0.1-0.1,0.3l-0.2,0l0-1.2l0.2,0
					c0,0.1,0,0.3,0.1,0.3c0,0.1,0.1,0.1,0.3,0.1l1.4,0l0,0.6l-1.6,1.5l0.9,0c0.2,0,0.3,0,0.3-0.1c0-0.1,0.1-0.1,0.1-0.3l0.2,0l0,1.2
					l-0.2,0c0-0.1,0-0.3-0.1-0.3c0-0.1-0.1-0.1-0.3-0.1l-0.8,0c-0.2,0-0.3,0-0.3,0.1S32.7,63.3,32.7,63.5z"/>
				<path fill="#AB9021" d="M33,58.9l-0.2,0l0.3-1.6l0.2,0c0,0.2,0,0.3,0,0.3c0,0.1,0.1,0.1,0.3,0.1l0.8,0.1c0.2,0,0.3,0,0.3,0
					c0.1,0,0.1-0.1,0.1-0.3l0.2,0l-0.3,1.6l-0.2,0c0-0.2,0-0.3,0-0.3c0-0.1-0.1-0.1-0.3-0.1l-0.8-0.1c-0.2,0-0.3,0-0.3,0
					C33.1,58.6,33,58.7,33,58.9z"/>
				<path fill="#AB9021" d="M33.5,55.9l-0.2-0.1l0.5-1.5l0.2,0.1c0,0.1-0.1,0.2,0,0.3c0,0.1,0.1,0.1,0.3,0.2l0.7,0.3
					c0.1,0,0.2,0,0.3,0c0.1-0.1,0.2-0.2,0.2-0.4c0.1-0.2,0.1-0.4,0.1-0.5c0-0.1-0.1-0.2-0.3-0.3l-0.6-0.2c-0.2-0.1-0.3-0.1-0.3,0
					c-0.1,0-0.1,0.1-0.2,0.2L34,53.8l0.4-1.1l0.2,0.1c0,0.1-0.1,0.2,0,0.3c0,0.1,0.1,0.1,0.3,0.2l0.6,0.2c0.3,0.1,0.4,0.3,0.5,0.5
					c0.1,0.2,0,0.6-0.1,1c-0.1,0.4-0.3,0.7-0.5,0.9c-0.2,0.2-0.4,0.2-0.6,0.1L34,55.7c-0.2-0.1-0.3-0.1-0.3,0
					C33.6,55.7,33.6,55.7,33.5,55.9z"/>
				<path fill="#AB9021" d="M35.3,51.3l-0.2-0.2l0.9-1.1l1.4,0.3L36.9,49l1-1.1l0.2,0.2l0,0c-0.1,0.1-0.2,0.2-0.2,0.3
					c0,0.1,0.1,0.2,0.2,0.3l0.6,0.5c0.1,0.1,0.2,0.1,0.3,0.1c0.1,0,0.2-0.1,0.3-0.2l0.2,0.2l-1.1,1.3l-0.2-0.2l0,0
					c0.1-0.1,0.2-0.2,0.2-0.3c0-0.1-0.1-0.2-0.2-0.3l-0.8-0.6l0.7,1.7l-0.3,0.3L36,50.8l0.8,0.6c0.1,0.1,0.2,0.1,0.3,0.1
					c0.1,0,0.2-0.1,0.3-0.2l0.2,0.2l-0.8,1l-0.2-0.2c0.1-0.1,0.1-0.2,0.1-0.3c0-0.1-0.1-0.2-0.2-0.3l-0.6-0.5
					c-0.1-0.1-0.2-0.1-0.3-0.1C35.5,51.1,35.4,51.2,35.3,51.3z"/>
			</g>
		</g>
	</g>
</g>
</svg>
